<svg width="580" height="65" viewBox="0 0 580 65" fill="none" xmlns="http://www.w3.org/2000/svg">
<g clip-path="url(#clip0_106_31)">
<path d="M29.1872 0.447632C36.4598 0.447632 41.9398 2.3319 45.6219 6.01405C47.0309 7.40859 48.1407 9.07586 48.8833 10.9139C49.626 12.752 49.9859 14.7222 49.9412 16.7042V16.8823C49.9412 23.9011 46.1618 28.1069 41.6806 30.4447C48.9423 33.2306 53.4505 37.5391 53.4505 45.8914V46.0696C53.4505 57.5641 44.1102 63.3141 29.9215 63.3141H0V0.447632H29.1872ZM36.1736 19.2201V19.0365C36.1736 14.8199 32.9342 12.5577 27.1032 12.5577H13.4976V25.8663H26.2232C32.3295 25.8663 36.1736 23.8903 36.1736 19.2201ZM39.6776 44.3635V44.1853C39.6776 39.9632 36.6271 37.3609 29.4194 37.3609H13.4976V51.1879H29.9053C36.0116 51.1879 39.6938 49.0336 39.6938 44.3635H39.6776ZM99.1427 -0.000488281L126.089 63.3141H111.625L105.881 49.2118H79.2958L73.5512 63.3141H59.4489L86.3847 -0.000488281H99.1427ZM92.5882 16.6124L84.2251 36.9992H100.962L92.5882 16.6124ZM148.539 0.447632L177.996 39.1534V0.447632H191.666V63.3141H179.88L149.435 23.3612V63.3141H135.786V0.447632H148.539ZM219.482 0.447632L248.939 39.1534V0.447632H262.588V63.3141H250.823L220.384 23.3612V63.3141H206.729V0.447632H219.482ZM325.093 0.447632V12.7521H291.419V25.5046H321.054V37.7928H291.419V51.0097H325.562V63.3141H277.678V0.447632H325.093ZM405.198 58.6439C405.198 55.3181 407.444 52.9857 410.597 52.9857C413.75 52.9857 415.899 55.3181 415.899 58.6439C415.899 61.8834 413.831 64.3021 410.5 64.3021C407.358 64.3021 405.198 61.878 405.198 58.6439ZM424.856 29.0842L437.096 58.7357L449.39 29.0842H453.574L438.77 63.7514H435.33L420.526 29.0842H424.856ZM464.588 29.0842V63.5085H460.701V29.0842H464.588ZM486.616 29.0842C497.414 29.0842 504.908 36.5079 504.908 46.1991V46.2963C504.908 55.9822 497.436 63.5085 486.616 63.5085H474.668V29.0842H486.616ZM500.875 46.3935V46.2963C500.875 38.6729 495.319 32.6745 486.616 32.6745H478.55V59.9289H486.616C495.319 59.9289 500.875 54.0655 500.875 46.3935ZM538.004 29.0842V32.6259H517.007V44.3797H535.79V47.9214H517.007V59.9667H538.247V63.5085H513.12V29.0842H538.004ZM544.542 46.3935V46.2963C544.542 36.8048 551.674 28.4795 562.149 28.4795C572.623 28.4795 579.652 36.6914 579.652 46.1829C579.701 46.2315 579.701 46.2315 579.652 46.2801C579.652 55.7716 572.52 64.097 562.051 64.097C551.583 64.097 544.542 55.885 544.542 46.3935V46.3935ZM575.619 46.3935V46.2963C575.619 38.4785 569.918 32.086 562.051 32.086C554.185 32.086 548.554 38.3813 548.554 46.1991V46.2963C548.554 54.1141 554.255 60.5066 562.127 60.5066C569.999 60.5066 575.619 54.2113 575.619 46.3935V46.3935ZM362.362 0.447632H337.845V63.3141H362.362C382.123 63.3141 395.772 49.5735 395.772 31.8809V31.7027C395.75 14.037 382.123 0.447632 362.362 0.447632ZM378.192 33.6086L366.914 39.7041L355.641 45.7996C355.303 45.9798 354.924 46.0672 354.542 46.053C354.16 46.0387 353.789 45.9233 353.466 45.7185C353.143 45.5137 352.88 45.2269 352.705 44.8873C352.529 44.5477 352.447 44.1676 352.466 43.7858L352.919 30.8281L353.378 17.8703C353.386 17.4886 353.495 17.1158 353.694 16.7898C353.893 16.4638 354.174 16.1964 354.51 16.0148C354.846 15.8331 355.224 15.7438 355.606 15.7558C355.987 15.7678 356.359 15.8808 356.683 16.0833L367.508 22.9616L378.306 29.8346C378.623 30.0421 378.881 30.3275 379.056 30.6634C379.232 30.9994 379.318 31.3747 379.306 31.7534C379.295 32.1321 379.186 32.5015 378.991 32.8263C378.796 33.1512 378.521 33.4205 378.192 33.6086V33.6086Z" fill="white"/>
</g>
<defs>
<clipPath id="clip0_106_31">
<rect width="579.69" height="64.3026" fill="white"/>
</clipPath>
</defs>
</svg>
