<svg width="100" height="100" viewBox="0 0 100 100" fill="none" xmlns="http://www.w3.org/2000/svg">
<g clip-path="url(#clip0)">
<path fill-rule="evenodd" clip-rule="evenodd" d="M78.6806 9.99995H22.2607C17.6877 9.99995 16 11.6876 16 16.2628V71.4692C16 71.987 16.0209 72.4679 16.0666 72.9135C16.0753 72.9967 16.0834 73.0798 16.0915 73.1627L16.0915 73.1627C16.1803 74.0744 16.2678 74.9717 17.1191 75.9816C17.2099 76.0896 18.1581 76.7952 18.1581 76.7952C18.2494 76.84 18.3355 76.8826 18.4186 76.9238L18.4193 76.9241L18.4193 76.9241L18.4193 76.9241C18.8005 77.113 19.1197 77.2711 19.5917 77.4611L47.3736 89.1007C48.8158 89.7619 49.4189 90.0196 50.4665 89.9988V89.999H50.4706H50.4747V89.9988C51.5222 90.0196 52.1253 89.7619 53.5677 89.1007L81.3495 77.4611C81.821 77.2714 82.1399 77.1134 82.5204 76.9249L82.5205 76.9249L82.5207 76.9247L82.5231 76.9236C82.6061 76.8825 82.6921 76.8399 82.7832 76.7952C82.7832 76.7952 83.7314 76.0896 83.822 75.9816C84.6734 74.9717 84.7608 74.0744 84.8497 73.1627C84.8578 73.0798 84.8659 72.9967 84.8745 72.9135C84.9203 72.4679 84.9413 71.987 84.9413 71.4692V16.2628C84.9413 11.6876 83.2535 9.99995 78.6806 9.99995ZM74.9014 65.5028L74.8886 65.6302L74.876 65.7701L74.8504 65.8975L74.8124 66.0248L74.7877 66.1394L74.7493 66.2668L74.6985 66.3814L74.6475 66.4834L74.5973 66.5979L74.5337 66.6997L74.4701 66.8017L74.3944 66.9035L74.3306 67.0054L74.255 67.0944L74.1658 67.1836L74.0901 67.2601L73.9884 67.3493L73.8999 67.4257L73.7981 67.5021L73.6969 67.5649L73.5958 67.6413L73.4812 67.7049L73.3673 67.7559L73.2535 67.8195L73.1261 67.8705L72.9995 67.9215L72.873 67.9596L72.7464 67.9979L72.6318 68.036L72.5053 68.0616L72.3913 68.087L72.2776 68.1124L72.1502 68.138L72.0235 68.1506L71.9097 68.1634L71.7823 68.1762L71.6431 68.189L71.5164 68.2016H71.3898H71.2505H71.1105H70.9839L70.8572 68.189H70.718L70.5913 68.1762L70.464 68.1634L70.3247 68.1506L70.1981 68.1252L70.0716 68.1124L69.9442 68.087L69.8175 68.0616L69.6909 68.036L69.5644 68.0106L69.4371 67.9725L69.3232 67.947L69.1966 67.9087L69.0699 67.8705L68.9555 67.8195L68.8289 67.7813L68.715 67.7433L68.5883 67.6923L68.4738 67.6413L68.3599 67.5903L68.246 67.5275L68.1315 67.4765L68.0176 67.4128L67.9165 67.3493L67.8018 67.2855L67.7007 67.2219L67.5989 67.1582L67.4977 67.0818L67.3966 67.0054L67.2948 66.929L67.1935 66.8526L67.1044 66.7761L67.0033 66.6871L67.0797 66.5852L67.1681 66.496L67.2445 66.3941L67.333 66.2922L67.4094 66.2032L67.485 66.1013L67.5742 65.9993L67.6497 65.9103L67.7389 65.8084L67.8146 65.7192L67.9037 65.6174L67.9794 65.5154L68.0558 65.4264L68.1441 65.3245L68.2206 65.2225L68.3089 65.1335L68.3853 65.0316L68.4865 65.1081L68.6004 65.1845L68.7022 65.2609L68.8161 65.3373L68.918 65.4009L69.0319 65.4772L69.1329 65.541L69.2476 65.5918L69.3486 65.6556L69.4625 65.7066L69.5772 65.7574L69.6909 65.8084L69.805 65.8466L69.9195 65.8975L70.046 65.9357L70.1727 65.9739L70.2865 66.0121L70.4139 66.0377L70.5405 66.0631L70.667 66.0885L70.8064 66.1013L70.9336 66.1267H71.0603L71.1995 66.1394H71.3262H71.4782L71.6175 66.1267L71.7449 66.1013L71.8587 66.0758L71.9726 66.0503L72.0745 66.0121L72.1629 65.9613L72.2648 65.8849L72.3404 65.7957L72.3913 65.6937L72.4297 65.5792L72.4422 65.4518V65.4264L72.4297 65.2735L72.3787 65.1461L72.3149 65.0571L72.2266 64.9806L72.1246 64.9042L72.0235 64.8534L71.9097 64.8024L71.7823 64.7514L71.6303 64.6879L71.5418 64.6623L71.4408 64.6369L71.3262 64.5986L71.2123 64.5731L71.0857 64.5349L70.9583 64.5095L70.8191 64.4713L70.6924 64.4459L70.5531 64.4077L70.4265 64.3822L70.2991 64.344L70.1727 64.3185L70.046 64.2803L69.9314 64.2422L69.805 64.2166L69.6909 64.1784L69.5772 64.1402L69.4625 64.102L69.3232 64.051L69.1966 64L69.0699 63.9492L68.9427 63.8982L68.8289 63.8345L68.7022 63.7709L68.6004 63.7073L68.4865 63.6436L68.3853 63.5672L68.2835 63.5036L68.1951 63.427L68.1061 63.338L68.0176 63.2488L67.9412 63.1596L67.8656 63.0705L67.8018 62.9815L67.7389 62.8795L67.6753 62.765L67.6243 62.6767L67.5861 62.5747L67.5487 62.4601L67.5105 62.3582L67.485 62.2308L67.4595 62.1162L67.4467 61.9889L67.4341 61.8615L67.4213 61.7216V61.5814V61.556V61.4286L67.4341 61.3013L67.4467 61.1867L67.4595 61.0593L67.485 60.9448L67.5105 60.8302L67.5487 60.7154L67.5742 60.6009L67.6243 60.4863L67.6753 60.3717L67.7261 60.2572L67.7892 60.1424L67.8527 60.0279L67.9284 59.926L68.005 59.8241L68.0933 59.7223L68.1824 59.6332L68.2708 59.5312L68.3727 59.442L68.461 59.3784L68.5629 59.302L68.6642 59.2256L68.7651 59.1619L68.8798 59.0983L68.9937 59.0473L69.1074 58.9837L69.2221 58.9328L69.3486 58.8945L69.4752 58.8436L69.5898 58.8054L69.6909 58.7799L69.805 58.7544L69.9195 58.729L70.046 58.7036L70.1599 58.678L70.2865 58.6654L70.4139 58.6526L70.5405 58.6398L70.667 58.6272H70.7936H70.9336H71.0731H71.2123L71.3516 58.6398L71.491 58.6526H71.6175L71.7576 58.6654L71.8841 58.6908L72.0235 58.7036L72.1502 58.729L72.2648 58.7544L72.3913 58.7799L72.5179 58.8054L72.6318 58.8309L72.7591 58.8691L72.873 58.9073L72.9869 58.9328L73.1142 58.9837L73.2281 59.0219L73.3419 59.0727L73.4558 59.1237L73.583 59.1747L73.6969 59.2384L73.7981 59.2894L73.9127 59.353L74.0266 59.4166L74.1278 59.4804L74.2422 59.5568L74.3435 59.6203L74.4453 59.6969L74.5465 59.7733L74.6475 59.8495L74.5719 59.9515L74.5083 60.0534L74.4326 60.1552L74.3561 60.2572L74.2806 60.3717L74.2168 60.4735L74.1404 60.5755L74.0647 60.6773L74.0012 60.7792L73.9253 60.8812L73.8491 60.983L73.7853 61.0848L73.7097 61.1995L73.6332 61.3013L73.5576 61.4032L73.494 61.505L73.4183 61.6068L73.3164 61.5306L73.2027 61.4668L73.1014 61.4032L72.9995 61.3267L72.8858 61.2759L72.7838 61.2121L72.67 61.1611L72.5689 61.1103L72.4543 61.0593L72.3531 61.0084L72.2394 60.9702L72.1375 60.9192L71.998 60.8812L71.8715 60.8428L71.7449 60.8047L71.6175 60.7792L71.491 60.7538L71.3644 60.7282L71.2379 60.7154L71.1105 60.7028L70.9967 60.69H70.87H70.718L70.5787 60.7154L70.4513 60.741L70.3375 60.7664L70.2364 60.8174L70.1472 60.8682L70.0332 60.9702L69.9568 61.0848L69.9068 61.1995L69.8939 61.3267V61.3523L69.9068 61.5178L69.9696 61.6578L70.0206 61.7342L70.109 61.8234L70.2236 61.8871L70.3247 61.9507L70.4513 62.0017L70.5913 62.0527L70.7434 62.1035L70.8446 62.129L70.9457 62.1672L71.0603 62.1926L71.1741 62.2308L71.3006 62.2564L71.4408 62.2946L71.5802 62.3326L71.7195 62.371L71.8587 62.3964L71.9853 62.4346L72.1246 62.4728L72.252 62.4983L72.3787 62.5365L72.5053 62.5747L72.619 62.6129L72.7464 62.6511L72.8604 62.6893L72.9741 62.7275L73.1142 62.7776L73.2407 62.8414L73.3673 62.8923L73.494 62.9559L73.6086 63.0197L73.7225 63.0833L73.8235 63.1469L73.9253 63.2234L74.0266 63.287L74.1278 63.3762L74.2296 63.4653L74.3179 63.5672L74.407 63.6563L74.4827 63.7583L74.5591 63.8728L74.622 63.9746L74.6858 64.0894L74.7367 64.1912L74.7749 64.3057L74.8124 64.4203L74.8378 64.5349L74.8632 64.6623L74.8886 64.7897L74.9014 64.917L74.9142 65.0571V65.1971V65.2225V65.3627L74.9014 65.5028ZM66.0107 68.0489H65.8835H65.7569H65.6304H65.5038H65.3764H65.2497H65.1233H64.9966H64.8566H64.73H64.6034H64.4769H64.3493H64.2229H64.0962H63.9697H63.8423H63.7157H63.5892H63.4626H63.3359H63.2086H63.0821H62.9555H62.8288H62.7014H62.5749H62.4483H62.309H62.1817H62.055H61.9285H61.8019H61.6746H61.5479H61.4214H61.2947H61.1674H61.0409H60.9143H60.7876H60.6602H60.5338H60.4071H60.2805H60.1533H60.0266H59.8872H59.7607H59.6341H59.5067H59.3802H59.2535H59.1271H58.9998H58.8731H58.7465V67.9215V67.7941V67.6669V67.5402V67.4128V67.2855V67.1582V67.031V66.9035V66.7761V66.6489V66.5215V66.3941V66.2668V66.1394V66.0121V65.8849V65.7574V65.6428V65.5154V65.3882V65.2609V65.1335V65.0061V64.8788V64.7514V64.624V64.4967V64.3695V64.2422V64.1148V63.9874V63.8601V63.7327V63.6053V63.478V63.3506V63.2234V63.0961V62.9687V62.8414V62.7147V62.5875V62.4601V62.3326V62.2054V62.0781V61.9507V61.8234V61.696V61.5686V61.4414V61.314V61.1867V61.0721V60.9448V60.8174V60.69V60.5627V60.4353V60.308V60.1806V60.0534V59.926V59.7987V59.6713V59.5439V59.4166V59.2894V59.1619V59.0347V58.9073V58.7799H58.8731H58.9998H59.1271H59.2535H59.3802H59.5067H59.6341H59.7607H59.8872H60.0139H60.1412H60.2679H60.3943H60.521H60.6355H60.7622H60.8887H61.0154H61.1427H61.2693H61.3958H61.5225H61.6498H61.7763H61.9029H62.0296H62.157H62.2836H62.4101H62.5367H62.6641H62.7908H62.9172H63.0437H63.1704H63.2978H63.4244H63.551H63.6775H63.8049H63.9315H64.058H64.1846H64.2993H64.4259H64.5525H64.6792H64.8064H64.933H65.0595H65.1861H65.3135H65.44H65.5666H65.6933H65.8206H65.9473H66.0738V58.9073V59.0219V59.1492V59.2766V59.4038V59.5185V59.6459V59.7733V59.8878V60.0152V60.1424V60.2572V60.3845V60.5117V60.6391V60.7538V60.8812H65.9473H65.8206H65.6933H65.5666H65.44H65.3135H65.1989H65.0723H64.9458H64.8191H64.6918H64.5652H64.4385H64.312H64.1846H64.058H63.9315H63.8049H63.6775H63.5637H63.437H63.3105H63.1831H63.0567H62.93H62.8034H62.676H62.5494H62.4229H62.2963H62.1689H62.0422H61.9285H61.8019H61.6746H61.5479H61.4214H61.2947H61.1674V61.0084V61.1357V61.263V61.3904V61.5178V61.6324V61.7597V61.8871V62.0143V62.1417V62.269V62.3964H61.2947H61.4214H61.5479H61.6746H61.8019H61.9285H62.055H62.1817H62.2963H62.4229H62.5494H62.676H62.8034H62.93H63.0567H63.1831H63.3105H63.437H63.5637H63.6903H63.8176H63.9441H64.0708H64.1975H64.3248H64.4513H64.5652H64.6918H64.8191H64.9458H65.0723H65.1989H65.3261H65.4528H65.5794V62.5237V62.6383V62.765V62.8923V63.0069V63.1342V63.2616V63.3762V63.5036V63.6309V63.7583V63.8728V64V64.1274V64.2422V64.3695H65.4528H65.3261H65.1989H65.0723H64.9458H64.8191H64.6918H64.5652H64.4513H64.3248H64.1975H64.0708H63.9441H63.8176H63.6903H63.5637H63.437H63.3105H63.1831H63.0567H62.93H62.8034H62.676H62.5494H62.4229H62.2963H62.1817H62.055H61.9285H61.8019H61.6746H61.5479H61.4214H61.2947H61.1674V64.4967V64.6369V64.7642V64.8916V65.0316V65.159V65.2863V65.4264V65.5536V65.681V65.8211V65.9483H61.2947H61.4214H61.5479H61.6746H61.8019H61.9285H62.055H62.1817H62.309H62.4483H62.5749H62.7014H62.8288H62.9555H63.0821H63.2086H63.3359H63.4626H63.5892H63.7157H63.8423H63.9697H64.0962H64.2229H64.3493H64.4769H64.6034H64.73H64.8566H64.9966H65.1233H65.2497H65.3764H65.5038H65.6304H65.7569H65.8835H66.0107H66.1374V66.0758V66.1904V66.3178V66.4451V66.5725V66.6871V66.8143V66.9416V67.0564V67.1836V67.3109V67.4257V67.5522V67.6795V67.8068V67.9215V68.0489H66.0107ZM56.7479 68.0489H56.6214H56.4947H56.3548H56.2282H56.1015H55.975H55.8476H55.721H55.5817H55.4551H55.3284H55.2012H55.0746H54.948H54.8087H54.6813H54.5547H54.428V67.9215V67.7941V67.6669V67.5394V67.4113V67.2841V67.1567V67.0292V66.902V66.7747V66.6473V66.5193V66.3919V66.2645V66.1373V66.0098V65.8817V65.7543V65.6271V65.4998V65.3724V65.2451V65.117V64.9897V64.8623V64.7349V64.6077V64.4802V64.3521V64.2247V64.0975V63.9702V63.8429V63.7155V63.5874V63.4601V63.3327V63.2055V63.0781V62.9499V62.8227V62.6953V62.5679L54.3646 62.6697L54.2888 62.7852L54.2251 62.887L54.1495 62.989L54.0859 63.1035L54.0093 63.2055L53.9465 63.3073L53.8828 63.4226L53.8072 63.5245L53.7434 63.6263L53.6671 63.7283L53.6042 63.8436L53.5278 63.9455L53.4649 64.0473L53.4011 64.1619L53.3247 64.2645L53.2618 64.3665L53.1854 64.481L53.1226 64.5829L53.0462 64.6848L52.9832 64.8001L52.9195 64.9021L52.8432 65.0039L52.7803 65.1186L52.7039 65.2211L52.6409 65.323L52.5645 65.4249L52.5007 65.5394L52.4378 65.642L52.3615 65.744L52.2986 65.8586L52.2222 65.9604L52.1586 66.0623L52.0829 66.1777L52.0192 66.2796H51.969L51.8927 66.165L51.8289 66.0623L51.7532 65.9476L51.6896 65.8458L51.6139 65.7313L51.5502 65.6286L51.4747 65.514L51.4109 65.412L51.3345 65.2975L51.2715 65.1957L51.1951 65.0802L51.1324 64.9784L51.0559 64.8637L50.9922 64.7619L50.9166 64.6466L50.8528 64.5447L50.7773 64.4301L50.7008 64.3283L50.6372 64.2129L50.5615 64.1111L50.4979 63.9965L50.4222 63.8946L50.3585 63.7792L50.2828 63.6773L50.2192 63.5627L50.1428 63.4608L50.0799 63.3462L50.0034 63.2435L49.9405 63.129L49.8641 63.0271L49.8005 62.9124L49.7249 62.8107L49.661 62.6953L49.5854 62.5934V62.7207V62.8481V62.9755V63.1035V63.2309V63.3582V63.4856V63.613V63.7409V63.8684V63.983V64.1102V64.2376V64.3649V64.493V64.6204V64.7477V64.875V65.0024V65.1298V65.2578V65.3852V65.5126V65.6398V65.7672V65.8945V66.0226V66.1499V66.2773V66.4046V66.532V66.66V66.7747V66.902V67.0292V67.1567V67.2841V67.4113V67.5394V67.6669V67.7941V67.9215V68.0489H49.4589H49.3316H49.2049H49.0784H48.9518H48.8245H48.6978H48.5713H48.4446H48.3173H48.1908H48.0641H47.9375H47.8102H47.6837H47.557H47.4303H47.303H47.1765V67.9215V67.7941V67.6669V67.5402V67.4128V67.2855V67.1582V67.031V66.9035V66.7761V66.6489V66.5215V66.3941V66.2668V66.1394V66.0121V65.8849V65.7574V65.6428V65.5154V65.3882V65.2609V65.1335V65.0061V64.8788V64.7514V64.624V64.4967V64.3695V64.2422V64.1148V63.9874V63.8601V63.7327V63.6053V63.478V63.3506V63.2234V63.0961V62.9687V62.8414V62.7147V62.5875V62.4601V62.3326V62.2054V62.0781V61.9507V61.8234V61.696V61.5686V61.4414V61.314V61.1867V61.0721V60.9448V60.8174V60.69V60.5627V60.4353V60.308V60.1806V60.0534V59.926V59.7987V59.6713V59.5439V59.4166V59.2894V59.1619V59.0347V58.9073V58.7799H47.303H47.4303H47.5444H47.6708H47.7975H47.9247H48.0386H48.1652H48.2926H48.4192H48.5331H48.6596H48.787H48.9136H49.0274H49.1539H49.2813H49.408H49.5218H49.6483H49.7758L49.8387 58.8818L49.9023 58.9963L49.9779 59.0975L50.0417 59.2121L50.1053 59.3139L50.1682 59.4287L50.2318 59.5297L50.3077 59.6444L50.3712 59.7463L50.435 59.8481L50.4979 59.9619L50.5615 60.0639L50.6372 60.1784L50.7008 60.2803L50.7645 60.3941L50.8274 60.496L50.9038 60.5978L50.9676 60.7119L51.0304 60.8136L51.094 60.9282L51.1571 61.0302L51.2335 61.1439L51.2971 61.2459L51.3599 61.3604L51.4237 61.4615L51.4866 61.5634L51.563 61.678L51.6266 61.78L51.6896 61.8946L51.7532 61.9957L51.8161 62.1104L51.8927 62.2122L51.9563 62.326L52.0192 62.4279L52.0829 62.326L52.1465 62.2122L52.2222 62.1104L52.2857 61.9957L52.3488 61.8946L52.4124 61.78L52.4881 61.678L52.5517 61.5634L52.6155 61.4615L52.6783 61.3604L52.7547 61.2459L52.8176 61.1439L52.8814 61.0302L52.9449 60.9282L53.0206 60.8136L53.0842 60.7119L53.148 60.5978L53.2108 60.496L53.2747 60.3941L53.3503 60.2803L53.4139 60.1784L53.4775 60.0639L53.5406 59.9619L53.6169 59.8481L53.6799 59.7463L53.7434 59.6444L53.8072 59.5297L53.8828 59.4287L53.9465 59.3139L54.0093 59.2121L54.0731 59.0975L54.1495 58.9963L54.2124 58.8818L54.2761 58.7799H54.4026H54.5293H54.6438H54.7705H54.897H55.0236H55.1382H55.2649H55.3913H55.518H55.6327H55.7592H55.8858H56.0125H56.127H56.2536H56.3802H56.5068H56.6214H56.7479H56.8745V58.9073V59.0347V59.1619V59.2894V59.4166V59.5439V59.6713V59.7987V59.926V60.0534V60.1806V60.308V60.4353V60.5627V60.69V60.8174V60.9448V61.0721V61.1867V61.314V61.4414V61.5686V61.696V61.8234V61.9507V62.0781V62.2054V62.3326V62.4601V62.5875V62.7147V62.8414V62.9687V63.0961V63.2234V63.3506V63.478V63.6053V63.7327V63.8601V63.9874V64.1148V64.2422V64.3695V64.4967V64.624V64.7514V64.8788V65.0061V65.1335V65.2609V65.3882V65.5154V65.6428V65.7574V65.8849V66.0121V66.1394V66.2668V66.3941V66.5215V66.6489V66.7761V66.9035V67.031V67.1582V67.2855V67.4128V67.5402V67.6669V67.7941V67.9215V68.0489H56.7479ZM42.0387 64.2294L42.0005 64.1141L41.9504 63.9867L41.8994 63.872L41.8612 63.7567L41.811 63.6421L41.7602 63.5147L41.7218 63.3993L41.6708 63.2847L41.6208 63.1702L41.5825 63.0549L41.5315 62.9275L41.4941 62.8129L41.4431 62.6975L41.3922 62.5829L41.3541 62.4683L41.3038 62.3403L41.253 62.2255L41.2147 62.1111L41.1638 61.9957L41.1136 61.8683L41.0754 61.753L41.0244 61.6384L40.9743 61.753L40.9362 61.8683L40.8852 61.9957L40.8342 62.1111L40.7967 62.2255L40.7459 62.3403L40.6949 62.4683L40.6448 62.5829L40.6064 62.6975L40.5556 62.8129L40.5046 62.9275L40.4671 63.0549L40.4162 63.1702L40.3652 63.2847L40.3272 63.3993L40.2769 63.5147L40.2259 63.6421L40.175 63.7567L40.1377 63.872L40.0867 63.9867L40.0357 64.1141L39.9975 64.2294L39.9473 64.344H40.0739H40.2005H40.3272H40.4544H40.581H40.7075H40.8342H40.9616H41.0754H41.202H41.3294H41.4559H41.5825H41.7092H41.8357H41.963H42.0896L42.0387 64.2294ZM46.02 68.0489H45.8927H45.7787H45.6523H45.5249H45.3983H45.2716H45.1578H45.0304H44.9039H44.7773H44.6506H44.5234H44.4095H44.2829H44.1562H44.0289H43.9024H43.7885H43.6619H43.5346L43.4844 67.9342L43.4462 67.8195L43.3953 67.7049L43.3443 67.5777L43.3068 67.4637L43.256 67.3493L43.205 67.2346L43.1675 67.12L43.1166 67.0054L43.0656 66.8908L43.0276 66.7761L42.9773 66.6489L42.9263 66.5343L42.8881 66.4196L42.8371 66.305H42.7105H42.584H42.4574H42.3309H42.2163H42.0896H41.963H41.8357H41.7092H41.5825H41.4559H41.3294H41.202H41.0754H40.9616H40.8342H40.7075H40.581H40.4544H40.3272H40.2005H40.0739H39.9473H39.8208H39.706H39.5796H39.4529H39.3255H39.199L39.1488 66.4196L39.1106 66.5343L39.0596 66.6489L39.0088 66.7761L38.9713 66.8908L38.9204 67.0054L38.8694 67.12L38.8312 67.2346L38.7811 67.3493L38.7301 67.4637L38.6919 67.5777L38.6416 67.7049L38.5908 67.8195L38.5525 67.9342L38.5016 68.0489H38.375H38.2484H38.1219H37.9945H37.8679H37.7286H37.602H37.4753H37.3481H37.2215H37.095H36.9683H36.8409H36.7144H36.5879H36.4485H36.3211H36.1946H36.0679H35.9413L35.9915 67.9342L36.0425 67.8195L36.0933 67.7049L36.1436 67.5777L36.1818 67.4637L36.2328 67.3493L36.2836 67.2346L36.3338 67.12L36.3848 67.0054L36.4358 66.878L36.4859 66.7634L36.5369 66.6489L36.575 66.5343L36.626 66.4196L36.6761 66.305L36.7271 66.1777L36.7779 66.0631L36.8282 65.9483L36.8792 65.8339L36.9301 65.7192L36.9683 65.6046L37.0184 65.4772L37.0694 65.3627L37.1204 65.2481L37.1705 65.1335L37.2215 65.0189L37.2725 64.9042L37.3226 64.7768L37.3609 64.6623L37.4118 64.5477L37.4627 64.4331L37.513 64.3185L37.5638 64.2038L37.6147 64.0766L37.665 63.962L37.7158 63.8473L37.754 63.7327L37.805 63.6182L37.8551 63.5036L37.9061 63.3762L37.9571 63.2616L38.0073 63.1469L38.0581 63.0323L38.1091 62.9178L38.1473 62.8031L38.1976 62.6893L38.2484 62.5619L38.2993 62.4474L38.3496 62.3326L38.4004 62.218L38.4514 62.1035L38.5016 61.9889L38.5398 61.8615L38.5908 61.747L38.6416 61.6324L38.6919 61.5178L38.7429 61.4032L38.7937 61.2885L38.844 61.1611L38.8949 61.0466L38.9331 60.932L38.9839 60.8174L39.0342 60.7028L39.085 60.5881L39.136 60.4609L39.1862 60.3463L39.2372 60.2316L39.2882 60.117L39.3255 60.0025L39.3765 59.8878L39.4275 59.7605L39.4785 59.6459L39.5286 59.5312L39.5796 59.4166L39.6305 59.302L39.6806 59.1875L39.719 59.0601L39.7698 58.9455L39.8208 58.8309L39.8709 58.7162H39.9975H40.1121H40.2387H40.3652H40.4926H40.6064H40.733H40.8597H40.9871H41.101H41.2274H41.3541H41.4814H41.5953H41.7218H41.8484H41.9758H42.0896H42.2163L42.2671 58.8309L42.3181 58.9455L42.3684 59.0601L42.4192 59.1875L42.4574 59.302L42.5076 59.4166L42.5586 59.5312L42.6094 59.6459L42.6604 59.7605L42.7105 59.8878L42.7615 60.0025L42.8125 60.117L42.8499 60.2316L42.9009 60.3463L42.9519 60.4609L43.0029 60.5881L43.053 60.7028L43.1038 60.8174L43.1548 60.932L43.205 61.0466L43.2432 61.1611L43.294 61.2885L43.3443 61.4032L43.3953 61.5178L43.4462 61.6324L43.4971 61.747L43.5473 61.8615L43.5981 61.9889L43.6365 62.1035L43.6866 62.218L43.7375 62.3326L43.7885 62.4474L43.8395 62.5619L43.8896 62.6893L43.9406 62.8031L43.9914 62.9178L44.0289 63.0323L44.0798 63.1469L44.1308 63.2616L44.1811 63.3762L44.2319 63.5036L44.2829 63.6182L44.3339 63.7327L44.384 63.8473L44.4222 63.962L44.4731 64.0766L44.5234 64.2038L44.5742 64.3185L44.6252 64.4331L44.6761 64.5477L44.7263 64.6623L44.7773 64.7768L44.8154 64.9042L44.8657 65.0189L44.9165 65.1335L44.9675 65.2481L45.0177 65.3627L45.0686 65.4772L45.1196 65.6046L45.1706 65.7192L45.208 65.8339L45.259 65.9483L45.31 66.0631L45.3601 66.1777L45.411 66.305L45.4619 66.4196L45.5128 66.5343L45.5629 66.6489L45.6013 66.7634L45.6523 66.878L45.7024 67.0054L45.7533 67.12L45.8041 67.2346L45.8544 67.3493L45.9052 67.4637L45.9562 67.5777L45.9946 67.7049L46.0446 67.8195L46.0956 67.9342L46.1464 68.0489H46.02ZM34.9137 66.8652L34.8119 66.9416L34.7234 67.0054L34.6215 67.0818L34.5204 67.1454L34.4193 67.2219L34.3174 67.2855L34.2163 67.3493L34.1017 67.4128L33.9878 67.4765L33.8738 67.5402L33.7594 67.5903L33.6454 67.6541L33.5189 67.7049L33.4051 67.7559L33.2777 67.8068L33.1639 67.8578L33.0499 67.896L32.9354 67.9342L32.8215 67.9725L32.6949 68.0106L32.5812 68.0489L32.4538 68.0744L32.3398 68.0998L32.2133 68.1252L32.086 68.1506L31.9593 68.1634L31.82 68.1762L31.6934 68.189L31.5541 68.2016L31.4267 68.2144L31.2875 68.2271H31.1481H31.0087H30.8695H30.7421L30.6155 68.2144L30.4762 68.2016L30.3496 68.189L30.2231 68.1762L30.0957 68.1634L29.9691 68.138L29.8424 68.1124L29.7286 68.087L29.6014 68.0616L29.4874 68.0234L29.3609 67.9979L29.2463 67.9596L29.1324 67.9087L29.0184 67.8705L28.892 67.8195L28.7774 67.7687L28.6635 67.7178L28.5497 67.6669L28.435 67.6032L28.334 67.5402L28.22 67.4765L28.1182 67.4128L28.0171 67.3493L27.9152 67.2727L27.8141 67.1964L27.7128 67.12L27.6238 67.0436L27.5354 66.9672L27.4462 66.878L27.3579 66.8017L27.2687 66.7125L27.1803 66.6233L27.1039 66.5343L27.0282 66.4324L26.9518 66.3432L26.8882 66.2414L26.8125 66.1394L26.749 66.0377L26.6859 65.9357L26.6223 65.8211L26.5586 65.7192L26.5085 65.6046L26.4575 65.49L26.4067 65.3754L26.3564 65.2609L26.3182 65.159L26.2672 65.0443L26.2418 64.9297L26.2043 64.8152L26.1788 64.6879L26.1406 64.5731L26.1152 64.4459L26.1024 64.3313L26.0769 64.2038L26.0644 64.0894L26.0514 63.962L26.0395 63.8345L26.0269 63.7073V63.5672V63.4398V63.4144V63.287L26.0395 63.1469V63.0197L26.0514 62.8923L26.0644 62.7522L26.0898 62.6257L26.1024 62.4983L26.1278 62.3836L26.166 62.2564L26.1916 62.129L26.229 62.0143L26.2672 61.8871L26.3054 61.7724L26.3564 61.645L26.4067 61.5306L26.4575 61.4159L26.5085 61.3013L26.5586 61.1867L26.6223 61.0721L26.6859 60.9702L26.749 60.8682L26.8125 60.7664L26.8762 60.6646L26.9518 60.5627L27.0282 60.4609L27.1039 60.359L27.1803 60.2697L27.2687 60.1806L27.3451 60.0914L27.4336 60.0025L27.5226 59.9132L27.611 59.8369L27.7128 59.7477L27.8013 59.6713L27.9025 59.5949L28.0043 59.5312L28.1054 59.4548L28.2074 59.3912L28.3084 59.3276L28.4223 59.2638L28.5369 59.2002L28.6507 59.1365L28.7646 59.0855L28.8791 59.0347L29.0058 58.9709L29.1069 58.9328L29.2335 58.8945L29.3482 58.8436L29.462 58.8181L29.5758 58.7799L29.7031 58.7544L29.817 58.7162L29.9435 58.6908L30.0702 58.678L30.1975 58.6526L30.3242 58.6398L30.4506 58.6272L30.5773 58.6144L30.7047 58.6016H30.844H30.9706H31.1098H31.2491L31.3893 58.6144L31.5287 58.6272H31.6552L31.7818 58.6398L31.9211 58.6654L32.0357 58.678L32.1623 58.7036L32.289 58.729L32.4035 58.7544L32.5172 58.7799L32.6313 58.8054L32.7459 58.8436L32.8597 58.8691L32.9608 58.9073L33.0755 58.9455L33.1894 58.9963L33.3031 59.0473L33.4178 59.0983L33.5317 59.1619L33.6454 59.2129L33.7474 59.2766L33.8612 59.3402L33.9623 59.4038L34.077 59.4676L34.1781 59.5439L34.2792 59.6077L34.3811 59.6841L34.4822 59.7605L34.584 59.8495L34.6852 59.926L34.6087 60.0279L34.5204 60.117L34.444 60.2188L34.3556 60.3207L34.2792 60.4227L34.2035 60.5117L34.1143 60.6136L34.0387 60.7154L33.9623 60.8047L33.8738 60.9066L33.7976 61.0084L33.7091 61.1103L33.6327 61.1995L33.5571 61.3013L33.468 61.4032L33.3922 61.505L33.3031 61.5942L33.2274 61.696L33.1256 61.6196L33.0245 61.5306L32.9226 61.4668L32.8215 61.3904L32.7204 61.3267L32.6185 61.263L32.5172 61.1995L32.4035 61.1357L32.3016 61.0848L32.2005 61.0339L32.0987 60.9956L31.9847 60.9574L31.871 60.9192L31.7563 60.8938L31.6298 60.8682L31.5032 60.8428L31.3765 60.8302L31.2372 60.8174L31.0972 60.8047H30.9578H30.8313L30.7047 60.8174L30.5901 60.8302L30.4635 60.8556L30.3496 60.8812L30.235 60.9192L30.1212 60.9574L30.0073 61.0084L29.8934 61.0593L29.7915 61.1229L29.6906 61.1867L29.5886 61.2505L29.5002 61.3267L29.411 61.4032L29.3227 61.4796L29.2463 61.5686L29.1579 61.6578L29.0815 61.7597L29.0184 61.8489L28.9548 61.9507L28.892 62.0653L28.8283 62.1672L28.7774 62.2818L28.7392 62.3964L28.6889 62.511L28.6507 62.6383L28.6253 62.765L28.5999 62.8795L28.5743 63.0197L28.5616 63.1469L28.5497 63.2742V63.4144V63.4398V63.5672L28.5616 63.6945L28.5743 63.8091L28.5871 63.9365L28.6125 64.051L28.6381 64.1658L28.6635 64.2803L28.7017 64.3949L28.7392 64.4967L28.7902 64.624L28.841 64.7388L28.904 64.8534L28.9676 64.9552L29.0312 65.0571L29.1069 65.159L29.1833 65.2481L29.2717 65.3373L29.3482 65.4264L29.4365 65.5028L29.5384 65.5792L29.6396 65.6556L29.7406 65.7192L29.8424 65.7829L29.9565 65.8339L30.0702 65.8849L30.1847 65.9357L30.3114 65.9739L30.438 66.0121L30.5654 66.0377L30.6919 66.0631L30.8185 66.0758L30.9578 66.0885H31.0972H31.2491L31.3893 66.0758L31.5287 66.0631L31.6552 66.0503L31.7818 66.0248L31.9092 65.9993L32.0357 65.9613L32.1495 65.9357L32.2636 65.8849L32.3654 65.8339L32.4792 65.7829L32.5682 65.732L32.6695 65.6682V65.541V65.4137V65.2863V65.159V65.0189V64.8916V64.7642V64.6369V64.5095H32.5428H32.4283H32.3016H32.1751H32.0485H31.9339H31.8072H31.6806H31.5541H31.4396H31.3129H31.1864H31.0597H30.9452H30.8185V64.3822V64.2676V64.1402V64.0129V63.8855V63.7709V63.6436V63.5162V63.389V63.2742V63.1469V63.0197V62.8923V62.7776V62.6511H30.9452H31.0724H31.1991H31.3256H31.4522H31.5788H31.7062H31.8328H31.9593H32.086H32.2133H32.3398H32.4664H32.593H32.7204H32.8471H32.9736H33.1002H33.2274H33.3541H33.4807H33.6072H33.7345H33.8612H33.9878H34.1143H34.2417H34.3683H34.495H34.6215H34.7488H34.8753H35.002V62.7776V62.9049V63.0323V63.1469V63.2742V63.4016V63.5289V63.6563V63.7837V63.8982V64.0256V64.153V64.2803V64.4077V64.5349V64.6623V64.7768V64.9042V65.0316V65.159V65.2863V65.4137V65.541V65.6556V65.7829V65.9103V66.0377V66.165V66.2922V66.407V66.5343V66.6615V66.7889L34.9137 66.8652ZM36.3311 37.8078H30.8367V47.0541H36.6368V51.3043H26.1709V20.6312H36.5498V24.8813H30.8367V33.5578H36.3311V37.8078ZM70.1916 38.7284V45.6519C70.1916 46.8789 69.6244 47.4482 68.4476 47.4482H67.575C66.3542 47.4482 65.787 46.8789 65.787 45.6519V26.2834C65.787 25.0565 66.3542 24.4872 67.575 24.4872H68.36C69.5375 24.4872 70.1046 25.0565 70.1046 26.2834V32.2872H74.6829V26.0205C74.6829 22.2086 72.8514 20.3681 69.0583 20.3681H66.7901C62.9968 20.3681 61.1211 22.2521 61.1211 26.0646V45.8706C61.1211 49.6833 62.9968 51.5671 66.7901 51.5671H69.1016C72.8957 51.5671 74.7704 49.6833 74.7704 45.8706V38.7284H70.1916ZM58.6553 51.3043H53.9888V20.6311H58.6553V51.3043ZM47.2179 34.2587C47.2179 35.4858 46.6516 36.0558 45.4742 36.0558H43.5551V24.7502H45.4742C46.6516 24.7502 47.2179 25.3196 47.2179 26.5464V34.2587ZM46.215 20.6311H38.8892V51.3043H43.5551V40.174H46.215C50.009 40.174 51.8839 38.2902 51.8839 34.4783V26.3276C51.8839 22.5151 50.009 20.6311 46.215 20.6311ZM63.8889 79.039H37.1782L50.2553 83.535L63.8889 79.039Z" fill="white"/>
</g>
<defs>
<clipPath id="clip0">
<rect width="68.9413" height="80" fill="white" transform="translate(16 10)"/>
</clipPath>
</defs>
</svg>
