<svg xmlns="http://www.w3.org/2000/svg" viewBox="0 0 146.91 59.53">
  <g id="Layer_2" data-name="Layer 2">
    <g id="Layer_1-2" data-name="Layer 1">
      <g>
        <polygon points="39.69 0 39.11 0 0.58 0 0 0 0 0.64 0 58.89 0 59.53 0.58 59.53 39.11 59.53 39.69 59.53 39.69 58.89 39.69 0.64 39.69 0 39.69 0" style="fill: #fff"/>
        <g>
          <path d="M39.11.64V58.89H.58V.64H39.11" style="fill: #231f20"/>
          <rect x="2.52" y="2.71" width="34.38" height="9.66" style="fill: #fff"/>
          <rect x="2.5" y="14.47" width="34.4" height="35.51" style="fill: #fff"/>
          <g>
            <polygon points="2.51 56.79 2.51 52.08 9.41 52.08 9.41 53.18 5.28 53.18 5.28 53.85 8.78 53.85 8.78 54.95 5.28 54.95 5.28 55.69 9.57 55.69 9.57 56.79 2.51 56.79" style="fill: #fff"/>
            <path d="M15.44,53.45a.52.52,0,0,0-.4-.32,2.53,2.53,0,0,0-.72-.09c-.61,0-.88.1-.88.28,0,.69,4.87.26,4.87,2,0,1.09-1.64,1.63-4,1.63s-3.7-.73-3.75-1.58h2.65a.69.69,0,0,0,.46.37,2.52,2.52,0,0,0,.79.12c.7,0,1.16-.12,1.16-.35,0-.71-4.88-.22-4.88-2,0-1,1.56-1.5,3.67-1.5,2.35,0,3.42.66,3.63,1.49Z" style="fill: #fff"/>
            <path d="M22.46,54.12h1.09c.86,0,1.32-.12,1.32-.45s-.47-.49-1.11-.49h-1.3Zm0,1v1.64H19.69V52.08h4c2.82,0,3.75.43,3.75,1.34,0,.55-.44,1-1.43,1.16.9.18,1.44.29,1.44,1.24,0,.61,0,.83.29.83v.14H24.93a1.83,1.83,0,0,1-.14-.82c0-.62-.19-.82-1.48-.82Z" style="fill: #fff"/>
            <path d="M31.91,53.18V54h1.16c.55,0,1-.14,1-.41s-.54-.38-1.13-.38Zm0,1.64v.87h1.21c.69,0,1.21-.08,1.21-.43s-.65-.44-1.53-.44Zm-2.77,2V52.08h4c1.9,0,3.42.25,3.42,1.18,0,.49-.57.84-1.1,1,.91.13,1.4.57,1.4,1.08,0,1.05-1.44,1.42-3.64,1.42Z" style="fill: #fff"/>
          </g>
          <g>
            <path d="M21,36.29c-.57-2.13-1.71-3.37-3.33-3.81,1-1.18,1.58-3,.81-5.87-1.09-4-3.85-5.95-7.2-5.06l-7.62,2-.15,0L9.79,47l5.1-1.36-2.43-9,.24-.07a2.37,2.37,0,0,1,1.73,0c.68.39,1,1.56,1.35,2.91l.28,1.07a10.1,10.1,0,0,0,1.56,3.79l.35.45,5.83-1.54-.79-1A33.93,33.93,0,0,1,21,36.29Zm-8.34-4.18-1.3.35c-.38-1.41-1.25-4.65-1.63-6.05l1.3-.35c.61-.16,1.65-.43,2.4,2.36C13.54,29,14.2,31.69,12.63,32.11Z" style="fill: #231f20"/>
            <path d="M27.36,17.67l-6.87,1.82-.82.22L26,43.07l5.21-1.39s-2-7.5-2.4-8.84L31,32.25c4.06-1.09,5.61-4.24,4.36-8.88C33.77,17.33,30.13,16.94,27.36,17.67ZM29.48,28l-1.85.5L26,22.48l1.58-.42c.9-.24,1.92-.24,2.74,2.77C30.71,26.26,30.3,27.82,29.48,28Z" style="fill: #231f20"/>
          </g>
          <g>
            <path d="M4.15,10.28H3.47V4.8H4.74a.63.63,0,0,1,.56.36,2.36,2.36,0,0,1,.2,1.08,2.29,2.29,0,0,1-.14.88.66.66,0,0,1-.47.46h0l.16,0a.49.49,0,0,1,.2.14,1,1,0,0,1,.17.31,2.18,2.18,0,0,1,.07.58V9c0,.15,0,.32,0,.48s0,.33,0,.47a1.23,1.23,0,0,0,0,.29H4.89a2.84,2.84,0,0,1-.07-.52v-1a1.48,1.48,0,0,0-.05-.39.55.55,0,0,0-.14-.26.45.45,0,0,0-.3-.1H4.15Zm0-3.11h.31a.23.23,0,0,0,.17-.08.68.68,0,0,0,.11-.19,2,2,0,0,0,0-.26c0-.1,0-.19,0-.28a1.07,1.07,0,0,0-.1-.55.28.28,0,0,0-.25-.17H4.15Z" style="fill: #231f20"/>
            <path d="M5.76,10.28l.9-5.48h.91l.89,5.48H7.74L7.55,9.07H6.62l-.19,1.21ZM7.08,5.86h0L6.75,8.23h.66Z" style="fill: #231f20"/>
            <path d="M10.46,4.8v.91H9.7v4.57H9V5.71H8.25V4.8Z" style="fill: #231f20"/>
            <path d="M10.78,10.28V4.8h.68v5.48Z" style="fill: #231f20"/>
            <path d="M12,10.28V4.8H13l.87,3.8h0V4.8h.64v5.48h-.9l-.9-4h0v4Z" style="fill: #231f20"/>
            <path d="M16.56,6.49c0-.13,0-.25,0-.37a1.17,1.17,0,0,0-.05-.3.44.44,0,0,0-.13-.21.29.29,0,0,0-.21-.08.28.28,0,0,0-.25.17,1.44,1.44,0,0,0-.13.44,6.12,6.12,0,0,0,0,.65c0,.25,0,.5,0,.77,0,.43,0,.78,0,1a3.5,3.5,0,0,0,.08.61A.6.6,0,0,0,16,9.5a.36.36,0,0,0,.24.08.47.47,0,0,0,.17,0l.17-.08V8.26h-.37V7.41h1.06v2.78l-.19.06-.25.06-.26,0-.23,0a1.35,1.35,0,0,1-.69-.16,1,1,0,0,1-.39-.5,3.7,3.7,0,0,1-.17-.89c0-.37,0-.81,0-1.33,0-.35,0-.69,0-1a3.77,3.77,0,0,1,.14-.89A1.41,1.41,0,0,1,15.54,5a1,1,0,0,1,1.11-.12,1,1,0,0,1,.34.34,1.62,1.62,0,0,1,.2.55,3.59,3.59,0,0,1,.06.77Z" style="fill: #231f20"/>
            <path d="M18.85,4.8h1.24a.75.75,0,0,1,.4.11.89.89,0,0,1,.27.33,1.87,1.87,0,0,1,.15.52,4.72,4.72,0,0,1,.05.68,5,5,0,0,1,0,.52,1.8,1.8,0,0,1-.13.52,1,1,0,0,1-.27.41.68.68,0,0,1-.48.16h-.51v2.23h-.69Zm.69,2.41h.38a.17.17,0,0,0,.14-.07A.64.64,0,0,0,20.17,7a1.37,1.37,0,0,0,.07-.24,1.23,1.23,0,0,0,0-.27c0-.11,0-.22,0-.32a.91.91,0,0,0-.06-.26.41.41,0,0,0-.12-.18.29.29,0,0,0-.19-.07h-.34Z" style="fill: #231f20"/>
            <path d="M21.37,10.28V4.8h1.79v.84h-1.1V7h1v.84h-1v1.6H23.2v.84Z" style="fill: #231f20"/>
            <path d="M23.64,10.28V4.8h.93l.87,3.8h0V4.8h.64v5.48h-.9l-.9-4h0v4Z" style="fill: #231f20"/>
            <path d="M26.68,4.8h1.14a.81.81,0,0,1,.55.18,1.11,1.11,0,0,1,.32.53,3.77,3.77,0,0,1,.16.86c0,.34,0,.72,0,1.14V8c0,.19,0,.39,0,.59a4.21,4.21,0,0,1-.09.62,1.66,1.66,0,0,1-.18.53,1.12,1.12,0,0,1-.32.39.83.83,0,0,1-.48.14H26.68Zm.69,4.64h.33a.33.33,0,0,0,.25-.1A.63.63,0,0,0,28.1,9a3.67,3.67,0,0,0,.08-.59c0-.24,0-.53,0-.88s0-.49,0-.72a3.45,3.45,0,0,0-.05-.6A1.21,1.21,0,0,0,28,5.8a.31.31,0,0,0-.28-.16h-.35Z" style="fill: #231f20"/>
            <path d="M29.44,10.28V4.8h.69v5.48Z" style="fill: #231f20"/>
            <path d="M30.71,10.28V4.8h.92l.87,3.8h0V4.8h.64v5.48h-.9l-.89-4h0v4Z" style="fill: #231f20"/>
            <path d="M35.23,6.49c0-.13,0-.25,0-.37a1.13,1.13,0,0,0-.06-.3A.53.53,0,0,0,35,5.61a.33.33,0,0,0-.22-.08.28.28,0,0,0-.25.17,1.46,1.46,0,0,0-.12.44,4.19,4.19,0,0,0-.05.65c0,.25,0,.5,0,.77,0,.43,0,.78,0,1a3.68,3.68,0,0,0,.07.61.6.6,0,0,0,.15.29.41.41,0,0,0,.24.08l.18,0,.16-.08V8.26h-.37V7.41h1.06v2.78l-.18.06-.25.06-.27,0-.23,0a1.34,1.34,0,0,1-.68-.16.91.91,0,0,1-.39-.5,2.93,2.93,0,0,1-.17-.89c0-.37,0-.81,0-1.33,0-.35,0-.69,0-1a4.37,4.37,0,0,1,.14-.89A1.51,1.51,0,0,1,34.2,5a.89.89,0,0,1,.66-.24.84.84,0,0,1,.45.12.92.92,0,0,1,.34.34,1.62,1.62,0,0,1,.21.55,3.64,3.64,0,0,1,0,.77Z" style="fill: #231f20"/>
          </g>
        </g>
      </g>
      <g>
        <path d="M49.58,15.39V8.23H51l1.7,5.07c.15.47.27.82.34,1.06.08-.27.21-.65.38-1.15l1.71-5h1.28v7.16h-.92v-6l-2.08,6h-.85l-2.07-6.1v6.1Z" style="fill: #fff"/>
        <path d="M61.21,14.75a3.38,3.38,0,0,1-.94.58,2.61,2.61,0,0,1-1,.17A1.9,1.9,0,0,1,58,15.08a1.46,1.46,0,0,1,.17-2.26,2,2,0,0,1,.63-.29,5.57,5.57,0,0,1,.79-.13,7.92,7.92,0,0,0,1.56-.31c0-.12,0-.19,0-.22a1,1,0,0,0-.25-.76,1.48,1.48,0,0,0-1-.3A1.52,1.52,0,0,0,59,11a1.32,1.32,0,0,0-.43.77l-.86-.12a2,2,0,0,1,.38-.89,1.65,1.65,0,0,1,.78-.52A3.26,3.26,0,0,1,60,10.08a2.93,2.93,0,0,1,1.08.16,1.34,1.34,0,0,1,.61.39,1.39,1.39,0,0,1,.28.6A5,5,0,0,1,62,12v1.17a11.54,11.54,0,0,0,.06,1.55,2.06,2.06,0,0,0,.22.63h-.92A1.83,1.83,0,0,1,61.21,14.75Zm-.08-2a6.83,6.83,0,0,1-1.43.34,3.64,3.64,0,0,0-.77.17.83.83,0,0,0-.35.29.73.73,0,0,0-.12.41.75.75,0,0,0,.27.59,1.14,1.14,0,0,0,.78.23,1.77,1.77,0,0,0,.9-.22A1.37,1.37,0,0,0,61,14a2,2,0,0,0,.14-.87Z" style="fill: #fff"/>
        <path d="M63.34,17.38l-.09-.82a2.05,2.05,0,0,0,.5.08,1,1,0,0,0,.47-.1.86.86,0,0,0,.29-.28,5.07,5.07,0,0,0,.27-.65s0-.12.07-.21l-2-5.2h.94l1.08,3c.14.38.27.78.38,1.2a12.33,12.33,0,0,1,.36-1.18l1.11-3h.88l-2,5.27a9.46,9.46,0,0,1-.49,1.18,1.75,1.75,0,0,1-.54.64,1.29,1.29,0,0,1-.72.2A1.84,1.84,0,0,1,63.34,17.38Z" style="fill: #fff"/>
        <path d="M74.55,13.49l.86.11a2.29,2.29,0,0,1-.72,1.4,2.16,2.16,0,0,1-1.44.5,2.23,2.23,0,0,1-1.71-.69,2.85,2.85,0,0,1-.65-2,3.71,3.71,0,0,1,.28-1.47A2,2,0,0,1,72,10.4a2.52,2.52,0,0,1,1.24-.32,2.19,2.19,0,0,1,1.38.43,1.94,1.94,0,0,1,.69,1.21l-.86.14a1.41,1.41,0,0,0-.43-.79,1.11,1.11,0,0,0-.75-.26,1.36,1.36,0,0,0-1.08.47,2.31,2.31,0,0,0-.41,1.51,2.34,2.34,0,0,0,.4,1.52,1.3,1.3,0,0,0,1,.47,1.24,1.24,0,0,0,.87-.32A1.6,1.6,0,0,0,74.55,13.49Z" style="fill: #fff"/>
        <path d="M75.84,12.79a2.64,2.64,0,0,1,.8-2.13,2.43,2.43,0,0,1,1.63-.58,2.34,2.34,0,0,1,1.74.7,2.65,2.65,0,0,1,.68,1.94,3.4,3.4,0,0,1-.3,1.57,2.16,2.16,0,0,1-.87.9,2.55,2.55,0,0,1-1.25.31,2.3,2.3,0,0,1-1.76-.7A2.76,2.76,0,0,1,75.84,12.79Zm.9,0a2.19,2.19,0,0,0,.43,1.49,1.38,1.38,0,0,0,1.1.5,1.4,1.4,0,0,0,1.09-.5,2.26,2.26,0,0,0,.43-1.52,2.13,2.13,0,0,0-.44-1.45,1.38,1.38,0,0,0-1.08-.5,1.4,1.4,0,0,0-1.1.49A2.21,2.21,0,0,0,76.74,12.79Z" style="fill: #fff"/>
        <path d="M81.72,15.39V10.2h.79v.74a1.89,1.89,0,0,1,1.66-.86,2.24,2.24,0,0,1,.86.17,1.37,1.37,0,0,1,.59.44,1.72,1.72,0,0,1,.27.65,5.4,5.4,0,0,1,0,.86v3.19h-.88V12.23a2.6,2.6,0,0,0-.1-.8.85.85,0,0,0-.37-.43,1.2,1.2,0,0,0-.61-.16,1.42,1.42,0,0,0-1,.36,1.77,1.77,0,0,0-.41,1.35v2.84Z" style="fill: #fff"/>
        <path d="M89.2,14.6l.13.78a3.37,3.37,0,0,1-.66.07,1.49,1.49,0,0,1-.74-.15.89.89,0,0,1-.38-.39,3.34,3.34,0,0,1-.1-1v-3H86.8V10.2h.65V8.92l.87-.53V10.2h.88v.68h-.88v3a1.49,1.49,0,0,0,.05.48.35.35,0,0,0,.15.17.61.61,0,0,0,.3.06Z" style="fill: #fff"/>
        <path d="M93.45,14.75a3.38,3.38,0,0,1-.94.58,2.61,2.61,0,0,1-1,.17,1.9,1.9,0,0,1-1.32-.42,1.46,1.46,0,0,1,.17-2.26,2,2,0,0,1,.64-.29,5.14,5.14,0,0,1,.78-.13,7.92,7.92,0,0,0,1.56-.31c0-.12,0-.19,0-.22a1,1,0,0,0-.25-.76,1.46,1.46,0,0,0-1-.3,1.54,1.54,0,0,0-.92.22,1.32,1.32,0,0,0-.43.77l-.86-.12a2.09,2.09,0,0,1,.38-.89,1.65,1.65,0,0,1,.78-.52,3.28,3.28,0,0,1,1.18-.19,3,3,0,0,1,1.08.16,1.4,1.4,0,0,1,.61.39,1.38,1.38,0,0,1,.27.6,5,5,0,0,1,0,.81v1.17a11.54,11.54,0,0,0,.06,1.55,2.06,2.06,0,0,0,.22.63h-.92A1.83,1.83,0,0,1,93.45,14.75Zm-.08-2a6.67,6.67,0,0,1-1.43.34,3.64,3.64,0,0,0-.77.17.75.75,0,0,0-.34.29.67.67,0,0,0-.13.41.75.75,0,0,0,.27.59,1.14,1.14,0,0,0,.78.23,1.77,1.77,0,0,0,.9-.22,1.31,1.31,0,0,0,.58-.61,2,2,0,0,0,.14-.87Z" style="fill: #fff"/>
        <path d="M95.63,9.24v-1h.88v1Zm0,6.15V10.2h.88v5.19Z" style="fill: #fff"/>
        <path d="M97.85,15.39V10.2h.79v.74a1.87,1.87,0,0,1,1.65-.86,2.2,2.2,0,0,1,.86.17,1.37,1.37,0,0,1,.59.44,1.72,1.72,0,0,1,.27.65,5.4,5.4,0,0,1,0,.86v3.19h-.88V12.23a2.32,2.32,0,0,0-.1-.8.88.88,0,0,0-.36-.43,1.24,1.24,0,0,0-.62-.16,1.44,1.44,0,0,0-1,.36,1.77,1.77,0,0,0-.4,1.35v2.84Z" style="fill: #fff"/>
        <path d="M109.57,13.49l.86.11a2.24,2.24,0,0,1-.72,1.4,2.15,2.15,0,0,1-1.43.5,2.23,2.23,0,0,1-1.71-.69,2.8,2.8,0,0,1-.65-2,3.54,3.54,0,0,1,.28-1.47,1.89,1.89,0,0,1,.84-.94,2.54,2.54,0,0,1,1.24-.32,2.17,2.17,0,0,1,1.38.43,1.94,1.94,0,0,1,.69,1.21l-.85.14a1.47,1.47,0,0,0-.43-.79,1.11,1.11,0,0,0-.75-.26,1.33,1.33,0,0,0-1.08.47,2.25,2.25,0,0,0-.42,1.51,2.34,2.34,0,0,0,.4,1.52,1.33,1.33,0,0,0,1,.47,1.24,1.24,0,0,0,.86-.32A1.55,1.55,0,0,0,109.57,13.49Z" style="fill: #fff"/>
        <path d="M110.86,12.79a2.67,2.67,0,0,1,.8-2.13,2.44,2.44,0,0,1,1.63-.58,2.36,2.36,0,0,1,1.75.7,2.7,2.7,0,0,1,.68,1.94,3.4,3.4,0,0,1-.3,1.57,2.12,2.12,0,0,1-.88.9,2.55,2.55,0,0,1-1.25.31,2.33,2.33,0,0,1-1.76-.7A2.76,2.76,0,0,1,110.86,12.79Zm.9,0a2.19,2.19,0,0,0,.44,1.49,1.36,1.36,0,0,0,1.09.5,1.39,1.39,0,0,0,1.09-.5,2.26,2.26,0,0,0,.43-1.52,2.13,2.13,0,0,0-.43-1.45,1.4,1.4,0,0,0-1.09-.5,1.38,1.38,0,0,0-1.09.49A2.21,2.21,0,0,0,111.76,12.79Z" style="fill: #fff"/>
        <path d="M116.75,15.39V10.2h.79v.74a1.87,1.87,0,0,1,1.65-.86,2.2,2.2,0,0,1,.86.17,1.37,1.37,0,0,1,.59.44,1.72,1.72,0,0,1,.27.65,4.41,4.41,0,0,1,0,.86v3.19h-.88V12.23a2.32,2.32,0,0,0-.1-.8.88.88,0,0,0-.36-.43,1.24,1.24,0,0,0-.62-.16,1.44,1.44,0,0,0-1,.36,1.77,1.77,0,0,0-.4,1.35v2.84Z" style="fill: #fff"/>
        <path d="M124.23,14.6l.13.78a3.39,3.39,0,0,1-.67.07,1.51,1.51,0,0,1-.74-.15.82.82,0,0,1-.37-.39,3.24,3.24,0,0,1-.11-1v-3h-.64V10.2h.64V8.92l.87-.53V10.2h.89v.68h-.89v3a1.49,1.49,0,0,0,0,.48.35.35,0,0,0,.15.17.61.61,0,0,0,.3.06Z" style="fill: #fff"/>
        <path d="M128.64,13.72l.91.11a2.22,2.22,0,0,1-.8,1.23,2.35,2.35,0,0,1-1.48.44,2.38,2.38,0,0,1-1.81-.7,2.75,2.75,0,0,1-.66-2,2.84,2.84,0,0,1,.67-2,2.26,2.26,0,0,1,1.75-.73,2.23,2.23,0,0,1,1.7.71,2.81,2.81,0,0,1,.66,2c0,.05,0,.13,0,.24H125.7a2.05,2.05,0,0,0,.49,1.31,1.44,1.44,0,0,0,1.08.45,1.36,1.36,0,0,0,.83-.25A1.8,1.8,0,0,0,128.64,13.72Zm-2.89-1.43h2.9a1.8,1.8,0,0,0-.33-1,1.35,1.35,0,0,0-1.09-.5,1.38,1.38,0,0,0-1,.4A1.58,1.58,0,0,0,125.75,12.29Z" style="fill: #fff"/>
        <path d="M130.65,15.39V10.2h.79v.74a1.87,1.87,0,0,1,1.65-.86,2.2,2.2,0,0,1,.86.17,1.31,1.31,0,0,1,.59.44,1.72,1.72,0,0,1,.27.65,4.41,4.41,0,0,1,.05.86v3.19H134V12.23a2.32,2.32,0,0,0-.1-.8.88.88,0,0,0-.36-.43,1.23,1.23,0,0,0-.61-.16,1.4,1.4,0,0,0-1,.36,1.73,1.73,0,0,0-.41,1.35v2.84Z" style="fill: #fff"/>
        <path d="M138.13,14.6l.13.78a3.39,3.39,0,0,1-.67.07,1.51,1.51,0,0,1-.74-.15.87.87,0,0,1-.37-.39,3.24,3.24,0,0,1-.11-1v-3h-.64V10.2h.64V8.92l.88-.53V10.2h.88v.68h-.88v3a1.6,1.6,0,0,0,0,.48.35.35,0,0,0,.15.17.61.61,0,0,0,.3.06Z" style="fill: #fff"/>
        <path d="M49.5,21.24v-1h.88v1Zm0,6.15V22.2h.88v5.19Z" style="fill: #fff"/>
        <path d="M51.71,27.39V22.2h.8v.74a1.87,1.87,0,0,1,1.65-.86,2.2,2.2,0,0,1,.86.17,1.37,1.37,0,0,1,.59.44,1.72,1.72,0,0,1,.27.65,5.4,5.4,0,0,1,0,.86v3.19h-.88V24.23a2.6,2.6,0,0,0-.1-.8.85.85,0,0,0-.37-.43,1.2,1.2,0,0,0-.61-.16,1.42,1.42,0,0,0-1,.36,1.77,1.77,0,0,0-.41,1.35v2.84Z" style="fill: #fff"/>
        <path d="M60.66,26.75a3.38,3.38,0,0,1-.94.58,2.57,2.57,0,0,1-1,.17,1.86,1.86,0,0,1-1.31-.42A1.34,1.34,0,0,1,57,26a1.48,1.48,0,0,1,.17-.7,1.39,1.39,0,0,1,.46-.5,1.82,1.82,0,0,1,.63-.29A5.14,5.14,0,0,1,59,24.4a8.23,8.23,0,0,0,1.57-.31v-.22a1,1,0,0,0-.25-.76,1.46,1.46,0,0,0-1-.3,1.49,1.49,0,0,0-.91.22,1.27,1.27,0,0,0-.44.77l-.86-.12a2.22,2.22,0,0,1,.38-.89,1.65,1.65,0,0,1,.78-.52,3.28,3.28,0,0,1,1.18-.19,3,3,0,0,1,1.08.16,1.4,1.4,0,0,1,.61.39,1.38,1.38,0,0,1,.27.6,5,5,0,0,1,0,.81v1.17a11.54,11.54,0,0,0,.06,1.55,2.06,2.06,0,0,0,.22.63h-.91A1.83,1.83,0,0,1,60.66,26.75Zm-.07-2a7,7,0,0,1-1.44.34,3.64,3.64,0,0,0-.77.17.75.75,0,0,0-.34.29.73.73,0,0,0-.12.41.74.74,0,0,0,.26.59,1.14,1.14,0,0,0,.78.23,1.77,1.77,0,0,0,.9-.22,1.31,1.31,0,0,0,.58-.61,2,2,0,0,0,.15-.87Z" style="fill: #fff"/>
        <path d="M62.84,29.37V22.2h.8v.67a2,2,0,0,1,.64-.59,1.76,1.76,0,0,1,.86-.2,2,2,0,0,1,1.94,1.31,3.7,3.7,0,0,1,0,2.8,2.18,2.18,0,0,1-2,1.31,1.7,1.7,0,0,1-.79-.18,1.89,1.89,0,0,1-.57-.47v2.52Zm.79-4.55A2.25,2.25,0,0,0,64,26.3a1.25,1.25,0,0,0,2,0,2.33,2.33,0,0,0,.42-1.53A2.32,2.32,0,0,0,66,23.26a1.2,1.2,0,0,0-2,0A2.33,2.33,0,0,0,63.63,24.82Z" style="fill: #fff"/>
        <path d="M68.4,29.37V22.2h.8v.67a2,2,0,0,1,.64-.59,1.79,1.79,0,0,1,.86-.2,2,2,0,0,1,1.94,1.31,3.77,3.77,0,0,1,0,2.8,2.16,2.16,0,0,1-.84,1,2.08,2.08,0,0,1-1.14.34,1.7,1.7,0,0,1-.79-.18,1.89,1.89,0,0,1-.57-.47v2.52Zm.79-4.55a2.25,2.25,0,0,0,.41,1.48,1.24,1.24,0,0,0,1,.48,1.23,1.23,0,0,0,1-.5A2.33,2.33,0,0,0,72,24.75a2.26,2.26,0,0,0-.41-1.49,1.24,1.24,0,0,0-1-.49,1.26,1.26,0,0,0-1,.53A2.33,2.33,0,0,0,69.19,24.82Z" style="fill: #fff"/>
        <path d="M74,27.39V22.2h.79V23a2.16,2.16,0,0,1,.56-.73,1,1,0,0,1,.56-.18,1.74,1.74,0,0,1,.91.29l-.3.81a1.25,1.25,0,0,0-.65-.19.9.9,0,0,0-.52.17.94.94,0,0,0-.32.49,3.31,3.31,0,0,0-.15,1v2.72Z" style="fill: #fff"/>
        <path d="M77,24.79a2.67,2.67,0,0,1,.8-2.13,2.44,2.44,0,0,1,1.63-.58,2.34,2.34,0,0,1,1.75.7,2.65,2.65,0,0,1,.68,1.94,3.4,3.4,0,0,1-.3,1.57,2.16,2.16,0,0,1-.87.9,2.58,2.58,0,0,1-1.26.31,2.33,2.33,0,0,1-1.76-.7A2.8,2.8,0,0,1,77,24.79Zm.91,0a2.19,2.19,0,0,0,.43,1.49,1.37,1.37,0,0,0,1.09.5,1.39,1.39,0,0,0,1.09-.5,2.26,2.26,0,0,0,.44-1.52,2.13,2.13,0,0,0-.44-1.45,1.45,1.45,0,0,0-2.18,0A2.21,2.21,0,0,0,77.87,24.79Z" style="fill: #fff"/>
        <path d="M82.85,29.37V22.2h.8v.67a2,2,0,0,1,.64-.59,1.8,1.8,0,0,1,.87-.2,2.11,2.11,0,0,1,1.17.34,2.06,2.06,0,0,1,.76,1,3.37,3.37,0,0,1,.26,1.36,3.52,3.52,0,0,1-.28,1.44,2.14,2.14,0,0,1-.83,1,2.11,2.11,0,0,1-1.15.34,1.73,1.73,0,0,1-.79-.18,1.89,1.89,0,0,1-.57-.47v2.52Zm.8-4.55a2.26,2.26,0,0,0,.4,1.48,1.26,1.26,0,0,0,2,0,2.33,2.33,0,0,0,.42-1.53,2.32,2.32,0,0,0-.41-1.49,1.25,1.25,0,0,0-1-.49,1.27,1.27,0,0,0-1,.53A2.33,2.33,0,0,0,83.65,24.82Z" style="fill: #fff"/>
        <path d="M88.4,27.39V22.2h.79V23a2.29,2.29,0,0,1,.56-.73,1,1,0,0,1,.57-.18,1.73,1.73,0,0,1,.9.29l-.3.81a1.25,1.25,0,0,0-.65-.19.85.85,0,0,0-.51.17.9.9,0,0,0-.33.49,3.31,3.31,0,0,0-.15,1v2.72Z" style="fill: #fff"/>
        <path d="M91.75,21.24v-1h.88v1Zm0,6.15V22.2h.88v5.19Z" style="fill: #fff"/>
        <path d="M97.35,26.75a3.38,3.38,0,0,1-.94.58,2.61,2.61,0,0,1-1,.17,1.86,1.86,0,0,1-1.31-.42A1.34,1.34,0,0,1,93.67,26a1.37,1.37,0,0,1,.17-.7,1.46,1.46,0,0,1,.45-.5,2,2,0,0,1,.64-.29,5.14,5.14,0,0,1,.78-.13,8.23,8.23,0,0,0,1.57-.31v-.22a1,1,0,0,0-.25-.76,1.46,1.46,0,0,0-1-.3,1.49,1.49,0,0,0-.91.22,1.27,1.27,0,0,0-.44.77l-.86-.12a2.22,2.22,0,0,1,.38-.89,1.65,1.65,0,0,1,.78-.52,3.28,3.28,0,0,1,1.18-.19,3,3,0,0,1,1.08.16,1.4,1.4,0,0,1,.61.39,1.38,1.38,0,0,1,.27.6,5,5,0,0,1,0,.81v1.17a11.54,11.54,0,0,0,.06,1.55,2.06,2.06,0,0,0,.22.63h-.92A1.83,1.83,0,0,1,97.35,26.75Zm-.07-2a7,7,0,0,1-1.44.34,3.64,3.64,0,0,0-.77.17.75.75,0,0,0-.34.29.74.74,0,0,0-.13.41.75.75,0,0,0,.27.59,1.14,1.14,0,0,0,.78.23,1.77,1.77,0,0,0,.9-.22,1.31,1.31,0,0,0,.58-.61,2,2,0,0,0,.15-.87Z" style="fill: #fff"/>
        <path d="M101.45,26.6l.12.78a3.37,3.37,0,0,1-.66.07,1.49,1.49,0,0,1-.74-.15.82.82,0,0,1-.37-.39,3,3,0,0,1-.11-1v-3H99V22.2h.65V20.92l.87-.53V22.2h.89v.68h-.89v3a1.49,1.49,0,0,0,0,.48.35.35,0,0,0,.15.17.61.61,0,0,0,.3.06Z" style="fill: #fff"/>
        <path d="M105.85,25.72l.91.11a2.21,2.21,0,0,1-.79,1.23,2.38,2.38,0,0,1-1.49.44,2.34,2.34,0,0,1-1.8-.7,2.71,2.71,0,0,1-.67-2,2.85,2.85,0,0,1,.68-2,2.25,2.25,0,0,1,1.74-.73,2.22,2.22,0,0,1,1.7.71,2.81,2.81,0,0,1,.66,2V25h-3.87a2,2,0,0,0,.48,1.31,1.45,1.45,0,0,0,1.09.45,1.33,1.33,0,0,0,.82-.25A1.65,1.65,0,0,0,105.85,25.72ZM103,24.29h2.89a1.72,1.72,0,0,0-.33-1,1.33,1.33,0,0,0-1.09-.5,1.37,1.37,0,0,0-1,.4A1.58,1.58,0,0,0,103,24.29Z" style="fill: #fff"/>
        <path d="M110.85,27.39V22.88h-.77V22.2h.77v-.55a2.45,2.45,0,0,1,.1-.78,1.08,1.08,0,0,1,.44-.55,1.66,1.66,0,0,1,.9-.21,4.12,4.12,0,0,1,.82.08L113,21a3.26,3.26,0,0,0-.52-.05.81.81,0,0,0-.57.17,1,1,0,0,0-.16.64v.48h1v.68h-1v4.51Z" style="fill: #fff"/>
        <path d="M113.1,24.79a2.64,2.64,0,0,1,.8-2.13,2.43,2.43,0,0,1,1.63-.58,2.37,2.37,0,0,1,1.75.7,2.69,2.69,0,0,1,.67,1.94,3.4,3.4,0,0,1-.3,1.57,2.16,2.16,0,0,1-.87.9,2.55,2.55,0,0,1-1.25.31,2.31,2.31,0,0,1-1.76-.7A2.76,2.76,0,0,1,113.1,24.79Zm.9,0a2.19,2.19,0,0,0,.43,1.49,1.38,1.38,0,0,0,1.1.5,1.4,1.4,0,0,0,1.09-.5,2.26,2.26,0,0,0,.43-1.52,2.08,2.08,0,0,0-.44-1.45,1.38,1.38,0,0,0-1.08-.5,1.4,1.4,0,0,0-1.1.49A2.21,2.21,0,0,0,114,24.79Z" style="fill: #fff"/>
        <path d="M119,27.39V22.2h.8V23a2.16,2.16,0,0,1,.55-.73,1,1,0,0,1,.57-.18,1.68,1.68,0,0,1,.9.29l-.3.81a1.25,1.25,0,0,0-.65-.19.85.85,0,0,0-.51.17,1,1,0,0,0-.33.49,3.31,3.31,0,0,0-.15,1v2.72Z" style="fill: #fff"/>
        <path d="M52.88,37.49l.86.11A2.29,2.29,0,0,1,53,39a2.16,2.16,0,0,1-1.44.5,2.23,2.23,0,0,1-1.71-.69,2.85,2.85,0,0,1-.65-2,3.71,3.71,0,0,1,.28-1.47,2,2,0,0,1,.85-.94,2.52,2.52,0,0,1,1.24-.32,2.19,2.19,0,0,1,1.38.43,1.94,1.94,0,0,1,.69,1.21l-.86.14a1.41,1.41,0,0,0-.43-.79,1.11,1.11,0,0,0-.75-.26,1.36,1.36,0,0,0-1.08.47,2.31,2.31,0,0,0-.41,1.51,2.34,2.34,0,0,0,.4,1.52,1.3,1.3,0,0,0,1,.47,1.24,1.24,0,0,0,.87-.32A1.6,1.6,0,0,0,52.88,37.49Z" style="fill: #fff"/>
        <path d="M54.49,39.39V32.23h.88V34.8a2,2,0,0,1,1.55-.72,2.15,2.15,0,0,1,1,.23,1.31,1.31,0,0,1,.6.63,2.71,2.71,0,0,1,.19,1.16v3.29h-.88V36.1a1.36,1.36,0,0,0-.29-1,1.06,1.06,0,0,0-.81-.3A1.46,1.46,0,0,0,56,35a1.18,1.18,0,0,0-.49.55,2.47,2.47,0,0,0-.15,1v2.84Z" style="fill: #fff"/>
        <path d="M60.06,33.24v-1h.88v1Zm0,6.15V34.2h.88v5.19Z" style="fill: #fff"/>
        <path d="M62.26,39.39V32.23h.88v7.16Z" style="fill: #fff"/>
        <path d="M67.86,39.39v-.66a1.6,1.6,0,0,1-1.45.77,2,2,0,0,1-1.14-.34,2.2,2.2,0,0,1-.8-.95,3.32,3.32,0,0,1-.29-1.41,3.73,3.73,0,0,1,.26-1.41,2,2,0,0,1,.78-1,2.1,2.1,0,0,1,1.15-.34,1.8,1.8,0,0,1,.84.2,1.65,1.65,0,0,1,.59.52V32.23h.88v7.16ZM65.08,36.8a2.26,2.26,0,0,0,.42,1.49,1.25,1.25,0,0,0,2,0,2.15,2.15,0,0,0,.41-1.44,2.45,2.45,0,0,0-.41-1.56,1.28,1.28,0,0,0-1-.5,1.2,1.2,0,0,0-1,.48A2.31,2.31,0,0,0,65.08,36.8Z" style="fill: #fff"/>
        <path d="M70.05,39.39V34.2h.79V35a2.16,2.16,0,0,1,.56-.73,1,1,0,0,1,.56-.18,1.74,1.74,0,0,1,.91.29l-.31.81a1.21,1.21,0,0,0-.64-.19.87.87,0,0,0-.52.17,1,1,0,0,0-.33.49,3.64,3.64,0,0,0-.14,1v2.72Z" style="fill: #fff"/>
        <path d="M76.94,37.72l.91.11a2.22,2.22,0,0,1-.8,1.23,2.35,2.35,0,0,1-1.48.44,2.38,2.38,0,0,1-1.81-.7,2.75,2.75,0,0,1-.66-2,2.84,2.84,0,0,1,.67-2,2.26,2.26,0,0,1,1.75-.73,2.23,2.23,0,0,1,1.7.71,2.81,2.81,0,0,1,.66,2s0,.13,0,.24H74a2.05,2.05,0,0,0,.49,1.31,1.44,1.44,0,0,0,1.08.45,1.36,1.36,0,0,0,.83-.25A1.72,1.72,0,0,0,76.94,37.72Zm-2.89-1.43H77a1.8,1.8,0,0,0-.33-1,1.35,1.35,0,0,0-1.09-.5,1.38,1.38,0,0,0-1,.4A1.58,1.58,0,0,0,74.05,36.29Z" style="fill: #fff"/>
        <path d="M79,39.39V34.2h.79v.74a1.87,1.87,0,0,1,1.65-.86,2.2,2.2,0,0,1,.86.17,1.31,1.31,0,0,1,.59.44,1.91,1.91,0,0,1,.28.65,5.76,5.76,0,0,1,0,.86v3.19h-.87V36.23a2.28,2.28,0,0,0-.11-.8.88.88,0,0,0-.36-.43,1.23,1.23,0,0,0-.61-.16,1.4,1.4,0,0,0-1,.36,1.77,1.77,0,0,0-.41,1.35v2.84Z" style="fill: #fff"/>
        <path d="M84.76,39.39v-1h1v1Z" style="fill: #fff"/>
        <path d="M92.23,39.39l-2.78-7.16h1l1.86,5.2c.15.41.27.81.38,1.17.11-.39.23-.78.38-1.17L95,32.23h1l-2.8,7.16Z" style="fill: #fff"/>
        <path d="M96.56,33.24v-1h.88v1Zm0,6.15V34.2h.88v5.19Z" style="fill: #fff"/>
        <path d="M98.43,37.84l.87-.14a1.21,1.21,0,0,0,.4.8,1.42,1.42,0,0,0,.94.28,1.36,1.36,0,0,0,.9-.25.73.73,0,0,0,.29-.57.54.54,0,0,0-.26-.47,3.66,3.66,0,0,0-.9-.3,9.14,9.14,0,0,1-1.34-.42,1.3,1.3,0,0,1-.56-.5,1.29,1.29,0,0,1-.2-.69,1.45,1.45,0,0,1,.16-.65,1.47,1.47,0,0,1,.44-.49,1.77,1.77,0,0,1,.55-.25,2.68,2.68,0,0,1,.76-.11,3,3,0,0,1,1.08.18,1.47,1.47,0,0,1,.68.48,1.91,1.91,0,0,1,.3.8l-.86.12a.94.94,0,0,0-.34-.63,1.24,1.24,0,0,0-.79-.22,1.41,1.41,0,0,0-.87.2.58.58,0,0,0-.26.46.49.49,0,0,0,.11.31.74.74,0,0,0,.34.24l.77.22a10.7,10.7,0,0,1,1.31.41,1.3,1.3,0,0,1,.57.46,1.28,1.28,0,0,1,.21.75,1.47,1.47,0,0,1-.25.83,1.65,1.65,0,0,1-.74.6,2.73,2.73,0,0,1-1.1.21,2.46,2.46,0,0,1-1.54-.42A2,2,0,0,1,98.43,37.84Z" style="fill: #fff"/>
        <path d="M103.78,33.24v-1h.88v1Zm0,6.15V34.2h.88v5.19Z" style="fill: #fff"/>
        <path d="M107.92,38.6l.13.78a3.39,3.39,0,0,1-.67.07,1.51,1.51,0,0,1-.74-.15.87.87,0,0,1-.37-.39,3.24,3.24,0,0,1-.11-1v-3h-.64V34.2h.64V32.92l.88-.53V34.2h.88v.68H107v3a1.6,1.6,0,0,0,0,.48.35.35,0,0,0,.15.17.61.61,0,0,0,.3.06Z" style="fill: #fff"/>
        <path d="M115.11,37.72l.91.11a2.22,2.22,0,0,1-.8,1.23,2.35,2.35,0,0,1-1.48.44,2.38,2.38,0,0,1-1.81-.7,2.75,2.75,0,0,1-.67-2,2.85,2.85,0,0,1,.68-2,2.26,2.26,0,0,1,1.75-.73,2.23,2.23,0,0,1,1.7.71,2.81,2.81,0,0,1,.66,2s0,.13,0,.24h-3.87a2.05,2.05,0,0,0,.49,1.31,1.44,1.44,0,0,0,1.08.45,1.36,1.36,0,0,0,.83-.25A1.8,1.8,0,0,0,115.11,37.72Zm-2.89-1.43h2.9a1.8,1.8,0,0,0-.33-1,1.35,1.35,0,0,0-1.09-.5,1.38,1.38,0,0,0-1,.4A1.58,1.58,0,0,0,112.22,36.29Z" style="fill: #fff"/>
        <path d="M116.77,37.84l.87-.14a1.21,1.21,0,0,0,.4.8,1.42,1.42,0,0,0,.94.28,1.36,1.36,0,0,0,.9-.25.73.73,0,0,0,.29-.57.54.54,0,0,0-.26-.47,3.66,3.66,0,0,0-.9-.3,9.14,9.14,0,0,1-1.34-.42,1.3,1.3,0,0,1-.56-.5,1.29,1.29,0,0,1-.2-.69,1.45,1.45,0,0,1,.16-.65,1.47,1.47,0,0,1,.44-.49,1.77,1.77,0,0,1,.55-.25,2.68,2.68,0,0,1,.76-.11,3,3,0,0,1,1.08.18,1.47,1.47,0,0,1,.68.48,1.91,1.91,0,0,1,.3.8l-.86.12a.94.94,0,0,0-.34-.63,1.24,1.24,0,0,0-.79-.22,1.41,1.41,0,0,0-.87.2.58.58,0,0,0-.26.46.49.49,0,0,0,.11.31.74.74,0,0,0,.34.24l.77.22a10.7,10.7,0,0,1,1.31.41,1.3,1.3,0,0,1,.57.46,1.28,1.28,0,0,1,.21.75,1.47,1.47,0,0,1-.25.83,1.65,1.65,0,0,1-.74.6,2.73,2.73,0,0,1-1.1.21,2.46,2.46,0,0,1-1.54-.42A2,2,0,0,1,116.77,37.84Z" style="fill: #fff"/>
        <path d="M122.11,39.39V34.2h.79V35a2.16,2.16,0,0,1,.56-.73,1,1,0,0,1,.56-.18,1.74,1.74,0,0,1,.91.29l-.31.81A1.21,1.21,0,0,0,124,35a.9.9,0,0,0-.52.17.94.94,0,0,0-.32.49,3.31,3.31,0,0,0-.15,1v2.72Z" style="fill: #fff"/>
        <path d="M126.26,39.39h-.82V32.23h.88v2.55a1.76,1.76,0,0,1,1.42-.7,2.16,2.16,0,0,1,.91.2,1.7,1.7,0,0,1,.7.54,2.57,2.57,0,0,1,.44.84,3.6,3.6,0,0,1,.15,1.05,3,3,0,0,1-.66,2.07,2.06,2.06,0,0,1-1.58.72,1.65,1.65,0,0,1-1.44-.76Zm0-2.64a2.66,2.66,0,0,0,.25,1.35,1.29,1.29,0,0,0,1.13.68,1.27,1.27,0,0,0,1-.5,2.26,2.26,0,0,0,.42-1.49,2.3,2.3,0,0,0-.4-1.5,1.23,1.23,0,0,0-1-.48,1.24,1.24,0,0,0-1,.5A2.17,2.17,0,0,0,126.25,36.75Z" style="fill: #fff"/>
        <path d="M131.26,39.39v-1h1v1Z" style="fill: #fff"/>
        <path d="M133.46,36.79a2.67,2.67,0,0,1,.8-2.13,2.44,2.44,0,0,1,1.63-.58,2.34,2.34,0,0,1,1.75.7,2.7,2.7,0,0,1,.68,1.94,3.4,3.4,0,0,1-.3,1.57,2.16,2.16,0,0,1-.87.9,2.58,2.58,0,0,1-1.26.31,2.33,2.33,0,0,1-1.76-.7A2.8,2.8,0,0,1,133.46,36.79Zm.91,0a2.19,2.19,0,0,0,.43,1.49,1.36,1.36,0,0,0,1.09.5,1.39,1.39,0,0,0,1.09-.5,2.26,2.26,0,0,0,.44-1.52,2.13,2.13,0,0,0-.44-1.45,1.45,1.45,0,0,0-2.18,0A2.21,2.21,0,0,0,134.37,36.79Z" style="fill: #fff"/>
        <path d="M139.34,39.39V34.2h.79V35a2.16,2.16,0,0,1,.56-.73,1,1,0,0,1,.57-.18,1.73,1.73,0,0,1,.9.29l-.3.81a1.25,1.25,0,0,0-.65-.19.9.9,0,0,0-.52.17.94.94,0,0,0-.32.49,3.31,3.31,0,0,0-.15,1v2.72Z" style="fill: #fff"/>
        <path d="M142.52,39.82l.85.12a.84.84,0,0,0,.3.58,1.5,1.5,0,0,0,.9.24,1.59,1.59,0,0,0,.94-.24,1.2,1.2,0,0,0,.45-.69,6.37,6.37,0,0,0,.06-1.12,1.8,1.8,0,0,1-1.43.68,2,2,0,0,1-1.66-.78,3,3,0,0,1-.59-1.85,3.45,3.45,0,0,1,.27-1.37,2.22,2.22,0,0,1,.78-1,2.17,2.17,0,0,1,1.2-.34,1.84,1.84,0,0,1,1.51.75V34.2h.81v4.48a4.38,4.38,0,0,1-.24,1.72,1.88,1.88,0,0,1-.78.8,2.8,2.8,0,0,1-1.32.29,2.47,2.47,0,0,1-1.5-.42A1.42,1.42,0,0,1,142.52,39.82Zm.73-3.12a2.25,2.25,0,0,0,.4,1.49,1.33,1.33,0,0,0,2,0,2.74,2.74,0,0,0,0-2.9,1.31,1.31,0,0,0-1-.48,1.25,1.25,0,0,0-1,.48A2.07,2.07,0,0,0,143.25,36.7Z" style="fill: #fff"/>
        <path d="M49.7,51.39V46.88h-.77V46.2h.77v-.55a2.19,2.19,0,0,1,.1-.78,1.08,1.08,0,0,1,.44-.55,1.64,1.64,0,0,1,.9-.21,4.12,4.12,0,0,1,.82.08l-.13.77a3.37,3.37,0,0,0-.52-.05.79.79,0,0,0-.57.17,1,1,0,0,0-.16.64v.48h1v.68h-1v4.51Z" style="fill: #fff"/>
        <path d="M51.94,48.79a2.67,2.67,0,0,1,.8-2.13,2.45,2.45,0,0,1,1.64-.58,2.34,2.34,0,0,1,1.74.7,2.65,2.65,0,0,1,.68,1.94,3.4,3.4,0,0,1-.3,1.57,2.16,2.16,0,0,1-.87.9,2.55,2.55,0,0,1-1.25.31,2.3,2.3,0,0,1-1.76-.7A2.76,2.76,0,0,1,51.94,48.79Zm.91,0a2.19,2.19,0,0,0,.43,1.49,1.44,1.44,0,0,0,2.18,0,2.26,2.26,0,0,0,.44-1.52,2.13,2.13,0,0,0-.44-1.45,1.38,1.38,0,0,0-1.08-.5,1.4,1.4,0,0,0-1.1.49A2.21,2.21,0,0,0,52.85,48.79Z" style="fill: #fff"/>
        <path d="M57.82,51.39V46.2h.79V47a2.29,2.29,0,0,1,.56-.73,1,1,0,0,1,.57-.18,1.73,1.73,0,0,1,.9.29l-.3.81a1.25,1.25,0,0,0-.65-.19.85.85,0,0,0-.51.17.9.9,0,0,0-.33.49,3.31,3.31,0,0,0-.15,1v2.72Z" style="fill: #fff"/>
        <path d="M63.93,51.39V46.2h.79V47a2.16,2.16,0,0,1,.56-.73,1,1,0,0,1,.56-.18,1.74,1.74,0,0,1,.91.29l-.3.81A1.25,1.25,0,0,0,65.8,47a.9.9,0,0,0-.52.17.94.94,0,0,0-.32.49,3.31,3.31,0,0,0-.15,1v2.72Z" style="fill: #fff"/>
        <path d="M70.65,50.75a3.12,3.12,0,0,1-.94.58,2.55,2.55,0,0,1-1,.17,1.9,1.9,0,0,1-1.32-.42,1.45,1.45,0,0,1-.28-1.76,1.28,1.28,0,0,1,.45-.5,2,2,0,0,1,.63-.29A5.64,5.64,0,0,1,69,48.4a8.06,8.06,0,0,0,1.57-.31c0-.12,0-.19,0-.22a1,1,0,0,0-.25-.76,1.48,1.48,0,0,0-1-.3,1.52,1.52,0,0,0-.92.22,1.32,1.32,0,0,0-.44.77l-.86-.12a2.09,2.09,0,0,1,.39-.89,1.65,1.65,0,0,1,.78-.52,3.23,3.23,0,0,1,1.17-.19,2.93,2.93,0,0,1,1.08.16,1.34,1.34,0,0,1,.61.39,1.52,1.52,0,0,1,.28.6,5,5,0,0,1,0,.81v1.17a11.54,11.54,0,0,0,.06,1.55,1.82,1.82,0,0,0,.22.63h-.92A2.08,2.08,0,0,1,70.65,50.75Zm-.07-2a7,7,0,0,1-1.43.34,3.49,3.49,0,0,0-.77.17.77.77,0,0,0-.35.29.73.73,0,0,0-.12.41.75.75,0,0,0,.27.59,1.1,1.1,0,0,0,.78.23,1.82,1.82,0,0,0,.9-.22,1.37,1.37,0,0,0,.58-.61,2.15,2.15,0,0,0,.14-.87Z" style="fill: #fff"/>
        <path d="M74.75,50.6l.13.78a3.39,3.39,0,0,1-.67.07,1.54,1.54,0,0,1-.74-.15.87.87,0,0,1-.37-.39,3.24,3.24,0,0,1-.11-1v-3h-.64V46.2H73V44.92l.88-.53V46.2h.88v.68h-.88v3a1.6,1.6,0,0,0,0,.48.37.37,0,0,0,.16.17.61.61,0,0,0,.3.06Z" style="fill: #fff"/>
        <path d="M75.62,45.24v-1h.87v1Zm0,6.15V46.2h.87v5.19Z" style="fill: #fff"/>
        <path d="M77.83,51.39V46.2h.79v.74a1.87,1.87,0,0,1,1.65-.86,2.25,2.25,0,0,1,.87.17,1.34,1.34,0,0,1,.58.44,1.73,1.73,0,0,1,.28.65,5.4,5.4,0,0,1,0,.86v3.19h-.88V48.23a2.28,2.28,0,0,0-.11-.8A.79.79,0,0,0,80.7,47a1.2,1.2,0,0,0-.61-.16,1.4,1.4,0,0,0-1,.36,1.77,1.77,0,0,0-.41,1.35v2.84Z" style="fill: #fff"/>
        <path d="M83.23,51.82l.86.12a.77.77,0,0,0,.3.58,1.45,1.45,0,0,0,.89.24,1.57,1.57,0,0,0,.94-.24,1.2,1.2,0,0,0,.45-.69,4.81,4.81,0,0,0,.06-1.12,1.8,1.8,0,0,1-1.43.68,2,2,0,0,1-1.66-.78,3,3,0,0,1-.58-1.85,3.45,3.45,0,0,1,.27-1.37,2.13,2.13,0,0,1,.77-1,2.17,2.17,0,0,1,1.2-.34,1.87,1.87,0,0,1,1.52.75V46.2h.81v4.48a4.16,4.16,0,0,1-.25,1.72,1.77,1.77,0,0,1-.78.8,2.8,2.8,0,0,1-1.32.29,2.49,2.49,0,0,1-1.5-.42A1.42,1.42,0,0,1,83.23,51.82ZM84,48.7a2.25,2.25,0,0,0,.41,1.49,1.28,1.28,0,0,0,1,.47,1.33,1.33,0,0,0,1-.47,2.19,2.19,0,0,0,.41-1.46,2.1,2.1,0,0,0-.43-1.44,1.3,1.3,0,0,0-1-.48,1.27,1.27,0,0,0-1,.48A2.12,2.12,0,0,0,84,48.7Z" style="fill: #fff"/>
        <path d="M91.74,45.24v-1h.88v1Zm0,6.15V46.2h.88v5.19Z" style="fill: #fff"/>
        <path d="M94,51.39V46.2h.79v.74a1.87,1.87,0,0,1,1.65-.86,2.2,2.2,0,0,1,.86.17,1.37,1.37,0,0,1,.59.44,1.72,1.72,0,0,1,.27.65,5.4,5.4,0,0,1,0,.86v3.19h-.88V48.23a2.32,2.32,0,0,0-.1-.8.85.85,0,0,0-.37-.43,1.18,1.18,0,0,0-.61-.16,1.42,1.42,0,0,0-1,.36,1.77,1.77,0,0,0-.41,1.35v2.84Z" style="fill: #fff"/>
        <path d="M99.73,51.39V46.88H99V46.2h.78v-.55a2.51,2.51,0,0,1,.09-.78,1,1,0,0,1,.45-.55,1.6,1.6,0,0,1,.89-.21,4.12,4.12,0,0,1,.82.08l-.13.77a3.15,3.15,0,0,0-.52-.05.78.78,0,0,0-.56.17.94.94,0,0,0-.17.64v.48h1v.68h-1v4.51Z" style="fill: #fff"/>
        <path d="M102,48.79a2.67,2.67,0,0,1,.8-2.13,2.43,2.43,0,0,1,1.63-.58,2.36,2.36,0,0,1,1.75.7,2.7,2.7,0,0,1,.68,1.94,3.4,3.4,0,0,1-.3,1.57,2.18,2.18,0,0,1-.88.9,2.55,2.55,0,0,1-1.25.31,2.31,2.31,0,0,1-1.76-.7A2.76,2.76,0,0,1,102,48.79Zm.9,0a2.19,2.19,0,0,0,.44,1.49,1.36,1.36,0,0,0,1.09.5,1.39,1.39,0,0,0,1.09-.5,2.26,2.26,0,0,0,.43-1.52,2.13,2.13,0,0,0-.43-1.45,1.42,1.42,0,0,0-1.09-.5,1.38,1.38,0,0,0-1.09.49A2.21,2.21,0,0,0,102.87,48.79Z" style="fill: #fff"/>
        <path d="M107.85,51.39V46.2h.79V47a2.16,2.16,0,0,1,.56-.73,1,1,0,0,1,.56-.18,1.68,1.68,0,0,1,.9.29l-.3.81a1.21,1.21,0,0,0-.64-.19.87.87,0,0,0-.52.17,1,1,0,0,0-.33.49,3.31,3.31,0,0,0-.14,1v2.72Z" style="fill: #fff"/>
        <path d="M111.19,51.39V46.2H112v.73a1.81,1.81,0,0,1,.65-.61,1.79,1.79,0,0,1,.93-.24,1.7,1.7,0,0,1,.94.24A1.28,1.28,0,0,1,115,47a1.87,1.87,0,0,1,1.6-.91,1.6,1.6,0,0,1,1.19.43,1.85,1.85,0,0,1,.41,1.32v3.56h-.87V48.12a2.28,2.28,0,0,0-.09-.76.7.7,0,0,0-.31-.37.91.91,0,0,0-.52-.15,1.24,1.24,0,0,0-.91.37,1.6,1.6,0,0,0-.36,1.16v3h-.88V48a1.43,1.43,0,0,0-.22-.88.79.79,0,0,0-.7-.3,1.29,1.29,0,0,0-.69.2,1.07,1.07,0,0,0-.45.57,3.09,3.09,0,0,0-.14,1.09v2.69Z" style="fill: #fff"/>
        <path d="M122.9,50.75a3.38,3.38,0,0,1-.94.58,2.57,2.57,0,0,1-1,.17,1.86,1.86,0,0,1-1.31-.42,1.34,1.34,0,0,1-.46-1.06,1.48,1.48,0,0,1,.17-.7,1.39,1.39,0,0,1,.46-.5,1.82,1.82,0,0,1,.63-.29,5.14,5.14,0,0,1,.78-.13,8.23,8.23,0,0,0,1.57-.31v-.22a1,1,0,0,0-.25-.76,1.44,1.44,0,0,0-1-.3,1.49,1.49,0,0,0-.91.22,1.27,1.27,0,0,0-.44.77l-.86-.12a2.09,2.09,0,0,1,.39-.89,1.62,1.62,0,0,1,.77-.52,3.28,3.28,0,0,1,1.18-.19,3,3,0,0,1,1.08.16,1.34,1.34,0,0,1,.61.39,1.38,1.38,0,0,1,.27.6,4.68,4.68,0,0,1,0,.81v1.17a12.29,12.29,0,0,0,0,1.55,2.06,2.06,0,0,0,.22.63h-.91A2.08,2.08,0,0,1,122.9,50.75Zm-.07-2a7,7,0,0,1-1.44.34,3.51,3.51,0,0,0-.76.17.77.77,0,0,0-.35.29.73.73,0,0,0-.12.41.77.77,0,0,0,.26.59,1.14,1.14,0,0,0,.78.23,1.77,1.77,0,0,0,.9-.22,1.39,1.39,0,0,0,.59-.61,2.15,2.15,0,0,0,.14-.87Z" style="fill: #fff"/>
        <path d="M127,50.6l.12.78a3.23,3.23,0,0,1-.66.07,1.49,1.49,0,0,1-.74-.15.82.82,0,0,1-.37-.39,3.24,3.24,0,0,1-.11-1v-3h-.65V46.2h.65V44.92l.87-.53V46.2H127v.68h-.89v3a1.49,1.49,0,0,0,0,.48.35.35,0,0,0,.15.17.61.61,0,0,0,.3.06Z" style="fill: #fff"/>
        <path d="M127.86,45.24v-1h.88v1Zm0,6.15V46.2h.88v5.19Z" style="fill: #fff"/>
        <path d="M129.75,48.79a2.67,2.67,0,0,1,.8-2.13,2.44,2.44,0,0,1,1.63-.58,2.34,2.34,0,0,1,1.75.7,2.7,2.7,0,0,1,.68,1.94,3.4,3.4,0,0,1-.3,1.57,2.16,2.16,0,0,1-.87.9,2.58,2.58,0,0,1-1.26.31,2.33,2.33,0,0,1-1.76-.7A2.76,2.76,0,0,1,129.75,48.79Zm.9,0a2.19,2.19,0,0,0,.44,1.49,1.36,1.36,0,0,0,1.09.5,1.39,1.39,0,0,0,1.09-.5,2.26,2.26,0,0,0,.44-1.52,2.13,2.13,0,0,0-.44-1.45,1.45,1.45,0,0,0-2.18,0A2.21,2.21,0,0,0,130.65,48.79Z" style="fill: #fff"/>
        <path d="M135.64,51.39V46.2h.79v.74a1.87,1.87,0,0,1,1.65-.86,2.2,2.2,0,0,1,.86.17,1.31,1.31,0,0,1,.59.44,1.72,1.72,0,0,1,.27.65,4.41,4.41,0,0,1,0,.86v3.19H139V48.23a2.32,2.32,0,0,0-.1-.8.88.88,0,0,0-.36-.43,1.23,1.23,0,0,0-.61-.16,1.4,1.4,0,0,0-1,.36,1.73,1.73,0,0,0-.41,1.35v2.84Z" style="fill: #fff"/>
        <path d="M141.45,51.39v-1h1v1Z" style="fill: #fff"/>
      </g>
    </g>
  </g>
</svg>
