<svg width="15" height="15" viewBox="0 0 15 15" fill="none" xmlns="http://www.w3.org/2000/svg">
<g clip-path="url(#clip0)">
<path fill-rule="evenodd" clip-rule="evenodd" d="M7.1111 0C11.0382 0 14.2222 3.18404 14.2222 7.1111C14.2222 10.6611 11.6222 13.6032 8.22212 14.1362V9.16743H9.87844L9.87849 9.16713H9.87914L10.1941 7.1111H8.22212V5.77708C8.22212 5.3539 8.37805 4.93919 8.83048 4.7593C8.9798 4.70007 9.16143 4.66637 9.38043 4.66637H10.2774V4.66607H10.2781V2.91604C10.2781 2.91604 9.46413 2.77704 8.68612 2.77704C8.35135 2.77704 8.04045 2.8189 7.75782 2.90096C6.66897 3.21659 5.99938 4.12861 5.99938 5.54438V7.1111H4.19406V7.1114H4.19336V9.16743H5.99938V14.1361C2.59968 13.6018 0 10.6599 0 7.1111C0 3.18404 3.18404 0 7.1111 0Z" fill="white"/>
</g>
<defs>
<clipPath id="clip0">
<rect width="14.2222" height="14.2222" fill="white"/>
</clipPath>
</defs>
</svg>
