<svg width="2076" height="173" viewBox="0 0 2076 173" fill="none" xmlns="http://www.w3.org/2000/svg">
<path d="M753.917 136H471V36H779.383L753.917 136Z" fill="#F2F3F5"/>
<path d="M615.471 40.1946L588.856 131.033H749.57L773.327 40.1946H615.471Z" fill="#17161B"/>
<path d="M622.931 66.3759V54.2496C622.931 53.4071 623.228 52.6902 623.818 52.0951C624.407 51.5019 625.122 51.2053 625.965 51.2053H637.48V54.4316H627.331C627.08 54.4316 626.866 54.5226 626.687 54.7045C626.509 54.8865 626.42 55.0994 626.42 55.3414V65.2568C626.42 65.5079 626.509 65.7208 626.687 65.8955C626.866 66.0684 627.08 66.1539 627.331 66.1539H633.626C633.879 66.1539 634.093 66.0684 634.272 65.8955C634.45 65.7208 634.539 65.5079 634.539 65.2568V61.8613H630.192V58.635H638.078V66.3723C638.078 67.1984 637.78 67.9044 637.189 68.4958C636.593 69.0872 635.877 69.382 635.034 69.382H625.961C625.12 69.382 624.405 69.0872 623.816 68.4977C623.228 67.9063 622.931 67.2002 622.931 66.3759Z" fill="white"/>
<path d="M641.552 69.3819V51.2034H654.29V54.4315H645.092V58.6986H652.481V61.9249H645.092V66.1538H654.29V69.3819" fill="white"/>
<path d="M656.816 69.3819V51.2034H669.553V54.4315H660.355V58.6986H667.745V61.9249H660.355V69.3819" fill="white"/>
<path d="M675.304 65.2567C675.304 65.5078 675.393 65.7207 675.571 65.8954C675.749 66.0683 675.964 66.1538 676.215 66.1538H682.511C682.764 66.1538 682.979 66.0683 683.157 65.8954C683.334 65.7207 683.423 65.5078 683.423 65.2567V55.3668C683.423 55.1157 683.334 54.8973 683.157 54.7099C682.979 54.5243 682.764 54.4315 682.511 54.4315H676.215C675.964 54.4315 675.749 54.5243 675.571 54.7099C675.393 54.8973 675.304 55.1157 675.304 55.3668V65.2567ZM671.817 66.3758V54.2495C671.817 53.407 672.112 52.69 672.7 52.095C673.289 51.5018 673.993 51.2034 674.816 51.2034H683.9C684.72 51.2034 685.43 51.5018 686.022 52.095C686.615 52.69 686.911 53.407 686.911 54.2495V66.3758C686.911 67.2074 686.617 67.917 686.029 68.503C685.439 69.0889 684.73 69.3819 683.9 69.3819H674.816C673.984 69.3819 673.277 69.0889 672.694 68.503C672.108 67.917 671.817 67.2074 671.817 66.3758Z" fill="white"/>
<path d="M693.624 58.7515H699.556C699.809 58.7515 700.024 58.6623 700.2 58.484C700.38 58.3075 700.468 58.0928 700.468 57.8398V55.3687C700.468 55.1158 700.38 54.8974 700.2 54.71C700.024 54.5244 699.809 54.4316 699.556 54.4316H693.624V58.7515ZM690.137 69.382V51.2053H701.032C701.871 51.2053 702.586 51.5019 703.175 52.0951C703.765 52.6902 704.06 53.4071 704.06 54.2496V58.9335C704.06 59.7741 703.765 60.4929 703.175 61.0861C702.586 61.6812 701.871 61.9778 701.028 61.9778H700.806L705.257 69.382H701.458L696.961 61.9778H693.624V69.382" fill="white"/>
<path d="M707.273 66.3759V54.2496C707.273 53.4071 707.568 52.6902 708.158 52.0951C708.749 51.5019 709.464 51.2053 710.305 51.2053H719.389V54.4316H711.675C711.422 54.4316 711.206 54.5226 711.029 54.7045C710.851 54.8865 710.762 55.0994 710.762 55.3414V65.2568C710.762 65.5079 710.851 65.7208 711.029 65.8955C711.206 66.0684 711.422 66.1539 711.675 66.1539H719.389V69.382H710.305C709.464 69.382 708.749 69.0872 708.158 68.4977C707.568 67.9063 707.273 67.2002 707.273 66.3759Z" fill="white"/>
<path d="M722.446 69.3819V51.2034H735.183V54.4315H725.985V58.6986H733.375V61.9249H725.985V66.1538H735.183V69.3819" fill="white"/>
<path d="M739.105 53.0796H738.725V52.3626H739.105C739.569 52.3626 739.569 52.6283 739.569 52.7156C739.569 52.8048 739.569 53.0796 739.105 53.0796ZM740.08 52.7156C740.08 52.1825 739.705 51.8513 739.105 51.8513H738.215V54.2624H738.725V53.5909H739.105C739.127 53.5909 739.15 53.5909 739.176 53.5891L739.665 54.2624H740.299L739.7 53.4417C739.946 53.2888 740.08 53.0323 740.08 52.7156ZM739.156 54.8701C738.222 54.8701 737.463 54.1095 737.463 53.176C737.463 52.2425 738.222 51.4837 739.156 51.4837C740.089 51.4837 740.848 52.2425 740.848 53.176C740.848 54.1095 740.089 54.8701 739.156 54.8701ZM739.156 51.2053C738.069 51.2053 737.185 52.0879 737.185 53.1742C737.185 54.2605 738.069 55.1449 739.156 55.1449C740.242 55.1449 741.126 54.2605 741.126 53.1742C741.126 52.0879 740.242 51.2053 739.156 51.2053Z" fill="white"/>
<path d="M631.289 90.9196H645.501C646.105 90.9196 646.624 90.7067 647.049 90.2809C647.477 89.8551 647.69 89.3401 647.69 88.7378V82.8129C647.69 82.2106 647.477 81.6848 647.049 81.2389C646.624 80.7913 646.105 80.5693 645.501 80.5693H631.289V90.9196ZM622.933 116.393V72.8357H649.035C651.051 72.8357 652.767 73.5472 654.175 74.972C655.587 76.395 656.295 78.1164 656.295 80.1326V91.3563C656.295 93.3725 655.587 95.0939 654.175 96.5169C652.761 97.9399 651.045 98.6532 649.029 98.6532H648.5L659.163 116.393H650.059L639.287 98.6532H631.289V116.393" fill="white"/>
<path d="M662.375 80.4437V72.8357H695.8V80.4437H683.328V116.393H674.847V80.4437" fill="white"/>
<path d="M697.982 116.393L712.417 94.4116L698.824 72.7739H709.051L717.656 86.5234L726.418 72.7739H735.804L722.053 93.4763L736.552 116.393H726.356L716.877 101.521L707.306 116.393" fill="white"/>
<path d="M575.145 114.129V113.596H575.487C575.675 113.596 575.93 113.611 575.93 113.838C575.93 114.086 575.799 114.129 575.578 114.129H575.145ZM575.145 114.506H575.375L575.906 115.438H576.488L575.9 114.466C576.204 114.444 576.455 114.3 576.455 113.891C576.455 113.381 576.104 113.218 575.509 113.218H574.65V115.438H575.145V114.506ZM577.64 114.331C577.64 113.027 576.628 112.271 575.5 112.271C574.363 112.271 573.351 113.027 573.351 114.331C573.351 115.634 574.365 116.393 575.5 116.393C576.628 116.393 577.64 115.634 577.64 114.331ZM577.023 114.331C577.023 115.281 576.324 115.918 575.5 115.918V115.913C574.65 115.918 573.966 115.281 573.966 114.331C573.966 113.383 574.65 112.746 575.5 112.746C576.326 112.746 577.023 113.381 577.023 114.331Z" fill="white"/>
<path d="M523.763 100.125L523.765 115.725H528.17V100.125H523.763ZM489.106 100.104V115.725H493.549V103.863L496.994 103.865C498.135 103.865 498.948 104.149 499.496 104.735C500.193 105.477 500.477 106.676 500.477 108.865V115.725H504.784V107.095C504.784 100.935 500.859 100.104 497.016 100.104H489.106ZM530.858 100.125V115.725H538.004C541.811 115.725 543.053 115.092 544.398 113.673C545.346 112.676 545.961 110.488 545.961 108.097C545.961 105.903 545.443 103.948 544.535 102.729C542.902 100.551 540.551 100.125 537.041 100.125H530.858ZM535.229 103.523H537.121C539.871 103.523 541.647 104.756 541.647 107.957C541.647 111.162 539.871 112.395 537.121 112.395H535.229V103.523ZM517.413 100.125L513.735 112.488L510.212 100.127L505.455 100.125L510.487 115.725H516.837L521.909 100.125H517.413ZM548.01 115.725H552.419V100.127L548.01 100.125V115.725ZM560.362 100.131L554.208 115.72H558.553L559.527 112.965H566.809L567.728 115.72H572.445L566.247 100.129L560.362 100.131ZM563.223 102.975L565.89 110.279H560.468" fill="#17161B"/>
<path d="M500.95 69.0654C500.95 69.0654 506.62 60.7003 517.939 59.836V56.8008C505.401 57.8071 494.545 68.4267 494.545 68.4267C494.545 68.4267 500.694 86.2012 517.939 87.8298V84.6035C505.285 83.0113 500.95 69.0654 500.95 69.0654Z" fill="#17161B"/>
<path d="M517.938 78.1891V81.1443C508.374 79.4393 505.719 69.4966 505.719 69.4966C505.719 69.4966 510.312 64.4088 517.938 63.5845V66.8253C517.933 66.8253 517.929 66.8235 517.924 66.8235C513.92 66.3431 510.794 70.0825 510.794 70.0825C510.794 70.0825 512.547 76.3786 517.938 78.1891Z" fill="#17161B"/>
<path d="M517.938 51.2034V56.8007C518.308 56.7734 518.675 56.7479 519.045 56.7352C533.298 56.2566 542.586 68.4266 542.586 68.4266C542.586 68.4266 531.919 81.3972 520.806 81.3972C519.787 81.3972 518.834 81.3007 517.938 81.1442V84.6052C518.705 84.7017 519.498 84.7581 520.328 84.7581C530.669 84.7581 538.146 79.4774 545.388 73.2268C546.589 74.1894 551.504 76.5277 552.514 77.5504C545.628 83.3151 529.583 87.9625 520.486 87.9625C519.609 87.9625 518.766 87.9098 517.938 87.8297V92.6937H557.245V51.2034" fill="#17161B"/>
<path d="M517.938 63.5845V59.836C518.302 59.8105 518.67 59.7905 519.045 59.7796C529.295 59.4575 536.019 68.5868 536.019 68.5868C536.019 68.5868 528.756 78.6732 520.968 78.6732C519.847 78.6732 518.843 78.4949 517.938 78.1892V66.8253C521.929 67.3075 522.731 69.0708 525.13 73.0686L530.467 68.5704C530.467 68.5704 526.571 63.4626 520.006 63.4626C519.292 63.4608 518.608 63.5117 517.938 63.5845Z" fill="#17161B"/>
<path d="M0 117.341V106.104H14.7602C25.9522 106.104 29.5831 106.041 29.7797 105.844C30.053 105.571 30.1639 99.5488 29.9079 98.8817C29.79 98.5746 28.2652 98.5399 14.8884 98.5399H0V94.866V91.1922H15.6598C30.927 91.1922 31.3492 91.2033 32.5058 91.636C33.9709 92.1842 35.7298 93.7314 36.4069 95.0676C37.1636 96.5609 37.3868 98.2128 37.3868 102.322C37.3868 106.312 37.1607 108.094 36.4873 109.414C35.4254 111.495 33.138 113.119 30.8927 113.385C30.3043 113.455 29.823 113.541 29.823 113.577C29.823 113.613 30.6847 115.131 31.738 116.951C32.7913 118.77 34.7329 122.131 36.0527 124.419L38.4522 128.579L34.1916 128.576L29.931 128.573L25.6068 121.066L21.2825 113.559L14.3151 113.502L7.34769 113.445V121.012V128.579H3.67384H0V117.341ZM44.1976 127.341C44.4921 126.655 48.1235 118.265 52.2673 108.697L59.8016 91.3002L63.5671 91.2414L67.3327 91.1826L75.2599 109.503C79.6199 119.579 83.2494 127.993 83.3256 128.201C83.4543 128.552 83.1832 128.579 79.4832 128.579H75.5022L73.883 124.851L72.2638 121.123L63.605 121.067L54.9461 121.01L53.3415 124.741L51.7368 128.471L47.6995 128.53L43.6621 128.588L44.1976 127.341ZM68.9386 113.549C68.9386 113.369 63.7945 101.536 63.6563 101.398C63.5901 101.331 63.5052 101.318 63.4678 101.367C63.408 101.446 61.0493 106.893 58.8883 111.941L58.1496 113.667H63.5441C66.5111 113.667 68.9386 113.614 68.9386 113.549ZM90.7656 117.349V106.104H94.4394H98.1132V113.667V121.231H109.216C118.329 121.231 120.363 121.178 120.564 120.937C120.741 120.724 120.793 117.586 120.753 109.645L120.697 98.6479L105.731 98.5924L90.7656 98.5369V94.8592V91.1815L106.812 91.2409L122.858 91.3002L123.846 91.7875C125.453 92.5794 126.559 93.6771 127.333 95.2487L128.044 96.6939V109.881V123.068L127.411 124.32C126.639 125.844 125.288 127.129 123.652 127.896L122.425 128.471L106.595 128.533L90.7656 128.595V117.349ZM138.309 117.341V106.104H157.003H175.696V109.776V113.448L160.731 113.504L145.765 113.559V117.341V121.123L160.731 121.179L175.696 121.234V124.907V128.579H157.003H138.309V117.341ZM191.898 128.29C189.642 127.795 187.607 126.161 186.639 124.067C186.183 123.081 186.177 122.897 186.177 109.778V96.4868L186.711 95.4063C187.394 94.0212 188.907 92.5078 190.283 91.8313L191.364 91.3002H204.763H218.161L219.134 91.816C221.232 92.9288 222.556 94.5351 223.123 96.6558C223.442 97.8494 223.474 99.3883 223.415 110.426L223.348 122.852L222.764 124.099C221.997 125.735 220.351 127.325 218.758 127.968L217.513 128.471L205.303 128.512C196.392 128.542 192.77 128.482 191.898 128.29ZM215.868 120.937C216.044 120.724 216.097 117.586 216.056 109.645L216 98.6479H204.763H193.525L193.469 109.764C193.425 118.513 193.471 120.916 193.685 121.052C193.835 121.147 198.832 121.226 204.79 121.228C213.677 121.231 215.667 121.178 215.868 120.937ZM233.613 109.886V91.1922L237.449 91.2075L241.285 91.2228L252.415 104.186L263.544 117.149L263.6 104.17L263.656 91.1922H267.328H271V109.886V128.579H267.334H263.668L252.368 115.461L241.069 102.343L241.013 115.461L240.958 128.579H237.285H233.613V109.886V109.886ZM138.309 94.866V91.1922H157.003H175.696V94.866V98.5399H157.003H138.309V94.866ZM106.325 69.5254V62.9862L110.864 58.4518L115.402 53.9173V60.3446V66.7719H121.937H128.473L123.83 71.4183L119.188 76.0646H112.756H106.325V69.5254ZM134.904 71.0381L130.53 66.66V59.2602V51.8604H123.126H115.722L111.296 47.4302L106.87 43H123.13H139.39V59.2081C139.39 68.1226 139.365 75.4163 139.334 75.4163C139.303 75.4163 137.31 73.4461 134.904 71.0381V71.0381ZM0.094603 73.5305C0.174268 73.3197 2.77571 66.8503 5.87558 59.1541L11.5117 45.1611H15.6498H19.788L26.1022 59.3702C29.575 67.1852 32.4163 73.6523 32.4163 73.7414C32.4163 73.8306 30.7387 73.9021 28.6884 73.9005L24.9605 73.8975L23.7688 71.037L22.577 68.1766L16.0784 68.1195L9.57985 68.0623L8.51368 70.9289L7.44751 73.7955L3.69863 73.8547C0.185114 73.9102 -0.0411483 73.8899 0.094603 73.5305ZM20.2498 62.6118C17.9353 56.9334 15.8659 52.0766 15.7609 52.0766C15.662 52.0766 13.1275 58.6099 11.5063 63.0441C11.4292 63.2548 12.4118 63.3142 15.9718 63.3142H20.5361L20.2498 62.6118ZM36.0901 59.5323V45.1611H39.177H42.2639L46.5416 50.1134C48.8943 52.8371 50.9966 55.2262 51.2134 55.4224C51.5877 55.7611 51.8392 55.5112 56.1977 50.4701L60.7878 45.1611H63.8907H66.9936V59.5323V73.9035H63.4302H59.8668L59.8104 64.9103L59.754 55.9171L55.9088 60.372C52.6292 64.1716 51.9775 64.8249 51.4786 64.8129C50.9913 64.8012 50.2628 64.0609 47.1188 60.3827C45.0427 57.9538 43.2679 55.9665 43.1748 55.9665C43.0817 55.9665 43.0056 60.0023 43.0056 64.935V73.9035H39.5478H36.0901V59.5323ZM72.6124 59.5323V45.1611L80.1222 45.1639C86.7149 45.1664 87.8827 45.2182 89.685 45.5882C96.5184 46.991 100.782 51.8854 101.088 58.6791C101.421 66.0739 97.8297 71.1707 90.9817 73.0226C88.4155 73.7166 85.9263 73.8998 79.0417 73.9017L72.6124 73.9035V59.5323ZM87.2891 68.3838C91.0682 67.493 93.1596 65.1019 93.8065 60.9321C94.2212 58.2591 93.4502 55.1762 91.8709 53.1926C91.5241 52.757 90.7203 52.0888 90.0845 51.7075C88.289 50.6307 86.8245 50.3477 83.0483 50.3477H79.744V59.5323V68.7169L82.8236 68.7137C84.8055 68.7115 86.3971 68.5941 87.2891 68.3838V68.3838Z" fill="#F2F3F5"/>
<path d="M1339.04 102.378C1345.21 122.979 1364.32 138 1386.93 138C1414.55 138 1436.94 115.614 1436.94 88C1436.94 60.3863 1414.55 38 1386.94 38C1360.44 38 1338.76 58.6137 1337.05 84.6781C1340.29 90.1116 1341.54 93.4721 1339.04 102.378H1339.04Z" fill="#F2F3F5"/>
<path d="M1384.36 75.4761L1384.37 75.7262L1372.14 93.4988C1370.15 93.4099 1368.16 93.7572 1366.28 94.5325C1365.44 94.8715 1364.67 95.2883 1363.94 95.769L1337.07 84.7098C1337.07 84.7098 1336.44 94.9354 1339.04 102.56L1358.03 110.396C1358.98 114.659 1361.91 118.399 1366.22 120.194C1373.28 123.139 1381.42 119.783 1384.35 112.719C1385.11 110.911 1385.47 108.964 1385.42 107.006L1402.93 94.4964L1403.35 94.5047C1413.83 94.5047 1422.35 85.963 1422.35 75.4761C1422.34 70.4371 1420.34 65.6049 1416.78 62.0389C1413.22 58.4729 1408.39 56.4642 1403.35 56.4531C1398.32 56.4642 1393.49 58.4729 1389.93 62.0389C1386.37 65.6049 1384.36 70.4371 1384.36 75.4761H1384.36ZM1381.43 111.494C1379.16 116.948 1372.89 119.535 1367.44 117.265C1364.92 116.217 1363.03 114.3 1361.93 112.013L1368.11 114.575C1372.13 116.248 1376.74 114.345 1378.41 110.324C1379.22 108.394 1379.22 106.223 1378.43 104.289C1377.63 102.355 1376.1 100.816 1374.17 100.009L1367.78 97.3612C1370.25 96.4248 1373.05 96.3886 1375.67 97.4807C1376.97 98.0181 1378.15 98.8085 1379.14 99.8059C1380.14 100.803 1380.92 101.988 1381.45 103.291C1382.53 105.931 1382.53 108.854 1381.43 111.488L1381.43 111.494ZM1403.36 88.147C1396.41 88.147 1390.71 82.459 1390.71 75.4706C1390.71 68.4821 1396.38 62.7997 1403.36 62.7997C1410.33 62.7997 1416.01 68.4877 1416.01 75.4706C1416.01 82.4534 1410.34 88.147 1403.36 88.147ZM1393.88 75.4483C1393.88 70.1883 1398.13 65.9229 1403.38 65.9229C1408.63 65.9229 1412.88 70.1883 1412.88 75.4483C1412.88 80.7084 1408.63 84.9682 1403.38 84.9682C1398.13 84.9682 1393.88 80.7056 1393.88 75.4483Z" fill="#17161B"/>
<path d="M1640.2 106.673H1633.41V84.943L1625.49 99.0866H1620.96L1614.17 84.943V106.673H1606.25V69.3267H1614.17L1623.22 89.4723L1633.41 69.3267H1640.2V106.673ZM1596.06 106.673H1588.14L1585.88 100.109H1573.43L1571.17 106.673H1563.25L1576.83 69.3267H1582.48L1596.06 106.673ZM1584.74 93.8849L1580.22 80.3054L1575.69 93.8849H1584.74ZM1551.93 106.673H1527.03V69.3267H1551.93V75.7733H1534.95V84.6013H1549.66V91.0562H1534.95V100.226H1551.93V106.673ZM1515.7 75.7733H1506.65V106.673H1498.73V75.7733H1488.55V69.3267H1515.71L1515.7 75.7733ZM1479.49 95.6966C1479.49 103.394 1472.7 106.9 1465.91 107.014C1459.12 107.014 1454.59 105.43 1452.33 102.035L1456.86 97.3944C1459.12 99.4312 1461.39 100.562 1465.91 100.562C1470.44 100.562 1472.7 98.9783 1472.7 95.9217C1472.7 93.093 1470.44 91.8481 1468.18 91.3924L1463.65 90.8256C1456.85 89.9197 1453.46 86.413 1453.46 80.2998C1453.46 76.9043 1454.59 74.1867 1456.85 72.0388C1459.12 70.002 1462.51 68.9822 1465.91 68.9822C1471.57 68.9822 1474.96 70.4549 1478.36 73.2836L1473.83 77.924C1471.56 76.229 1469.3 75.3204 1465.91 75.3204C1462.51 75.5427 1460.25 76.7931 1460.25 80.072C1460.25 82.6756 1462.51 83.9205 1464.78 84.1456L1469.31 84.8236C1474.97 85.5016 1479.5 89.3528 1479.5 95.6605L1479.49 95.6966Z" fill="#F2F3F5"/>
<path d="M1123.69 150.396V135.431H1118.04V154.819H1137V150.397L1123.69 150.396Z" fill="#F2F3F5"/>
<path d="M1054.77 168.096H1059C1059.1 169.211 1058.77 169.775 1057.86 169.862C1056.96 169.949 1056.05 170.022 1055.15 170.024C1051.38 170.034 1050.98 169.592 1051.21 165.827C1051.21 165.757 1051.21 165.686 1051.22 165.617C1051.36 164.213 1051.88 163.681 1053.28 163.616C1054.37 163.566 1055.45 163.597 1056.54 163.588C1057.67 163.579 1058.74 163.659 1059.02 164.984H1061.79C1062.18 162.76 1061.46 161.55 1059.33 161.425C1056.58 161.263 1053.81 161.288 1051.07 161.443C1049.22 161.547 1048.27 162.637 1048.16 164.448C1048.07 166.018 1048.08 167.602 1048.16 169.173C1048.26 170.848 1049.04 171.685 1050.67 172.104C1051.28 172.258 1051.89 172.375 1052.5 172.51H1057.96C1058.4 172.416 1058.84 172.317 1059.28 172.23C1060.46 171.996 1061.62 171.616 1061.86 170.276C1062.09 168.954 1062.08 167.588 1062.18 166.166H1054.77V168.096ZM1033.04 154.736V135.489H1027.48V150.188L1016.08 135.399H1007.38V154.761H1012.91V140.365L1013.17 140.3L1024.45 154.736L1033.04 154.736ZM1043.04 145.125V139.582C1045.61 139.582 1048.11 139.582 1050.61 139.583C1050.96 139.583 1051.31 139.593 1051.66 139.595C1054.77 139.616 1055.1 140.526 1054.79 143.592C1054.69 144.59 1053.93 145.088 1053.04 145.103C1049.73 145.159 1046.43 145.125 1043.04 145.125V145.125ZM1054.9 152.161C1054.98 153.016 1055.02 153.875 1055.08 154.751H1060.62C1060.62 153.538 1060.67 152.422 1060.62 151.31C1060.49 148.865 1060.13 147.786 1057.76 147.373C1057.63 147.351 1057.52 147.243 1057.23 147.074C1059.62 146.541 1060.48 144.924 1060.59 142.819C1060.65 141.775 1060.63 140.71 1060.49 139.675C1060.15 137.158 1059.23 136.163 1056.75 135.697C1055.52 135.465 1054.26 135.342 1053 135.331C1048.21 135.289 1043.41 135.312 1038.61 135.317C1038.24 135.317 1037.87 135.363 1037.43 135.393V154.743H1043V149.405C1044.27 149.405 1045.42 149.381 1046.57 149.41C1048.6 149.46 1050.64 149.428 1052.65 149.648C1054.29 149.828 1054.76 150.5 1054.9 152.161V152.161ZM1070.28 146.948H1084.74V143.038H1070.25V139.545H1085.57V135.435H1064.59V154.756H1085.83V150.503H1070.28V146.948ZM1003.2 135.989C1003.2 135.795 1003.08 135.601 1003.02 135.418H997.484C997.484 138.851 997.495 142.179 997.476 145.508C997.471 146.416 997.411 147.328 997.314 148.232C997.174 149.53 996.357 150.346 995.125 150.408C992.582 150.537 990.021 150.631 987.485 150.464C985.442 150.331 984.779 149.412 984.755 147.328C984.716 143.748 984.734 140.168 984.716 136.588C984.714 136.189 984.635 135.79 984.592 135.394H979.059C979.059 140.205 978.894 144.875 979.116 149.526C979.27 152.759 980.609 154.033 983.865 154.579C988.59 155.372 993.365 155.339 998.091 154.635C1001.7 154.097 1002.92 152.755 1003.08 149.145C1003.28 144.766 1003.18 140.374 1003.2 135.988V135.989ZM1097.36 147.228L1101.46 139.149L1105.6 147.228H1097.36ZM1097.94 135.37L1087.44 154.773H1093.51L1095.26 151.424H1107.73L1109.49 154.761H1115.62L1105.06 135.37H1097.94ZM1042.26 169.351L1042 169.412C1039.89 166.695 1037.79 163.979 1035.69 161.262H1030.77V172.198H1033.8V164.219L1034.11 164.109L1040.48 172.215H1045.39V161.287H1042.26L1042.26 169.351ZM1081.77 169.356L1081.52 169.421C1079.44 166.723 1077.35 164.024 1075.33 161.41H1070.43V172.176H1073.54V163.921L1080.03 172.225H1084.86V161.445H1081.77V169.356ZM1019.71 167.822H1027.95V165.565H1019.71V163.533H1028.4V161.253H1016.57V172.19H1028.62V169.865H1019.71V167.822ZM1090.95 167.818H1099.04V165.62H1090.99V163.591H1099.51V161.421H1087.78V172.182H1099.7V169.876H1090.95V167.818ZM1064.62 172.212H1067.62V161.431H1064.62V172.212ZM1015.62 69.5457C1015.62 69.5457 1013.42 58.5948 1025.05 45.3326C1036.68 32.0708 1045.41 27.2483 1054.84 24.7363L1054.82 24.746L1054.86 24.7363C1054.86 24.7363 1047.45 29.0571 1047.45 35.5867C1047.45 37.4821 1047.75 38.7845 1048.17 39.6544C1048.73 40.8102 1049.6 41.2032 1050.39 41.207C1051.06 41.2108 1051.45 40.9372 1052.29 40.6101V75.9746C1052.29 75.9746 1052.38 76.5447 1052.89 77.2203C1053.62 78.1918 1054.78 79.3774 1056.95 79.3894C1060.66 79.3656 1065.32 75.172 1065.32 75.172V46.5383C1065.32 43.6253 1063.24 40.1087 1061.03 38.9022C1061.03 38.9022 1061.33 38.8832 1061.82 38.8835C1063.28 38.883 1066.4 39.0498 1068.14 40.3819C1068.62 39.8206 1076.43 30.9755 1090.31 28.2537L1090.3 28.2615L1090.34 28.2537C1090.34 28.2537 1082.66 37.3128 1080.25 41.8053C1079.83 41.8308 1079.76 50.3284 1079.84 58.8195C1079.9 67.016 1080.1 75.2078 1080.21 75.7745C1080.21 75.7745 1081.03 76.9947 1083.12 77.0053C1085.47 77.0173 1089.44 75.49 1095.65 68.9419L1095.65 68.9421V68.9419C1095.65 68.9419 1095.49 69.3149 1095.16 69.9755C1093.38 73.5426 1086.76 85.501 1075 92.4516L1075 92.4509L1074.99 92.4516L1067.37 85.9877L1067.17 85.8247L1058.85 94.6628L1058.84 94.6616L1058.84 94.6628C1058.84 94.6628 1039.87 93.0554 1031.95 81.6026L1031.99 81.6163L1031.98 81.6026C1031.98 81.6026 1033.18 82.0704 1034.53 82.0958C1036.12 82.1249 1037.78 81.5443 1037.78 78.8886V51.9637C1037.78 50.5887 1036.84 49.0463 1034.76 49.0522C1032.9 49.057 1030.22 50.3145 1026.56 54.0735C1018.84 62.0098 1015.63 69.5457 1015.63 69.5457L1015.63 69.517L1015.62 69.5457H1015.62ZM1057.75 115.194C1072.55 115.194 1086.46 109.422 1096.92 98.9403C1107.38 88.4586 1113.14 74.5227 1113.14 59.6996C1113.14 44.8764 1107.38 30.9405 1096.92 20.4589C1086.46 9.9774 1072.55 4.2049 1057.75 4.2049C1042.96 4.2049 1029.05 9.9774 1018.58 20.4589C1008.12 30.9405 1002.36 44.8764 1002.36 59.6996C1002.36 74.5227 1008.12 88.4586 1018.58 98.9403C1029.05 109.422 1042.96 115.194 1057.75 115.194" fill="#F2F3F5"/>
<path d="M1057.75 1.65007C1089.75 1.65007 1115.69 27.6398 1115.69 59.6993C1115.69 91.7593 1089.75 117.749 1057.75 117.749C1025.75 117.749 999.811 91.7591 999.811 59.6995C999.811 27.6398 1025.75 1.65007 1057.75 1.65007ZM1057.75 119.399C1073.67 119.399 1088.63 113.19 1099.89 101.913C1111.14 90.6378 1117.34 75.646 1117.34 59.6995C1117.34 43.753 1111.14 28.7612 1099.89 17.4851C1088.63 6.20972 1073.67 3.16033e-05 1057.75 3.16033e-05C1041.84 3.16033e-05 1026.87 6.20973 1015.62 17.4856C1004.36 28.7614 998.164 43.7535 998.164 59.6997C998.164 75.6462 1004.36 90.638 1015.62 101.914C1026.87 113.19 1041.84 119.399 1057.75 119.399Z" fill="#F2F3F5"/>
<path fill-rule="evenodd" clip-rule="evenodd" d="M1918.35 38H1847.83C1842.11 38 1840 40.1096 1840 45.8286V114.837C1840 115.484 1840.03 116.085 1840.08 116.642C1840.21 117.89 1840.24 119.1 1841.4 120.477C1841.51 120.612 1842.7 121.494 1842.7 121.494C1843.34 121.807 1843.77 122.037 1844.49 122.326L1879.22 136.876C1881.02 137.702 1881.77 138.024 1883.08 137.999V137.999C1883.08 137.999 1883.09 137.999 1883.09 137.999C1883.09 137.999 1883.09 137.999 1883.09 137.999V137.999C1884.4 138.024 1885.16 137.702 1886.96 136.876L1921.69 122.326C1922.41 122.037 1922.84 121.807 1923.48 121.494C1923.48 121.494 1924.66 120.612 1924.78 120.477C1925.94 119.1 1925.96 117.89 1926.09 116.642C1926.15 116.085 1926.18 115.484 1926.18 114.837V45.8286C1926.18 40.1096 1924.07 38 1918.35 38Z" fill="#F2F3F5"/>
<path d="M1913.63 107.378L1913.61 107.538L1913.6 107.712L1913.56 107.872L1913.52 108.031L1913.48 108.174L1913.44 108.333L1913.37 108.477L1913.31 108.604L1913.25 108.747L1913.17 108.875L1913.09 109.002L1912.99 109.129L1912.91 109.257L1912.82 109.368L1912.71 109.479L1912.61 109.575L1912.49 109.686L1912.37 109.782L1912.25 109.877L1912.12 109.956L1911.99 110.051L1911.85 110.131L1911.71 110.195L1911.57 110.274L1911.41 110.338L1911.25 110.402L1911.09 110.449L1910.93 110.497L1910.79 110.545L1910.63 110.577L1910.49 110.609L1910.35 110.64L1910.19 110.672L1910.03 110.688L1909.89 110.704L1909.73 110.72L1909.55 110.736L1909.4 110.752H1909.24H1909.06H1908.89H1908.73L1908.57 110.736H1908.4L1908.24 110.72L1908.08 110.704L1907.91 110.688L1907.75 110.656L1907.59 110.64L1907.43 110.609L1907.27 110.577L1907.11 110.545L1906.96 110.513L1906.8 110.466L1906.65 110.434L1906.5 110.386L1906.34 110.338L1906.19 110.274L1906.04 110.227L1905.89 110.179L1905.74 110.115L1905.59 110.051L1905.45 109.988L1905.31 109.909L1905.16 109.846L1905.02 109.766L1904.9 109.686L1904.75 109.607L1904.63 109.527L1904.5 109.448L1904.37 109.352L1904.25 109.257L1904.12 109.161L1903.99 109.066L1903.88 108.97L1903.75 108.859L1903.85 108.731L1903.96 108.62L1904.06 108.492L1904.17 108.365L1904.26 108.254L1904.36 108.127L1904.47 107.999L1904.56 107.888L1904.67 107.76L1904.77 107.649L1904.88 107.522L1904.97 107.394L1905.07 107.283L1905.18 107.156L1905.28 107.028L1905.39 106.917L1905.48 106.789L1905.61 106.885L1905.75 106.98L1905.88 107.076L1906.02 107.172L1906.15 107.251L1906.29 107.346L1906.42 107.426L1906.56 107.49L1906.69 107.569L1906.83 107.633L1906.97 107.697L1907.11 107.76L1907.26 107.808L1907.4 107.872L1907.56 107.92L1907.72 107.967L1907.86 108.015L1908.02 108.047L1908.18 108.079L1908.33 108.111L1908.51 108.127L1908.67 108.158H1908.83L1909 108.174H1909.16H1909.35L1909.52 108.158L1909.68 108.127L1909.82 108.095L1909.97 108.063L1910.09 108.015L1910.2 107.951L1910.33 107.856L1910.43 107.744L1910.49 107.617L1910.54 107.474L1910.55 107.315V107.283L1910.54 107.092L1910.47 106.933L1910.39 106.821L1910.28 106.726L1910.16 106.63L1910.03 106.567L1909.89 106.503L1909.73 106.439L1909.54 106.36L1909.43 106.328L1909.3 106.296L1909.16 106.248L1909.02 106.216L1908.86 106.169L1908.7 106.137L1908.52 106.089L1908.37 106.057L1908.19 106.009L1908.03 105.978L1907.87 105.93L1907.72 105.898L1907.56 105.85L1907.41 105.803L1907.26 105.771L1907.11 105.723L1906.97 105.675L1906.83 105.627L1906.65 105.564L1906.5 105.5L1906.34 105.436L1906.18 105.373L1906.04 105.293L1905.88 105.214L1905.75 105.134L1905.61 105.054L1905.48 104.959L1905.35 104.879L1905.24 104.784L1905.13 104.672L1905.02 104.561L1904.93 104.449L1904.83 104.338L1904.75 104.227L1904.67 104.099L1904.59 103.956L1904.53 103.846L1904.48 103.718L1904.44 103.575L1904.39 103.448L1904.36 103.288L1904.32 103.145L1904.31 102.986L1904.29 102.827L1904.28 102.652V102.477V102.445V102.286L1904.29 102.127L1904.31 101.983L1904.32 101.824L1904.36 101.681L1904.39 101.538L1904.44 101.394L1904.47 101.251L1904.53 101.108L1904.59 100.964L1904.66 100.821L1904.74 100.678L1904.82 100.535L1904.91 100.407L1905.01 100.28L1905.12 100.153L1905.23 100.041L1905.34 99.9139L1905.47 99.8024L1905.58 99.7229L1905.7 99.6274L1905.83 99.5319L1905.96 99.4523L1906.1 99.3728L1906.24 99.309L1906.38 99.2295L1906.53 99.1659L1906.69 99.118L1906.84 99.0544L1906.99 99.0067L1907.11 98.9747L1907.26 98.9429L1907.4 98.9112L1907.56 98.8794L1907.7 98.8474L1907.86 98.8316L1908.02 98.8156L1908.18 98.7997L1908.33 98.7839H1908.49H1908.67H1908.84H1909.02L1909.19 98.7997L1909.36 98.8156H1909.52L1909.7 98.8316L1909.86 98.8634L1910.03 98.8794L1910.19 98.9112L1910.33 98.9429L1910.49 98.9747L1910.65 99.0067L1910.79 99.0385L1910.95 99.0862L1911.09 99.134L1911.23 99.1659L1911.39 99.2295L1911.54 99.2773L1911.68 99.3408L1911.82 99.4046L1911.98 99.4683L1912.12 99.5478L1912.25 99.6116L1912.39 99.6911L1912.53 99.7707L1912.66 99.8504L1912.8 99.9459L1912.93 100.025L1913.06 100.121L1913.18 100.216L1913.31 100.312L1913.21 100.439L1913.14 100.567L1913.04 100.694L1912.95 100.821L1912.85 100.964L1912.77 101.092L1912.68 101.219L1912.58 101.347L1912.5 101.474L1912.41 101.601L1912.31 101.729L1912.23 101.856L1912.14 101.999L1912.04 102.127L1911.95 102.254L1911.87 102.381L1911.77 102.508L1911.65 102.413L1911.5 102.333L1911.38 102.254L1911.25 102.158L1911.11 102.095L1910.98 102.015L1910.84 101.951L1910.71 101.888L1910.57 101.824L1910.44 101.76L1910.3 101.713L1910.17 101.649L1910 101.601L1909.84 101.553L1909.68 101.506L1909.52 101.474L1909.36 101.442L1909.21 101.41L1909.05 101.394L1908.89 101.378L1908.75 101.362H1908.59H1908.4L1908.22 101.394L1908.06 101.426L1907.92 101.458L1907.8 101.522L1907.68 101.585L1907.54 101.713L1907.45 101.856L1907.38 101.999L1907.37 102.158V102.19L1907.38 102.397L1907.46 102.572L1907.53 102.668L1907.64 102.779L1907.78 102.859L1907.91 102.938L1908.06 103.002L1908.24 103.066L1908.43 103.129L1908.56 103.161L1908.68 103.209L1908.83 103.241L1908.97 103.288L1909.13 103.32L1909.3 103.368L1909.48 103.416L1909.65 103.464L1909.82 103.495L1909.98 103.543L1910.16 103.591L1910.32 103.623L1910.47 103.67L1910.63 103.718L1910.77 103.766L1910.93 103.814L1911.08 103.862L1911.22 103.909L1911.39 103.972L1911.55 104.052L1911.71 104.115L1911.87 104.195L1912.01 104.274L1912.15 104.354L1912.28 104.434L1912.41 104.529L1912.53 104.609L1912.66 104.72L1912.79 104.831L1912.9 104.959L1913.01 105.07L1913.1 105.198L1913.2 105.341L1913.28 105.468L1913.36 105.612L1913.42 105.739L1913.47 105.882L1913.52 106.025L1913.55 106.169L1913.58 106.328L1913.61 106.487L1913.63 106.646L1913.64 106.821V106.996V107.028V107.203L1913.63 107.378ZM1902.51 110.561H1902.35H1902.2H1902.04H1901.88H1901.72H1901.56H1901.4H1901.25H1901.07H1900.91H1900.75H1900.6H1900.44H1900.28H1900.12H1899.96H1899.8H1899.64H1899.49H1899.33H1899.17H1899.01H1898.85H1898.69H1898.54H1898.38H1898.22H1898.06H1897.89H1897.73H1897.57H1897.41H1897.25H1897.09H1896.94H1896.78H1896.62H1896.46H1896.3H1896.14H1895.98H1895.83H1895.67H1895.51H1895.35H1895.19H1895.03H1894.86H1894.7H1894.54H1894.38H1894.23H1894.07H1893.91H1893.75H1893.59H1893.43V110.402V110.243V110.083V109.925V109.766V109.607V109.448V109.289V109.129V108.97V108.811V108.652V108.492V108.333V108.174V108.015V107.856V107.697V107.553V107.394V107.235V107.076V106.917V106.757V106.598V106.439V106.28V106.121V105.962V105.803V105.643V105.484V105.325V105.166V105.007V104.847V104.688V104.529V104.37V104.211V104.052V103.893V103.734V103.575V103.416V103.257V103.098V102.938V102.779V102.62V102.461V102.302V102.142V101.983V101.84V101.681V101.522V101.362V101.203V101.044V100.885V100.726V100.567V100.407V100.248V100.089V99.9297V99.7707V99.6116V99.4523V99.2932V99.134V98.9747H1893.59H1893.75H1893.91H1894.07H1894.23H1894.38H1894.54H1894.7H1894.86H1895.02H1895.18H1895.33H1895.49H1895.65H1895.79H1895.95H1896.11H1896.27H1896.43H1896.59H1896.74H1896.9H1897.06H1897.22H1897.38H1897.54H1897.7H1897.85H1898.01H1898.17H1898.33H1898.49H1898.65H1898.8H1898.96H1899.12H1899.28H1899.44H1899.6H1899.76H1899.91H1900.07H1900.23H1900.37H1900.53H1900.69H1900.85H1901.01H1901.17H1901.32H1901.48H1901.64H1901.8H1901.96H1902.12H1902.28H1902.43H1902.59V99.134V99.2773V99.4363V99.5956V99.7547V99.898V100.057V100.216V100.36V100.519V100.678V100.821V100.98V101.14V101.299V101.442V101.601H1902.43H1902.28H1902.12H1901.96H1901.8H1901.64H1901.5H1901.34H1901.18H1901.02H1900.86H1900.71H1900.55H1900.39H1900.23H1900.07H1899.91H1899.76H1899.6H1899.45H1899.3H1899.14H1898.98H1898.82H1898.66H1898.5H1898.35H1898.19H1898.03H1897.87H1897.71H1897.55H1897.41H1897.25H1897.09H1896.94H1896.78H1896.62H1896.46V101.76V101.92V102.079V102.238V102.397V102.54V102.699V102.859V103.018V103.177V103.336V103.495H1896.62H1896.78H1896.94H1897.09H1897.25H1897.41H1897.57H1897.73H1897.87H1898.03H1898.19H1898.35H1898.5H1898.66H1898.82H1898.98H1899.14H1899.3H1899.45H1899.61H1899.77H1899.93H1900.09H1900.25H1900.41H1900.56H1900.71H1900.86H1901.02H1901.18H1901.34H1901.5H1901.66H1901.82H1901.97V103.654V103.798V103.956V104.115V104.259V104.418V104.577V104.72V104.879V105.038V105.198V105.341V105.5V105.659V105.803V105.962H1901.82H1901.66H1901.5H1901.34H1901.18H1901.02H1900.86H1900.71H1900.56H1900.41H1900.25H1900.09H1899.93H1899.77H1899.61H1899.45H1899.3H1899.14H1898.98H1898.82H1898.66H1898.5H1898.35H1898.19H1898.03H1897.87H1897.73H1897.57H1897.41H1897.25H1897.09H1896.94H1896.78H1896.62H1896.46V106.121V106.296V106.455V106.614V106.789V106.949V107.108V107.283V107.442V107.601V107.776V107.935H1896.62H1896.78H1896.94H1897.09H1897.25H1897.41H1897.57H1897.73H1897.89H1898.06H1898.22H1898.38H1898.54H1898.69H1898.85H1899.01H1899.17H1899.33H1899.49H1899.64H1899.8H1899.96H1900.12H1900.28H1900.44H1900.6H1900.75H1900.91H1901.07H1901.25H1901.4H1901.56H1901.72H1901.88H1902.04H1902.2H1902.35H1902.51H1902.67V108.095V108.238V108.397V108.556V108.715V108.859V109.018V109.177V109.32V109.479V109.639V109.782V109.94V110.099V110.258V110.402V110.561H1902.51ZM1890.94 110.561H1890.78H1890.62H1890.44H1890.29H1890.13H1889.97H1889.81H1889.65H1889.48H1889.32H1889.16H1889H1888.84H1888.69H1888.51H1888.35H1888.19H1888.04V110.402V110.243V110.083V109.924V109.764V109.605V109.446V109.286V109.127V108.968V108.809V108.649V108.49V108.331V108.171V108.012V107.852V107.693V107.534V107.375V107.215V107.056V106.896V106.737V106.578V106.419V106.259V106.1V105.94V105.781V105.622V105.463V105.304V105.144V104.984V104.825V104.666V104.507V104.347V104.187V104.028V103.869V103.71L1887.96 103.837L1887.86 103.981L1887.78 104.109L1887.69 104.236L1887.61 104.379L1887.51 104.507L1887.43 104.634L1887.35 104.778L1887.26 104.905L1887.18 105.033L1887.08 105.16L1887.01 105.304L1886.91 105.432L1886.83 105.559L1886.75 105.702L1886.66 105.831L1886.58 105.958L1886.48 106.101L1886.4 106.229L1886.31 106.356L1886.23 106.5L1886.15 106.628L1886.05 106.755L1885.98 106.898L1885.88 107.026L1885.8 107.154L1885.71 107.281L1885.63 107.424L1885.55 107.552L1885.45 107.68L1885.37 107.823L1885.28 107.95L1885.2 108.078L1885.1 108.222L1885.02 108.349H1884.96L1884.87 108.206L1884.79 108.078L1884.69 107.934L1884.61 107.807L1884.52 107.664L1884.44 107.536L1884.34 107.392L1884.26 107.265L1884.17 107.122L1884.09 106.994L1883.99 106.85L1883.92 106.723L1883.82 106.58L1883.74 106.452L1883.65 106.308L1883.57 106.181L1883.47 106.038L1883.38 105.91L1883.3 105.766L1883.2 105.639L1883.12 105.495L1883.03 105.368L1882.95 105.224L1882.85 105.097L1882.77 104.953L1882.68 104.826L1882.6 104.683L1882.5 104.554L1882.43 104.411L1882.33 104.284L1882.25 104.14L1882.16 104.013L1882.08 103.869L1881.98 103.742V103.901V104.06V104.219V104.379V104.538V104.698V104.857V105.016V105.176V105.335V105.479V105.638V105.797V105.956V106.116V106.275V106.435V106.594V106.753V106.912V107.072V107.231V107.391V107.55V107.709V107.868V108.028V108.187V108.347V108.506V108.665V108.825V108.968V109.127V109.286V109.446V109.605V109.764V109.924V110.083V110.243V110.402V110.561H1881.82H1881.66H1881.51H1881.35H1881.19H1881.03H1880.87H1880.71H1880.56H1880.4H1880.24H1880.08H1879.92H1879.76H1879.6H1879.45H1879.29H1879.13H1878.97V110.402V110.243V110.083V109.925V109.766V109.607V109.448V109.289V109.129V108.97V108.811V108.652V108.492V108.333V108.174V108.015V107.856V107.697V107.553V107.394V107.235V107.076V106.917V106.757V106.598V106.439V106.28V106.121V105.962V105.803V105.643V105.484V105.325V105.166V105.007V104.847V104.688V104.529V104.37V104.211V104.052V103.893V103.734V103.575V103.416V103.257V103.098V102.938V102.779V102.62V102.461V102.302V102.142V101.983V101.84V101.681V101.522V101.362V101.203V101.044V100.885V100.726V100.567V100.407V100.248V100.089V99.9297V99.7707V99.6116V99.4523V99.2932V99.134V98.9747H1879.13H1879.29H1879.43H1879.59H1879.75H1879.91H1880.05H1880.21H1880.37H1880.52H1880.67H1880.82H1880.98H1881.14H1881.28H1881.44H1881.6H1881.76H1881.9H1882.06H1882.22L1882.3 99.1022L1882.38 99.2453L1882.47 99.3717L1882.55 99.515L1882.63 99.6423L1882.71 99.7858L1882.79 99.912L1882.88 100.055L1882.96 100.183L1883.04 100.31L1883.12 100.452L1883.2 100.58L1883.3 100.723L1883.38 100.85L1883.46 100.993L1883.53 101.12L1883.63 101.247L1883.71 101.39L1883.79 101.517L1883.87 101.66L1883.95 101.788L1884.04 101.93L1884.12 102.057L1884.2 102.2L1884.28 102.327L1884.36 102.454L1884.45 102.597L1884.53 102.725L1884.61 102.868L1884.69 102.995L1884.77 103.138L1884.87 103.265L1884.95 103.407L1885.02 103.535L1885.1 103.407L1885.18 103.265L1885.28 103.138L1885.36 102.995L1885.44 102.868L1885.52 102.725L1885.61 102.597L1885.69 102.454L1885.77 102.327L1885.85 102.2L1885.94 102.057L1886.02 101.93L1886.1 101.788L1886.18 101.66L1886.28 101.517L1886.36 101.39L1886.44 101.247L1886.51 101.12L1886.59 100.993L1886.69 100.85L1886.77 100.723L1886.85 100.58L1886.93 100.452L1887.02 100.31L1887.1 100.183L1887.18 100.055L1887.26 99.912L1887.35 99.7858L1887.43 99.6423L1887.51 99.515L1887.59 99.3717L1887.69 99.2453L1887.77 99.1022L1887.85 98.9747H1888H1888.16H1888.3H1888.46H1888.62H1888.78H1888.92H1889.08H1889.24H1889.4H1889.54H1889.7H1889.86H1890.02H1890.16H1890.32H1890.48H1890.63H1890.78H1890.94H1891.09V99.134V99.2932V99.4523V99.6116V99.7707V99.9297V100.089V100.248V100.407V100.567V100.726V100.885V101.044V101.203V101.362V101.522V101.681V101.84V101.983V102.142V102.302V102.461V102.62V102.779V102.938V103.098V103.257V103.416V103.575V103.734V103.893V104.052V104.211V104.37V104.529V104.688V104.847V105.007V105.166V105.325V105.484V105.643V105.803V105.962V106.121V106.28V106.439V106.598V106.757V106.917V107.076V107.235V107.394V107.553V107.697V107.856V108.015V108.174V108.333V108.492V108.652V108.811V108.97V109.129V109.289V109.448V109.607V109.766V109.925V110.083V110.243V110.402V110.561H1890.94ZM1872.55 105.787L1872.5 105.642L1872.44 105.483L1872.37 105.34L1872.33 105.196L1872.26 105.052L1872.2 104.893L1872.15 104.749L1872.09 104.606L1872.03 104.463L1871.98 104.319L1871.91 104.159L1871.87 104.016L1871.8 103.872L1871.74 103.729L1871.69 103.585L1871.63 103.425L1871.57 103.282L1871.52 103.139L1871.45 102.995L1871.39 102.835L1871.34 102.691L1871.28 102.548L1871.22 102.691L1871.17 102.835L1871.11 102.995L1871.04 103.139L1871 103.282L1870.93 103.425L1870.87 103.585L1870.81 103.729L1870.76 103.872L1870.69 104.016L1870.63 104.159L1870.58 104.319L1870.52 104.463L1870.46 104.606L1870.41 104.749L1870.35 104.893L1870.28 105.052L1870.22 105.196L1870.17 105.34L1870.11 105.483L1870.04 105.642L1870 105.787L1869.93 105.93H1870.09H1870.25H1870.41H1870.57H1870.73H1870.88H1871.04H1871.2H1871.34H1871.5H1871.66H1871.82H1871.98H1872.14H1872.29H1872.45H1872.61L1872.55 105.787ZM1877.53 110.561H1877.37H1877.22H1877.07H1876.91H1876.75H1876.59H1876.45H1876.29H1876.13H1875.97H1875.81H1875.65H1875.51H1875.35H1875.2H1875.04H1874.88H1874.74H1874.58H1874.42L1874.36 110.418L1874.31 110.274L1874.24 110.131L1874.18 109.972L1874.13 109.83L1874.07 109.686L1874.01 109.543L1873.96 109.4L1873.9 109.257L1873.83 109.113L1873.78 108.97L1873.72 108.811L1873.66 108.668L1873.61 108.524L1873.55 108.381H1873.39H1873.23H1873.07H1872.91H1872.77H1872.61H1872.45H1872.29H1872.14H1871.98H1871.82H1871.66H1871.5H1871.34H1871.2H1871.04H1870.88H1870.73H1870.57H1870.41H1870.25H1870.09H1869.93H1869.78H1869.63H1869.47H1869.32H1869.16H1869L1868.94 108.524L1868.89 108.668L1868.82 108.811L1868.76 108.97L1868.71 109.113L1868.65 109.257L1868.59 109.4L1868.54 109.543L1868.48 109.686L1868.41 109.83L1868.36 109.972L1868.3 110.131L1868.24 110.274L1868.19 110.418L1868.13 110.561H1867.97H1867.81H1867.65H1867.49H1867.34H1867.16H1867H1866.84H1866.69H1866.53H1866.37H1866.21H1866.05H1865.89H1865.73H1865.56H1865.4H1865.24H1865.08H1864.93L1864.99 110.418L1865.05 110.274L1865.12 110.131L1865.18 109.972L1865.23 109.83L1865.29 109.686L1865.35 109.543L1865.42 109.4L1865.48 109.257L1865.54 109.097L1865.61 108.954L1865.67 108.811L1865.72 108.668L1865.78 108.524L1865.85 108.381L1865.91 108.222L1865.97 108.079L1866.04 107.935L1866.1 107.792L1866.16 107.649L1866.21 107.506L1866.27 107.346L1866.34 107.203L1866.4 107.06L1866.46 106.917L1866.53 106.773L1866.59 106.63L1866.65 106.471L1866.7 106.328L1866.76 106.185L1866.83 106.041L1866.89 105.898L1866.95 105.755L1867.02 105.596L1867.08 105.452L1867.14 105.309L1867.19 105.166L1867.26 105.023L1867.32 104.879L1867.38 104.72L1867.45 104.577L1867.51 104.434L1867.57 104.29L1867.64 104.147L1867.68 104.004L1867.75 103.862L1867.81 103.702L1867.87 103.559L1867.94 103.416L1868 103.272L1868.06 103.129L1868.13 102.986L1868.17 102.827L1868.24 102.684L1868.3 102.54L1868.36 102.397L1868.43 102.254L1868.49 102.111L1868.56 101.951L1868.62 101.808L1868.67 101.665L1868.73 101.522L1868.79 101.378L1868.86 101.235L1868.92 101.076L1868.98 100.933L1869.05 100.789L1869.11 100.646L1869.16 100.503L1869.22 100.36L1869.28 100.201L1869.35 100.057L1869.41 99.9139L1869.47 99.7707L1869.54 99.6274L1869.6 99.4843L1869.65 99.325L1869.71 99.1817L1869.78 99.0385L1869.84 98.8952H1870H1870.14H1870.3H1870.46H1870.62H1870.76H1870.92H1871.07H1871.23H1871.38H1871.53H1871.69H1871.85H1871.99H1872.15H1872.31H1872.47H1872.61H1872.77L1872.83 99.0385L1872.9 99.1817L1872.96 99.325L1873.02 99.4843L1873.07 99.6274L1873.13 99.7707L1873.2 99.9139L1873.26 100.057L1873.33 100.201L1873.39 100.36L1873.45 100.503L1873.52 100.646L1873.56 100.789L1873.63 100.933L1873.69 101.076L1873.75 101.235L1873.82 101.378L1873.88 101.522L1873.94 101.665L1874.01 101.808L1874.05 101.951L1874.12 102.111L1874.18 102.254L1874.24 102.397L1874.31 102.54L1874.37 102.684L1874.43 102.827L1874.5 102.986L1874.55 103.129L1874.61 103.272L1874.67 103.416L1874.74 103.559L1874.8 103.702L1874.86 103.862L1874.93 104.004L1874.99 104.147L1875.04 104.29L1875.1 104.434L1875.16 104.577L1875.23 104.72L1875.29 104.879L1875.35 105.023L1875.42 105.166L1875.48 105.309L1875.53 105.452L1875.59 105.596L1875.65 105.755L1875.72 105.898L1875.78 106.041L1875.85 106.185L1875.91 106.328L1875.97 106.471L1876.02 106.63L1876.08 106.773L1876.15 106.917L1876.21 107.06L1876.27 107.203L1876.34 107.346L1876.4 107.506L1876.46 107.649L1876.51 107.792L1876.57 107.935L1876.64 108.079L1876.7 108.222L1876.76 108.381L1876.83 108.524L1876.89 108.668L1876.95 108.811L1877 108.954L1877.07 109.097L1877.13 109.257L1877.19 109.4L1877.26 109.543L1877.32 109.686L1877.38 109.83L1877.45 109.972L1877.49 110.131L1877.56 110.274L1877.62 110.418L1877.68 110.561H1877.53ZM1863.64 109.081L1863.51 109.177L1863.4 109.257L1863.28 109.352L1863.15 109.432L1863.02 109.527L1862.9 109.607L1862.77 109.686L1862.63 109.766L1862.48 109.846L1862.34 109.925L1862.2 109.988L1862.06 110.067L1861.9 110.131L1861.76 110.195L1861.6 110.258L1861.46 110.322L1861.31 110.37L1861.17 110.418L1861.03 110.466L1860.87 110.513L1860.73 110.561L1860.57 110.593L1860.42 110.625L1860.27 110.656L1860.11 110.688L1859.95 110.704L1859.78 110.72L1859.62 110.736L1859.44 110.752L1859.28 110.768L1859.11 110.784H1858.94H1858.76H1858.59H1858.43L1858.27 110.768L1858.1 110.752L1857.94 110.736L1857.78 110.72L1857.62 110.704L1857.46 110.672L1857.3 110.64L1857.16 110.609L1857 110.577L1856.86 110.529L1856.7 110.497L1856.56 110.449L1856.42 110.386L1856.27 110.338L1856.12 110.274L1855.97 110.211L1855.83 110.147L1855.69 110.083L1855.54 110.004L1855.42 109.925L1855.28 109.846L1855.15 109.766L1855.02 109.686L1854.89 109.591L1854.77 109.495L1854.64 109.4L1854.53 109.304L1854.42 109.209L1854.31 109.097L1854.2 109.002L1854.09 108.891L1853.98 108.779L1853.88 108.668L1853.79 108.54L1853.69 108.429L1853.61 108.302L1853.52 108.174L1853.44 108.047L1853.36 107.92L1853.28 107.776L1853.2 107.649L1853.14 107.506L1853.07 107.362L1853.01 107.219L1852.95 107.076L1852.9 106.949L1852.83 106.805L1852.8 106.662L1852.76 106.519L1852.72 106.36L1852.68 106.216L1852.64 106.057L1852.63 105.914L1852.6 105.755L1852.58 105.612L1852.56 105.452L1852.55 105.293L1852.53 105.134V104.959V104.8V104.768V104.609L1852.55 104.434V104.274L1852.56 104.115L1852.58 103.94L1852.61 103.782L1852.63 103.623L1852.66 103.479L1852.71 103.32L1852.74 103.161L1852.79 103.018L1852.83 102.859L1852.88 102.715L1852.95 102.556L1853.01 102.413L1853.07 102.27L1853.14 102.127L1853.2 101.983L1853.28 101.84L1853.36 101.713L1853.44 101.585L1853.52 101.458L1853.6 101.331L1853.69 101.203L1853.79 101.076L1853.88 100.949L1853.98 100.837L1854.09 100.726L1854.18 100.614L1854.29 100.503L1854.4 100.391L1854.51 100.296L1854.64 100.185L1854.75 100.089L1854.88 99.9935L1855.01 99.9139L1855.13 99.8184L1855.26 99.7389L1855.39 99.6593L1855.53 99.5796L1855.67 99.5001L1855.81 99.4205L1855.96 99.3568L1856.1 99.2932L1856.26 99.2135L1856.38 99.1659L1856.54 99.118L1856.69 99.0544L1856.83 99.0225L1856.97 98.9747L1857.13 98.9429L1857.27 98.8952L1857.43 98.8634L1857.59 98.8474L1857.75 98.8156L1857.91 98.7997L1858.06 98.7839L1858.22 98.7679L1858.38 98.7519H1858.56H1858.71H1858.89H1859.06L1859.24 98.7679L1859.41 98.7839H1859.57L1859.73 98.7997L1859.9 98.8316L1860.04 98.8474L1860.2 98.8794L1860.36 98.9112L1860.5 98.9429L1860.65 98.9747L1860.79 99.0067L1860.93 99.0544L1861.07 99.0862L1861.2 99.134L1861.34 99.1817L1861.49 99.2453L1861.63 99.309L1861.77 99.3728L1861.91 99.4523L1862.06 99.5161L1862.18 99.5956L1862.33 99.6751L1862.45 99.7547L1862.6 99.8344L1862.72 99.9297L1862.85 100.009L1862.98 100.105L1863.1 100.201L1863.23 100.312L1863.36 100.407L1863.26 100.535L1863.15 100.646L1863.06 100.773L1862.94 100.901L1862.85 101.028L1862.75 101.14L1862.64 101.267L1862.55 101.394L1862.45 101.506L1862.34 101.633L1862.25 101.76L1862.14 101.888L1862.04 101.999L1861.95 102.127L1861.84 102.254L1861.74 102.381L1861.63 102.493L1861.53 102.62L1861.41 102.524L1861.28 102.413L1861.15 102.333L1861.03 102.238L1860.9 102.158L1860.77 102.079L1860.65 101.999L1860.5 101.92L1860.38 101.856L1860.25 101.792L1860.12 101.744L1859.98 101.697L1859.84 101.649L1859.7 101.617L1859.54 101.585L1859.38 101.553L1859.22 101.538L1859.05 101.522L1858.87 101.506H1858.7H1858.54L1858.38 101.522L1858.24 101.538L1858.08 101.569L1857.94 101.601L1857.79 101.649L1857.65 101.697L1857.51 101.76L1857.37 101.824L1857.24 101.904L1857.11 101.983L1856.99 102.063L1856.88 102.158L1856.76 102.254L1856.65 102.349L1856.56 102.461L1856.45 102.572L1856.35 102.699L1856.27 102.811L1856.19 102.938L1856.12 103.082L1856.04 103.209L1855.97 103.352L1855.92 103.495L1855.86 103.639L1855.81 103.798L1855.78 103.956L1855.75 104.099L1855.72 104.274L1855.7 104.434L1855.69 104.593V104.768V104.8V104.959L1855.7 105.118L1855.72 105.261L1855.73 105.421L1855.77 105.564L1855.8 105.707L1855.83 105.85L1855.88 105.993L1855.92 106.121L1855.99 106.28L1856.05 106.423L1856.13 106.567L1856.21 106.694L1856.29 106.821L1856.38 106.949L1856.48 107.06L1856.59 107.172L1856.69 107.283L1856.8 107.378L1856.92 107.474L1857.05 107.569L1857.18 107.649L1857.3 107.728L1857.45 107.792L1857.59 107.856L1857.73 107.92L1857.89 107.967L1858.05 108.015L1858.21 108.047L1858.37 108.079L1858.52 108.095L1858.7 108.111H1858.87H1859.06L1859.24 108.095L1859.41 108.079L1859.57 108.063L1859.73 108.031L1859.89 107.999L1860.04 107.951L1860.19 107.92L1860.33 107.856L1860.46 107.792L1860.6 107.728L1860.71 107.665L1860.84 107.585V107.426V107.267V107.108V106.949V106.773V106.614V106.455V106.296V106.137H1860.68H1860.54H1860.38H1860.22H1860.06H1859.92H1859.76H1859.6H1859.44H1859.3H1859.14H1858.98H1858.82H1858.68H1858.52V105.978V105.834V105.675V105.516V105.357V105.214V105.054V104.895V104.736V104.593V104.434V104.274V104.115V103.972V103.814H1858.68H1858.84H1859H1859.16H1859.32H1859.47H1859.63H1859.79H1859.95H1860.11H1860.27H1860.42H1860.58H1860.74H1860.9H1861.06H1861.22H1861.38H1861.53H1861.69H1861.85H1862.01H1862.17H1862.33H1862.48H1862.64H1862.8H1862.96H1863.12H1863.28H1863.44H1863.59H1863.75V103.972V104.131V104.29V104.434V104.593V104.752V104.911V105.07V105.23V105.373V105.532V105.691V105.85V106.009V106.169V106.328V106.471V106.63V106.789V106.949V107.108V107.267V107.426V107.569V107.728V107.888V108.047V108.206V108.365V108.509V108.668V108.827V108.986L1863.64 109.081Z" fill="#17161B"/>
<path d="M1858.55 72.7597H1865.41V67.4472H1858.55V56.6016H1865.69V51.2891H1852.71V89.6304H1865.8V84.3176H1858.55V72.7597Z" fill="#17161B"/>
<path d="M1907.74 73.9106V82.5649C1907.74 84.0987 1907.03 84.8103 1905.56 84.8103H1904.47C1902.94 84.8103 1902.23 84.0987 1902.23 82.5649V58.3543C1902.23 56.8207 1902.94 56.1091 1904.47 56.1091H1905.45C1906.92 56.1091 1907.63 56.8207 1907.63 58.3543V65.859H1913.35V58.0257C1913.35 53.2609 1911.06 50.9602 1906.32 50.9602H1903.49C1898.75 50.9602 1896.4 53.3152 1896.4 58.0809V82.8383C1896.4 87.6042 1898.75 89.959 1903.49 89.959H1906.38C1911.12 89.959 1913.46 87.6042 1913.46 82.8383V73.9106H1907.74Z" fill="#17161B"/>
<path d="M1887.49 89.6304H1893.32V51.2889H1887.49V89.6304Z" fill="#17161B"/>
<path d="M1879.02 68.3234C1879.02 69.8572 1878.31 70.5697 1876.84 70.5697H1874.44V56.4377H1876.84C1878.31 56.4377 1879.02 57.1495 1879.02 58.683V68.3234ZM1877.77 51.2889H1868.61V89.6304H1874.44V75.7175H1877.77C1882.51 75.7175 1884.85 73.3627 1884.85 68.5979V58.4095C1884.85 53.6438 1882.51 51.2889 1877.77 51.2889Z" fill="#17161B"/>
<path fill-rule="evenodd" clip-rule="evenodd" d="M1866.47 124.299H1899.86L1882.82 129.919L1866.47 124.299Z" fill="#17161B"/>
<path d="M1962.28 102.48C1960.23 102.48 1958.41 102.133 1956.84 101.44C1955.27 100.72 1954.03 99.7067 1953.12 98.4C1952.21 97.0667 1951.75 95.4533 1951.72 93.56H1957.12C1957.17 94.8667 1957.64 95.9733 1958.52 96.88C1959.43 97.76 1960.67 98.2 1962.24 98.2C1963.6 98.2 1964.68 97.88 1965.48 97.24C1966.28 96.5733 1966.68 95.6933 1966.68 94.6C1966.68 93.4533 1966.32 92.56 1965.6 91.92C1964.91 91.28 1963.97 90.76 1962.8 90.36C1961.63 89.96 1960.37 89.5333 1959.04 89.08C1956.88 88.3333 1955.23 87.3733 1954.08 86.2C1952.96 85.0267 1952.4 83.4667 1952.4 81.52C1952.37 79.8667 1952.76 78.4533 1953.56 77.28C1954.39 76.08 1955.51 75.16 1956.92 74.52C1958.33 73.8533 1959.96 73.52 1961.8 73.52C1963.67 73.52 1965.31 73.8533 1966.72 74.52C1968.16 75.1867 1969.28 76.12 1970.08 77.32C1970.91 78.52 1971.35 79.9467 1971.4 81.6H1965.92C1965.89 80.6133 1965.51 79.7467 1964.76 79C1964.04 78.2267 1963.03 77.84 1961.72 77.84C1960.6 77.8133 1959.65 78.0933 1958.88 78.68C1958.13 79.24 1957.76 80.0667 1957.76 81.16C1957.76 82.0933 1958.05 82.84 1958.64 83.4C1959.23 83.9333 1960.03 84.3867 1961.04 84.76C1962.05 85.1333 1963.21 85.5333 1964.52 85.96C1965.91 86.44 1967.17 87 1968.32 87.64C1969.47 88.28 1970.39 89.1333 1971.08 90.2C1971.77 91.24 1972.12 92.5867 1972.12 94.24C1972.12 95.7067 1971.75 97.0667 1971 98.32C1970.25 99.5733 1969.15 100.587 1967.68 101.36C1966.21 102.107 1964.41 102.48 1962.28 102.48ZM1982.76 102V78.12H1974.6V74H1996.08V78.12H1987.88V102H1982.76ZM2011.97 102.48C2009.17 102.48 2006.72 101.867 2004.61 100.64C2002.53 99.4133 2000.89 97.72 1999.69 95.56C1998.52 93.3733 1997.93 90.8533 1997.93 88C1997.93 85.1467 1998.52 82.64 1999.69 80.48C2000.89 78.2933 2002.53 76.5867 2004.61 75.36C2006.72 74.1333 2009.17 73.52 2011.97 73.52C2014.75 73.52 2017.19 74.1333 2019.29 75.36C2021.4 76.5867 2023.04 78.2933 2024.21 80.48C2025.39 82.64 2025.97 85.1467 2025.97 88C2025.97 90.8533 2025.39 93.3733 2024.21 95.56C2023.04 97.72 2021.4 99.4133 2019.29 100.64C2017.19 101.867 2014.75 102.48 2011.97 102.48ZM2011.97 97.88C2014.64 97.88 2016.76 97 2018.33 95.24C2019.93 93.48 2020.73 91.0667 2020.73 88C2020.73 84.9333 2019.93 82.52 2018.33 80.76C2016.76 79 2014.64 78.12 2011.97 78.12C2009.31 78.12 2007.17 79 2005.57 80.76C2003.97 82.52 2003.17 84.9333 2003.17 88C2003.17 91.0667 2003.97 93.48 2005.57 95.24C2007.17 97 2009.31 97.88 2011.97 97.88ZM2030.49 102V74H2040.77C2043.01 74 2044.85 74.3867 2046.29 75.16C2047.76 75.9067 2048.85 76.9333 2049.57 78.24C2050.29 79.52 2050.65 80.9467 2050.65 82.52C2050.65 84.2267 2050.2 85.7867 2049.29 87.2C2048.41 88.6133 2047.03 89.64 2045.13 90.28L2050.93 102H2045.05L2039.85 90.96H2035.61V102H2030.49ZM2035.61 87.2H2040.45C2042.16 87.2 2043.41 86.7867 2044.21 85.96C2045.01 85.1333 2045.41 84.04 2045.41 82.68C2045.41 81.3467 2045.01 80.28 2044.21 79.48C2043.44 78.68 2042.17 78.28 2040.41 78.28H2035.61V87.2ZM2055.42 102V74H2073.7V78.12H2060.54V85.8H2072.5V89.8H2060.54V97.88H2073.7V102H2055.42Z" fill="#F2F3F5"/>
</svg>
