<svg width="64" height="64" viewBox="0 0 64 64" fill="none" xmlns="http://www.w3.org/2000/svg">
<g clip-path="url(#clip0)">
<path fill-rule="evenodd" clip-rule="evenodd" d="M32.6332 27.4257V38.4018H50.7822C50.0452 43.1133 45.2936 52.202 32.6332 52.202C21.709 52.202 12.7963 43.1535 12.7963 32.0014C12.7963 20.8505 21.709 11.8019 32.6332 11.8019C38.8459 11.8019 43.0093 14.4535 45.3857 16.7378L54.074 8.37432C48.4991 3.15142 41.2742 -0.000976562 32.6379 -0.000976562C14.9495 -0.000976562 0.636719 14.3118 0.636719 32.0002C0.636719 49.6886 14.9495 64.0014 32.6379 64.0014C51.1023 64.0014 63.3635 51.0138 63.3635 32.7361C63.3635 30.6361 63.1391 29.0368 62.8627 27.4364L32.6379 27.4234L32.6332 27.4258V27.4257Z" fill="white"/>
</g>
<defs>
<clipPath id="clip0">
<rect width="64" height="64" fill="white"/>
</clipPath>
</defs>
</svg>
