<svg width="315" height="72" viewBox="0 0 315 72" fill="none" xmlns="http://www.w3.org/2000/svg">
<path d="M7 7.69971H17.9V63.1997H7V7.69971Z" fill="white"/>
<path d="M123.5 6.7998C109.5 6.7998 97.8001 16.8998 95.2001 30.0998H78.8001V17.6998H98.0001V7.6998H68.2001V63.0998H78.7001V39.7998C78.7001 39.7998 90.5001 39.6998 94.8001 39.7998C97.0001 53.6998 109 64.3998 123.4 64.3998C139.4 64.3998 152.2 51.4998 152.2 35.5998C152.2 19.6998 139.4 6.7998 123.5 6.7998ZM123.5 53.8998C113.3 53.8998 105.2 45.5998 105.2 35.5998C105.2 25.3998 113.4 17.2998 123.5 17.2998C133.6 17.2998 141.8 25.5998 141.8 35.5998C141.9 45.5998 133.6 53.8998 123.5 53.8998ZM65.0001 63.1998H54.8001L31.7001 26.8998V63.2998H21.1001V7.6998H31.4001L54.0001 42.5998V7.6998H65.0001" fill="white"/>
<path d="M302.4 35.7C300 33.6 298.8 33.2 292 31.3C283.8 29 281.3 26.7 281.3 21.7C281.3 16.3 285.4 12.4 290.6 12.4C296 12.4 300 16.4 300.4 22.3V22.5H306.7V22.3C306.7 13.7 299.9 7 291.1 7C283.9 7 278.2 10.4 276 16.3C274.1 13.1 271.2 10.6 267.5 9.1C264.9 8 260.6 7.5 254.7 7.5H240.3V63.3H246.4V13H255.9C261 13 264 13.5 266.6 15C270.1 17.1 272.5 21.2 272.5 25.3C272.5 30.7 269.5 34.9 264.4 36.7C261.8 37.7 260 37.9 251.7 37.9H251.2L270.2 63.1L270.3 63.2H277.8L262.4 42.7C270.3 42.1 276.2 37.3 278 30.5C278.4 31 278.7 31.4 279.1 31.8C281.4 34.1 283.7 35.2 289.6 36.7C298 38.8 301.8 42.3 301.8 48.1C301.8 54 296.8 58.3 291 58.3C284.6 58.3 280.5 54.1 279.7 47V46.8H273.3V47C273.8 57.1 280.7 63.8 290.8 63.8C300.2 63.8 307.9 57.1 307.9 47.9C308 43.3 305.9 38.7 302.4 35.7ZM230.8 7.7L199.1 63.2H206.1L214.2 49H230.9V63.2H236.9V7.7H230.8ZM217.6 43.1L230.8 19.9V43.1H217.6ZM220.9 7.7H219.6L193.8 52.9V7.7H188.5L161.6 54.7L161.7 7.7H156V63.2H163.9L187.8 21.4V63.2H195L226.6 7.7" fill="white"/>
</svg>
