<svg width="361" height="51" viewBox="0 0 361 51" fill="none" xmlns="http://www.w3.org/2000/svg">
<path fill-rule="evenodd" clip-rule="evenodd" d="M53.6344 0H81.1266C81.2672 0 81.4078 0.140625 81.5484 0.421875V9.45703C81.5484 9.57422 81.4078 9.71484 81.1266 9.87891H53.6344C53.4938 9.87891 53.3531 9.73828 53.2125 9.45703V0.421875C53.2125 0.28125 53.3531 0.140625 53.6344 0ZM53.6344 20.25H81.1266C81.2672 20.25 81.4078 20.3906 81.5484 20.6719V29.707C81.5484 29.8477 81.4078 29.9883 81.1266 30.1289H53.6344C53.4938 30.1289 53.3531 29.9883 53.2125 29.707V20.6719C53.2125 20.5547 53.3531 20.4141 53.6344 20.25ZM53.6344 40.6758H81.1266C81.2672 40.6758 81.4078 40.8047 81.5484 41.0625V50.0977C81.5484 50.2383 81.4078 50.3789 81.1266 50.5195H53.6344C53.4938 50.5195 53.3531 50.3789 53.2125 50.0977V41.0625C53.2125 40.9453 53.3531 40.8164 53.6344 40.6758ZM24.5039 0.0351562H33.7852C33.9258 0.0351562 34.0664 0.175781 34.207 0.457031V50.0977C34.207 50.2383 34.0664 50.3789 33.7852 50.5195H25.1719C24.4922 50.5195 22.8516 48.5156 20.25 44.5078C7.14844 26.8359 0.398438 17.5312 0 16.5938V1.40625C0.0234375 1.21875 0.117188 1.125 0.28125 1.125C15.6094 22.0312 23.4961 32.707 23.9414 33.1523H24.082V0.457031C24.082 0.316406 24.2227 0.175781 24.5039 0.0351562ZM112.155 0.0351562H100.8C100.636 0.0351562 100.542 0.128906 100.519 0.316406L135.816 46.4062C137.62 49.1484 138.804 50.5195 139.366 50.5195H151.003V50.3789C151.003 50.0977 144.441 41.5195 131.316 24.6445C131.995 23.5195 136.273 17.8711 144.148 7.69922C147.898 2.96484 149.773 0.410156 149.773 0.0351562H138.136C137.925 0.0351562 137.749 0.0820312 137.609 0.175781L125.128 16.3125C125.058 16.3125 122.468 12.9375 117.359 6.1875C114.546 2.08594 112.812 0.0351562 112.155 0.0351562ZM170.395 0.210938H195.321C195.462 0.210938 195.602 0.351562 195.743 0.632812V9.63281C195.743 9.75 195.602 9.87891 195.321 10.0195H179.923V50.0977C179.923 50.2383 179.782 50.3789 179.501 50.5195H170.395C170.255 50.5195 170.114 50.3789 169.973 50.0977V0.632812C169.973 0.492188 170.114 0.351562 170.395 0.210938ZM232.573 0.316406C232.573 0.128906 232.432 0.0351562 232.151 0.0351562C227.674 0.0351562 222.975 1.92188 218.053 5.69531C212.241 11.1094 209.334 17.5898 209.334 25.1367C209.334 34.8164 213.635 42.293 222.237 47.5664C225.94 49.5352 230.053 50.5195 234.577 50.5195C245.17 50.5195 252.905 45.375 257.78 35.0859C258.952 31.6875 259.538 28.1484 259.538 24.4688V24.2227C259.538 22.2539 259.362 21.2695 259.01 21.2695H232.959C232.842 21.2695 232.713 21.3984 232.573 21.6562V30.375C232.573 30.5156 232.702 30.6562 232.959 30.7969H248.92V30.9375C248.733 32.7422 247.174 35.0625 244.245 37.8984C241.573 39.8672 238.35 40.8516 234.577 40.8516H234.436C226.538 40.8516 221.569 36.9609 219.53 29.1797C219.366 28.2188 219.284 27.1875 219.284 26.0859V24.3281C219.284 17.6484 222.588 12.9609 229.198 10.2656C231.448 9.86719 232.573 9.55078 232.573 9.31641V0.316406ZM278.93 0H306.422C306.562 0 306.703 0.140625 306.844 0.421875V9.45703C306.844 9.57422 306.703 9.71484 306.422 9.87891H278.93C278.789 9.87891 278.648 9.73828 278.508 9.45703V0.421875C278.508 0.28125 278.648 0.140625 278.93 0ZM278.93 20.25H306.422C306.562 20.25 306.703 20.3906 306.844 20.6719V29.707C306.844 29.8477 306.703 29.9883 306.422 30.1289H278.93C278.789 30.1289 278.648 29.9883 278.508 29.707V20.6719C278.508 20.5547 278.648 20.4141 278.93 20.25ZM278.93 40.6758H306.422C306.562 40.6758 306.703 40.8047 306.844 41.0625V50.0977C306.844 50.2383 306.703 50.3789 306.422 50.5195H278.93C278.789 50.5195 278.648 50.3789 278.508 50.0977V41.0625C278.508 40.9453 278.648 40.8164 278.93 40.6758ZM359.599 0.0351562H350.318C350.037 0.175781 349.896 0.316406 349.896 0.457031V33.1523H349.755C349.31 32.707 341.423 22.0312 326.095 1.125C325.931 1.125 325.837 1.21875 325.814 1.40625V16.5938C326.212 17.5312 332.962 26.8359 346.064 44.5078C348.666 48.5156 350.306 50.5195 350.986 50.5195H359.599C359.88 50.3789 360.021 50.2383 360.021 50.0977V0.457031C359.88 0.175781 359.74 0.0351562 359.599 0.0351562ZM0 42.0806C0 41.8058 0.221671 41.5826 0.496402 41.5806L8.4064 41.5236C8.68394 41.5216 8.91 41.7461 8.91 42.0236V50.0051C8.91 50.1457 8.78625 50.2863 8.53875 50.427H0.37125C0.2475 50.427 0.12375 50.2863 0 50.0051V42.0806ZM119.807 42.1608C119.857 42.095 119.81 42 119.727 42H107.867C107.711 42 107.563 42.0741 107.469 42.1973C103.156 47.8108 101 50.6982 101 50.8594C101 50.8873 101.023 50.91 101.051 50.91H112.8C112.883 50.91 112.966 50.8905 113.035 50.8444C113.683 50.4149 114.734 49.0956 116.188 46.8867L119.807 42.1608ZM325.81 42.0806C325.81 41.8058 326.032 41.5826 326.306 41.5806L334.216 41.5236C334.494 41.5216 334.72 41.7461 334.72 42.0236V50.0051C334.72 50.1457 334.596 50.2863 334.349 50.427H326.181C326.057 50.427 325.934 50.2863 325.81 50.0051V42.0806Z" fill="white"/>
</svg>
