<svg width="1370" height="104" viewBox="0 0 1370 104" fill="none" xmlns="http://www.w3.org/2000/svg">
<path d="M0.15625 0.21875H20.9688V21.0312H41.7812V41.8438H20.9688V104H0.15625V0.21875ZM83.4062 0.21875H104.219V104H83.4062V41.8438H62.5938V21.0312H83.4062V0.21875ZM41.7812 41.8438H62.5938V62.6562H41.7812V41.8438ZM121.797 0.21875H225.859V21.0312H184.234V83.4688H225.859V104H121.797V83.4688H163.422V21.0312H121.797V0.21875ZM243.438 0.21875H264.25V21.0312H285.062V41.8438H264.25V104H243.438V0.21875ZM326.688 0.21875H347.5V104H326.688V83.4688H305.875V62.6562H326.688V0.21875ZM285.062 41.8438H305.875V62.6562H285.062V41.8438ZM365.078 0.21875H469.141V21.0312H427.516V104H406.703V21.0312H365.078V0.21875ZM556.75 0.21875H640V21.0312H556.75V0.21875ZM535.938 21.0312H556.75V41.8438H535.938V21.0312ZM556.75 41.8438H619.188V62.6562H556.75V41.8438ZM619.188 62.6562H640V83.4688H619.188V62.6562ZM535.938 83.4688H619.188V104H535.938V83.4688ZM657.578 0.21875H761.641V21.0312H720.016V104H699.203V21.0312H657.578V0.21875ZM779.219 0.21875H800.031V83.4688H779.219V0.21875ZM862.469 0.21875H883.281V83.4688H862.469V0.21875ZM800.031 83.4688H862.469V104H800.031V83.4688ZM900.859 0.21875H984.109V21.0312H921.672V83.4688H984.109V104H900.859V0.21875ZM984.109 21.0312H1004.92V83.4688H984.109V21.0312ZM1022.5 0.21875H1126.56V21.0312H1084.94V83.4688H1126.56V104H1022.5V83.4688H1064.12V21.0312H1022.5V0.21875ZM1164.95 0.21875H1227.39V21.0312H1164.95V0.21875ZM1144.14 21.0312H1164.95V83.4688H1144.14V21.0312ZM1227.39 21.0312H1248.2V83.4688H1227.39V21.0312ZM1164.95 83.4688H1227.39V104H1164.95V83.4688ZM1286.59 0.21875H1369.84V21.0312H1286.59V0.21875ZM1265.78 21.0312H1286.59V41.8438H1265.78V21.0312ZM1286.59 41.8438H1349.03V62.6562H1286.59V41.8438ZM1349.03 62.6562H1369.84V83.4688H1349.03V62.6562ZM1265.78 83.4688H1349.03V104H1265.78V83.4688Z" fill="url(#paint0_linear_15_27)"/>
<defs>
<linearGradient id="paint0_linear_15_27" x1="685" y1="-47" x2="685" y2="131" gradientUnits="userSpaceOnUse">
<stop stop-color="#47D400"/>
<stop offset="1" stop-color="#C3FC21"/>
</linearGradient>
</defs>
</svg>
