<svg width="760" height="58" viewBox="0 0 760 58" fill="none" xmlns="http://www.w3.org/2000/svg">
<path d="M0 0H11.5419V11.5419H23.0839V23.0839H11.5419V57.5537H0V0ZM46.1677 0H57.7097V57.5537H46.1677V23.0839H34.6258V11.5419H46.1677V0ZM23.0839 23.0839H34.6258V34.6258H23.0839V23.0839Z" fill="white"/>
<path d="M67.4579 0H125.168V11.5419H102.084V46.1677H125.168V57.5537H67.4579V46.1677H90.5418V11.5419H67.4579V0Z" fill="white"/>
<path d="M134.916 0H146.458V11.5419H158V23.0839H146.458V57.5537H134.916V0ZM181.084 0H192.626V57.5537H181.084V46.1677H169.542V34.6258H181.084V0ZM158 23.0839H169.542V34.6258H158V23.0839Z" fill="white"/>
<path d="M202.374 0H260.083V11.5419H237V57.5537H225.458V11.5419H202.374V0Z" fill="white"/>
<path d="M308.669 0H354.837V11.5419H308.669V0ZM297.127 11.5419H308.669V23.0839H297.127V11.5419ZM308.669 23.0839H343.295V34.6258H308.669V23.0839ZM343.295 34.6258H354.837V46.1677H343.295V34.6258ZM297.127 46.1677H343.295V57.5537H297.127V46.1677Z" fill="white"/>
<path d="M364.585 0H422.294V11.5419H399.211V57.5537H387.669V11.5419H364.585V0Z" fill="white"/>
<path d="M432.043 0H443.585V46.1677H432.043V0ZM478.211 0H489.752V46.1677H478.211V0ZM443.585 46.1677H478.211V57.5537H443.585V46.1677Z" fill="white"/>
<path d="M499.501 0H545.668V11.5419H511.043V46.1677H545.668V57.5537H499.501V0ZM545.668 11.5419H557.21V46.1677H545.668V11.5419Z" fill="white"/>
<path d="M566.959 0H624.668V11.5419H601.584V46.1677H624.668V57.5537H566.959V46.1677H590.043V11.5419H566.959V0Z" fill="white"/>
<path d="M645.959 0H680.584V11.5419H645.959V0ZM634.417 11.5419H645.959V46.1677H634.417V11.5419ZM680.584 11.5419H692.126V46.1677H680.584V11.5419ZM645.959 46.1677H680.584V57.5537H645.959V46.1677Z" fill="white"/>
<path d="M713.416 0H759.584V11.5419H713.416V0ZM701.875 11.5419H713.416V23.0839H701.875V11.5419ZM713.416 23.0839H748.042V34.6258H713.416V23.0839ZM748.042 34.6258H759.584V46.1677H748.042V34.6258ZM701.875 46.1677H748.042V57.5537H701.875V46.1677Z" fill="white"/>
</svg>
