<svg width="125" height="24" viewBox="0 0 125 24" fill="none" xmlns="http://www.w3.org/2000/svg">
<path d="M10.1362 0.200195H13.0402V17.0002H10.1362L0.200195 0.200195H3.5842L10.1362 11.2882V0.200195Z" fill="white"/>
<path d="M34.5626 0.200195H37.5626L33.3146 17.0002H30.3146L27.5786 6.1522L24.8426 17.0002H21.8426L17.5946 0.200195H20.5946L23.3306 11.0482L26.0666 0.200195H29.0666L31.8266 11.0482L34.5626 0.200195Z" fill="white"/>
<path d="M43.0546 1.3282C44.3506 0.576196 45.7586 0.200195 47.2786 0.200195C48.7986 0.200195 50.1986 0.576196 51.4786 1.3282C52.7746 2.0802 53.7986 3.1042 54.5506 4.4002C55.3026 5.6802 55.6786 7.08019 55.6786 8.60019C55.6786 10.1202 55.3026 11.5282 54.5506 12.8242C53.7986 14.1042 52.7746 15.1202 51.4786 15.8722C50.1986 16.6242 48.7986 17.0002 47.2786 17.0002C45.7586 17.0002 44.3506 16.6242 43.0546 15.8722C41.7746 15.1202 40.7586 14.1042 40.0066 12.8242C39.2546 11.5282 38.8786 10.1202 38.8786 8.60019C38.8786 7.08019 39.2546 5.6802 40.0066 4.4002C40.7586 3.1042 41.7746 2.0802 43.0546 1.3282ZM43.3906 12.4882C44.4626 13.5602 45.7586 14.0962 47.2786 14.0962C48.7986 14.0962 50.0946 13.5602 51.1666 12.4882C52.2386 11.4162 52.7746 10.1202 52.7746 8.60019C52.7746 7.08019 52.2386 5.7842 51.1666 4.7122C50.0946 3.6402 48.7986 3.10419 47.2786 3.10419C45.7586 3.10419 44.4626 3.6402 43.3906 4.7122C42.3186 5.7842 41.7826 7.08019 41.7826 8.60019C41.7826 10.1202 42.3186 11.4162 43.3906 12.4882Z" fill="white"/>
<path d="M78.7573 0.200195H81.7573L77.5093 17.0002H74.5093L71.7733 6.1522L69.0373 17.0002H66.0373L61.7893 0.200195H64.7893L67.5253 11.0482L70.2613 0.200195H73.2613L76.0213 11.0482L78.7573 0.200195Z" fill="white"/>
<path d="M89.7646 0.200195L95.8846 17.0002H92.7886L88.2046 4.4482L83.6446 17.0002H80.5486L86.6686 0.200195H89.7646Z" fill="white"/>
<path d="M109.163 5.1202C109.163 6.0642 108.915 6.9282 108.419 7.7122C107.923 8.4962 107.267 9.0962 106.451 9.5122L109.163 17.0002H106.067L103.547 10.0642H97.3308V7.1362H104.243C104.803 7.1362 105.275 6.9442 105.659 6.5602C106.059 6.1602 106.259 5.6882 106.259 5.1442C106.259 4.5842 106.059 4.1042 105.659 3.7042C105.275 3.3042 104.803 3.10419 104.243 3.10419H97.3308V0.200195H104.243C105.603 0.200195 106.763 0.680196 107.723 1.6402C108.683 2.6002 109.163 3.7602 109.163 5.1202Z" fill="white"/>
<path d="M119.213 7.1362C120.573 7.1362 121.733 7.6242 122.693 8.60019C123.653 9.56019 124.133 10.7202 124.133 12.0802C124.133 13.4402 123.653 14.6002 122.693 15.5602C121.733 16.5202 120.573 17.0002 119.213 17.0002H112.301V14.0962H119.213C119.773 14.0962 120.245 13.9042 120.629 13.5202C121.029 13.1202 121.229 12.6402 121.229 12.0802C121.229 11.5202 121.029 11.0482 120.629 10.6642C120.245 10.2642 119.773 10.0642 119.213 10.0642H117.221C115.861 10.0642 114.701 9.5842 113.741 8.6242C112.781 7.6482 112.301 6.4802 112.301 5.1202C112.301 3.7602 112.781 2.6002 113.741 1.6402C114.701 0.680196 115.861 0.200195 117.221 0.200195H123.149V3.10419H117.221C116.677 3.10419 116.205 3.3042 115.805 3.7042C115.405 4.1042 115.205 4.5842 115.205 5.1442C115.205 5.6882 115.405 6.1602 115.805 6.5602C116.205 6.9442 116.677 7.1362 117.221 7.1362H119.213Z" fill="white"/>
<path d="M0.288086 20.7826C0.288086 20.813 0.303247 20.8471 0.322198 20.8698L2.26657 22.962C2.28552 22.9848 2.31963 22.9999 2.34995 22.9999H2.40301C2.43334 22.9999 2.45229 22.981 2.45229 22.9506V20.396C2.45229 20.3657 2.43334 20.3468 2.40301 20.3468H2.04674C2.01641 20.3468 1.99746 20.3657 1.99746 20.396V21.9083C1.99746 21.9462 1.98609 21.9652 1.97093 21.9652C1.95577 21.9652 1.9444 21.9576 1.92545 21.9387L0.473805 20.3809C0.454855 20.3619 0.420743 20.3468 0.394211 20.3468H0.337358C0.307037 20.3468 0.288086 20.3657 0.288086 20.396V20.7826ZM0.288086 22.9506C0.288086 22.981 0.307037 22.9999 0.337358 22.9999H0.693637C0.723958 22.9999 0.742909 22.981 0.742909 22.9506V21.9349C0.742909 21.9045 0.727749 21.8704 0.708798 21.8515L0.322198 21.4346C0.303247 21.4118 0.288086 21.4156 0.288086 21.4459V22.9506Z" fill="white"/>
<path d="M9.9063 22.9506C9.9063 22.981 9.92525 22.9999 9.95557 22.9999H11.574C11.6043 22.9999 11.6233 22.981 11.6233 22.9506V22.6247C11.6233 22.5944 11.6043 22.5754 11.574 22.5754H10.4672C10.4028 22.5754 10.3611 22.5337 10.3611 22.4693V21.9917C10.3611 21.9273 10.4028 21.8856 10.4672 21.8856H11.3011C11.3314 21.8856 11.3504 21.8666 11.3504 21.8363V21.5104C11.3504 21.48 11.3314 21.4611 11.3011 21.4611H10.4672C10.4028 21.4611 10.3611 21.4194 10.3611 21.355V20.8774C10.3611 20.813 10.4028 20.7713 10.4672 20.7713H11.574C11.6043 20.7713 11.6233 20.7523 11.6233 20.722V20.396C11.6233 20.3657 11.6043 20.3468 11.574 20.3468H9.95557C9.92525 20.3468 9.9063 20.3657 9.9063 20.396V22.9506Z" fill="white"/>
<path d="M18.87 20.3923L19.954 23.0037C19.9615 23.0227 19.9843 23.0378 20.0108 23.0378C20.0336 23.0378 20.0563 23.0227 20.0639 23.0037L20.6286 21.7037C20.64 21.6733 20.6589 21.662 20.6703 21.662C20.6855 21.662 20.7006 21.6771 20.712 21.7037L21.2767 23.0037C21.2843 23.0227 21.3071 23.0378 21.3336 23.0378C21.3563 23.0378 21.3791 23.0227 21.3866 23.0037L22.4706 20.3923C22.482 20.3657 22.4706 20.3468 22.4403 20.3468H22.0613C22.031 20.3468 22.0045 20.3657 21.9931 20.3923L21.3601 21.9045C21.3487 21.9349 21.3336 21.95 21.3184 21.95C21.3033 21.95 21.2881 21.9349 21.2729 21.9045L20.7272 20.6689C20.7196 20.65 20.6968 20.6348 20.6703 20.6348C20.6476 20.6348 20.621 20.65 20.6134 20.6689L20.0677 21.9045C20.0525 21.9349 20.0411 21.95 20.026 21.95C20.0108 21.95 19.9919 21.9349 19.9805 21.9045L19.3513 20.3923C19.3399 20.3657 19.3134 20.3468 19.2831 20.3468H18.9003C18.87 20.3468 18.8586 20.3657 18.87 20.3923Z" fill="white"/>
<path d="M32.1145 20.3923L33.1985 23.0037C33.206 23.0227 33.2288 23.0378 33.2553 23.0378C33.2781 23.0378 33.3008 23.0227 33.3084 23.0037L33.8731 21.7037C33.8845 21.6733 33.9034 21.662 33.9148 21.662C33.93 21.662 33.9451 21.6771 33.9565 21.7037L34.5212 23.0037C34.5288 23.0227 34.5516 23.0378 34.5781 23.0378C34.6008 23.0378 34.6236 23.0227 34.6312 23.0037L34.7941 22.6095C34.8055 22.583 34.8055 22.5451 34.7941 22.5186L33.9717 20.6689C33.9641 20.65 33.9413 20.6348 33.9148 20.6348C33.8921 20.6348 33.8655 20.65 33.858 20.6689L33.3122 21.9045C33.297 21.9349 33.2856 21.95 33.2705 21.95C33.2553 21.95 33.2364 21.9349 33.225 21.9045L32.5958 20.3923C32.5845 20.3657 32.5579 20.3468 32.5276 20.3468H32.1448C32.1145 20.3468 32.1031 20.3657 32.1145 20.3923ZM34.7259 21.7037L34.942 22.1699C34.9533 22.1964 34.9685 22.1964 34.9799 22.1699L35.7152 20.3923C35.7265 20.3657 35.7152 20.3468 35.6848 20.3468H35.3058C35.2755 20.3468 35.249 20.3657 35.2376 20.3923L34.7259 21.6127C34.7145 21.643 34.7145 21.6771 34.7259 21.7037Z" fill="white"/>
<path d="M42.978 21.6733C42.978 22.5982 43.6603 23.0606 44.3463 23.0606C45.0285 23.0606 45.7108 22.5982 45.7108 21.6733C45.7108 20.7485 45.0285 20.2861 44.3463 20.2861C43.6603 20.2861 42.978 20.7485 42.978 21.6733ZM43.4253 21.6733C43.4253 21.0518 43.8839 20.7447 44.3463 20.7447C44.8049 20.7447 45.2673 21.0518 45.2673 21.6733C45.2673 22.2949 44.8049 22.6019 44.3463 22.6019C43.8839 22.6019 43.4253 22.2949 43.4253 21.6733Z" fill="white"/>
<path d="M53.154 22.9999H53.5103C53.5406 22.9999 53.5596 22.981 53.5596 22.9506V20.885C53.5596 20.8206 53.6013 20.7751 53.6657 20.7751H53.9424C54.5147 20.7751 54.5185 21.5142 53.9424 21.5142H53.8742C53.8438 21.5142 53.8249 21.5331 53.8249 21.5634V21.8932C53.8249 21.9235 53.84 21.9576 53.8552 21.9804L54.5336 22.9582C54.5526 22.9848 54.5829 22.9999 54.6132 22.9999H55.0567C55.087 22.9999 55.0984 22.9848 55.0794 22.9582L54.382 21.9652C54.3479 21.9159 54.3631 21.8666 54.4199 21.8363C55.0794 21.4838 54.9619 20.434 54.0523 20.3506C54.0068 20.3468 53.9424 20.3468 53.8363 20.3468H53.1237C53.1123 20.3468 53.1047 20.3544 53.1047 20.3657V22.9506C53.1047 22.981 53.1237 22.9999 53.154 22.9999Z" fill="white"/>
<path d="M62.4083 22.1016C62.4083 22.132 62.4273 22.1509 62.4576 22.1509H62.8139C62.8442 22.1509 62.8632 22.132 62.8632 22.1016V20.396C62.8632 20.3657 62.8442 20.3468 62.8139 20.3468H62.4576C62.4273 20.3468 62.4083 20.3657 62.4083 20.396V22.1016ZM62.4083 22.9506C62.4083 22.981 62.4273 22.9999 62.4576 22.9999H64.076C64.1063 22.9999 64.1253 22.981 64.1253 22.9506V22.6247C64.1253 22.5944 64.1063 22.5754 64.076 22.5754H62.4576C62.4273 22.5754 62.4083 22.5944 62.4083 22.6247V22.9506Z" fill="white"/>
<path d="M71.4799 20.7713H72.1963C73.3636 20.7713 73.394 22.4617 72.3062 22.5678C72.2645 22.5716 72.2 22.5716 72.0901 22.5716H71.9916C71.9272 22.5716 71.8855 22.5299 71.8855 22.4655V21.1882C71.8855 21.1579 71.8665 21.1389 71.8362 21.1389H71.4799C71.4496 21.1389 71.4306 21.1579 71.4306 21.1882V22.9506C71.4306 22.981 71.4496 22.9999 71.4799 22.9999H72.1091C72.2114 22.9999 72.2834 22.9999 72.3251 22.9961C73.1552 22.9203 73.5721 22.3063 73.5721 21.6733C73.5721 21.0404 73.1552 20.4074 72.3251 20.3506C72.2834 20.3468 72.2114 20.3468 72.1091 20.3468H71.4799C71.4496 20.3468 71.4306 20.3657 71.4306 20.396V20.722C71.4306 20.7523 71.4496 20.7713 71.4799 20.7713Z" fill="white"/>
<path d="M83.3597 21.6733C83.3597 22.5982 84.042 23.0606 84.728 23.0606C85.4102 23.0606 86.0925 22.5982 86.0925 21.6733C86.0925 20.7485 85.4102 20.2861 84.728 20.2861C84.042 20.2861 83.3597 20.7485 83.3597 21.6733ZM83.807 21.6733C83.807 21.0518 84.2656 20.7447 84.728 20.7447C85.1866 20.7447 85.649 21.0518 85.649 21.6733C85.649 22.2949 85.1866 22.6019 84.728 22.6019C84.2656 22.6019 83.807 22.2949 83.807 21.6733Z" fill="white"/>
<path d="M93.5357 22.9999H93.892C93.9223 22.9999 93.9413 22.981 93.9413 22.9506V20.885C93.9413 20.8206 93.983 20.7751 94.0474 20.7751H94.3241C94.8964 20.7751 94.9002 21.5142 94.3241 21.5142H94.2559C94.2256 21.5142 94.2066 21.5331 94.2066 21.5634V21.8932C94.2066 21.9235 94.2218 21.9576 94.2369 21.9804L94.9154 22.9582C94.9343 22.9848 94.9646 22.9999 94.995 22.9999H95.4384C95.4687 22.9999 95.4801 22.9848 95.4612 22.9582L94.7638 21.9652C94.7297 21.9159 94.7448 21.8666 94.8017 21.8363C95.4612 21.4838 95.3437 20.434 94.434 20.3506C94.3885 20.3468 94.3241 20.3468 94.218 20.3468H93.5054C93.494 20.3468 93.4865 20.3544 93.4865 20.3657V22.9506C93.4865 22.981 93.5054 22.9999 93.5357 22.9999Z" fill="white"/>
<path d="M102.839 20.7713H103.556C104.723 20.7713 104.753 22.4617 103.666 22.5678C103.624 22.5716 103.559 22.5716 103.45 22.5716H103.351C103.287 22.5716 103.245 22.5299 103.245 22.4655V21.1882C103.245 21.1579 103.226 21.1389 103.196 21.1389H102.839C102.809 21.1389 102.79 21.1579 102.79 21.1882V22.9506C102.79 22.981 102.809 22.9999 102.839 22.9999H103.469C103.571 22.9999 103.643 22.9999 103.685 22.9961C104.515 22.9203 104.932 22.3063 104.932 21.6733C104.932 21.0404 104.515 20.4074 103.685 20.3506C103.643 20.3468 103.571 20.3468 103.469 20.3468H102.839C102.809 20.3468 102.79 20.3657 102.79 20.396V20.722C102.79 20.7523 102.809 20.7713 102.839 20.7713Z" fill="white"/>
<path d="M112.266 21.8363C112.266 21.8666 112.285 21.8856 112.315 21.8856H113.934C113.964 21.8856 113.983 21.8666 113.983 21.8363V21.5104C113.983 21.48 113.964 21.4611 113.934 21.4611H112.315C112.285 21.4611 112.266 21.48 112.266 21.5104V21.8363ZM112.266 22.6247V22.9506C112.266 22.981 112.285 22.9999 112.315 22.9999H113.934C113.964 22.9999 113.983 22.981 113.983 22.9506V22.6247C113.983 22.5944 113.964 22.5754 113.934 22.5754H112.315C112.285 22.5754 112.266 22.5944 112.266 22.6247ZM112.315 20.7713H113.934C113.964 20.7713 113.983 20.7523 113.983 20.722V20.396C113.983 20.3657 113.964 20.3468 113.934 20.3468H112.315C112.285 20.3468 112.266 20.3657 112.266 20.396V20.722C112.266 20.7523 112.285 20.7713 112.315 20.7713Z" fill="white"/>
<path d="M121.428 22.9999H121.784C121.815 22.9999 121.834 22.981 121.834 22.9506V20.885C121.834 20.8206 121.875 20.7751 121.94 20.7751H122.216C122.789 20.7751 122.792 21.5142 122.216 21.5142H122.148C122.118 21.5142 122.099 21.5331 122.099 21.5634V21.8932C122.099 21.9235 122.114 21.9576 122.129 21.9804L122.808 22.9582C122.827 22.9848 122.857 22.9999 122.887 22.9999H123.331C123.361 22.9999 123.372 22.9848 123.353 22.9582L122.656 21.9652C122.622 21.9159 122.637 21.8666 122.694 21.8363C123.353 21.4838 123.236 20.434 122.326 20.3506C122.281 20.3468 122.216 20.3468 122.11 20.3468H121.398C121.386 20.3468 121.379 20.3544 121.379 20.3657V22.9506C121.379 22.981 121.398 22.9999 121.428 22.9999Z" fill="white"/>
<path d="M3.1042 17.0002H0.200195V5.2002L3.1042 10.2002V17.0002Z" fill="white"/>
</svg>
