<svg width="121" height="90" viewBox="0 0 121 90" fill="none" xmlns="http://www.w3.org/2000/svg">
<path fill-rule="evenodd" clip-rule="evenodd" d="M34.0637 16L43.3013 0L52.5389 16L59.8427 28.6506L50.6051 44.6506L43.3013 32L27.7128 59H42.3205L33.0829 75H18.4752H0L9.2376 59L34.0637 16Z" fill="white"/>
<rect x="68.9846" y="76.4706" width="55.9692" height="16" transform="rotate(-120 68.9846 76.4706)" fill="white"/>
<path d="M31 58.9998H45L54.5 74.9998H31V58.9998Z" fill="white"/>
<path fill-rule="evenodd" clip-rule="evenodd" d="M86.0804 73.9998L76.8428 89.9998L67.6052 73.9998L60.3013 61.3492L69.5389 45.3492L76.8428 57.9998L92.4312 30.9998H77.8235L87.0611 14.9998H101.669H120.144L110.906 30.9998L86.0804 73.9998Z" fill="white"/>
<path d="M88.5 30.9998H74.5L65 14.9998H88.5V30.9998Z" fill="white"/>
</svg>
