<svg fill="none" height="100" viewBox="0 0 100 100" width="100" xmlns="http://www.w3.org/2000/svg"><path clip-rule="evenodd" d="m98.6196 69.981c-1.9339 2.4398-6.6718 4.1802-6.6718 4.1802l-35.2456 12.66v-9.3364l25.9384-9.242c2.9435-1.0547 3.3955-2.5455 1.0029-3.3281-2.3881-.7848-6.7123-.5599-9.658.4992l-17.2833 6.0872v-9.6895l.9962-.3373s4.9943-1.7675 12.0169-2.5455c7.0225-.7735 15.6214.1057 22.3719 2.6647 7.6072 2.4038 8.4638 5.9477 6.5324 8.3875zm-38.5623-15.8981v-23.8763c0-2.8041-.5172-5.3855-3.1482-6.1163-2.0148-.6454-3.265 1.2255-3.265 4.0273v59.792l-16.1252-5.118v-71.2916c6.8562 1.2727 16.8447 4.2815 22.2145 6.0916 13.6562 4.6885 18.2862 10.5238 18.2862 23.6717 0 12.8151-7.9108 17.6722-17.9623 12.8196zm-52.1263 22.4259c-7.809603-2.1991-9.10933-6.7819-5.5497-9.4219 3.2898-2.4375 8.8845-4.2724 8.8845-4.2724l23.1207-8.2211v9.3724l-16.6378 5.9545c-2.939 1.0546-3.391 2.5477-1.0029 3.3302 2.3903.7826 6.7167.5599 9.6602-.4969l7.9805-2.8963v8.3853c-.5059.0899-1.0703.1798-1.592.2675-7.9828 1.3043-16.485.7601-24.8635-2.0013zm85.5526 3.7126c1.0097 0 1.9564.3913 2.6692 1.1131.7128.7105 1.1063 1.6595 1.1063 2.6669 0 1.0119-.3935 1.9563-1.1063 2.6669-.7128.7173-1.6595 1.1086-2.6692 1.1086-1.0096 0-1.9541-.3913-2.6691-1.1086-.7129-.7106-1.1041-1.655-1.1041-2.6669 0-2.0823 1.691-3.78 3.7732-3.78zm-3.1391 3.78c0 .8387.326 1.628.9197 2.2172.5914.5981 1.3829.9219 2.2194.9219 1.7337 0 3.1392-1.4076 3.1392-3.1391 0-.841-.3238-1.6303-.9197-2.2217-.5914-.5981-1.383-.9197-2.2195-.9197s-1.628.3216-2.2194.9197c-.5937.5914-.9197 1.3807-.9197 2.2217zm4.2792-2.0351c.4138.1822.6229.533.6229 1.0322 0 .2563-.054.4722-.1642.6409-.0787.1214-.1911.2203-.317.3058.0989.0584.1866.1281.2518.2091.09.1169.1417.3036.1484.5577l.0203.5374c.0067.1439.0157.2541.0382.3216.0225.0989.0652.1619.1192.1821l.0562.027v.0607.0922.0922h-.0922-.6678-.054l-.027-.0472c-.0225-.045-.0382-.0967-.054-.1641-.0112-.0608-.0225-.1665-.0292-.3284l-.0338-.6678c-.009-.2316-.0877-.3755-.2361-.452-.0922-.0427-.2451-.063-.452-.063h-1.1445v1.6303.0922h-.0945-.5441-.0922v-.0922-4.0183-.0922h.0922 1.8596c.3193 0 .5869.0472.7938.1439zm-2.0148 1.6933h1.1648c.2339 0 .4205-.0428.5532-.1304.1214-.0877.1799-.2474.1799-.479 0-.2518-.0832-.416-.2586-.5037-.0967-.0472-.2316-.0742-.4025-.0742h-1.2368z" fill="#fff" fill-rule="evenodd"/></svg>