<svg width="1440" height="1024" viewBox="0 0 1440 1024" fill="none" xmlns="http://www.w3.org/2000/svg">
<g clip-path="url(#clip0)">
<path fill-rule="evenodd" clip-rule="evenodd" d="M789.861 575.096C789.457 576.218 788.451 579.032 787.175 582.574C788.301 583.119 789.519 583.699 791.217 584.515C792.077 587.644 796.837 590.955 793.943 595.187C791.337 598.995 798.22 603.019 792.959 606.108C793.854 614.095 788.23 619.857 784.524 625.437C781.165 630.498 780.345 636.819 775.261 641.215C770.842 645.04 768.356 651.108 765.005 656.205C762.089 656.338 759.381 656.453 755.627 656.621C756.305 658.784 756.81 660.406 757.612 662.964C756.602 664.098 754.944 665.973 753.145 668.003C754.257 671.416 755.299 674.625 756.527 678.392C754.78 680.382 753.047 682.359 751.155 684.517C752.644 685.049 754.04 685.546 756.416 686.392C753.699 688.32 751.465 689.907 749.116 691.573C749.573 692.11 750.282 692.938 751.394 694.237C743.394 697.215 736.267 690.044 727.443 693.51C721.991 697.441 717.945 705.464 709.847 708.429C706.723 709.577 709.395 715.303 704.041 714.629C702.135 714.39 703.545 720.524 699.077 719.332C697.411 724.89 692.451 727.123 688.537 730.625C685.289 733.523 682.324 737.304 679.709 741.085C677.528 744.232 675.201 747.281 672.892 750.339C670.804 753.109 668.353 755.658 666.634 758.636C665.171 761.176 665.295 765.515 663.319 766.663C660.659 768.205 658.842 769.871 658.275 773.457C655.66 771.897 654.064 770.949 652.46 769.991C647.465 772.433 642.461 774.756 637.488 768.648V755.959C627.928 750.574 617.933 745.871 613.457 733.696C613.807 729.681 611.857 723.99 615.722 719.292C610.111 708.087 614.982 698.603 620.384 689.26C626.886 678.015 635.418 668.415 645.422 659.573C639.54 650.749 633.393 642.527 628.38 633.667C624.932 627.573 621.12 620.925 620.93 613.953C620.735 606.729 618.461 599.19 622.769 591.863C624.692 588.583 622.844 583.832 625.003 579.511C626.297 576.914 627.099 574.028 629.094 571.537C630.171 570.195 630.122 567.947 631.008 564.384C632.998 562.536 637.989 560.045 639.03 556.428C640.537 551.172 647.265 553.175 647.168 547.028C648.905 548.344 649.676 548.929 650.878 549.838C653.661 549.013 656.808 548.083 660.092 547.116C661.289 549.386 662.295 551.287 663.514 553.601C661.107 557.957 658.479 562.718 655.456 568.187C661.43 567.597 666.044 567.136 669.985 566.746C671.593 568.355 672.449 569.206 673.397 570.155C671.784 573.319 670.157 576.519 668.012 580.743C671.802 581.133 674.745 581.434 678.392 581.807C677.493 586.079 676.597 590.365 675.715 594.58C674.173 595.954 672.506 597.443 670.791 598.977C671.877 600.063 672.325 600.643 672.422 600.586C674 599.713 675.538 598.76 677.413 597.625C678.047 599.318 678.441 600.36 678.951 601.707C675.529 603.44 672.276 605.089 668.566 606.964C670.286 607.54 671.651 607.996 674.177 608.838C671.296 611.724 668.739 614.285 665.406 617.632C669.657 620.987 673.424 623.965 677.462 627.156C683.409 628.287 688.187 625.778 692.863 621.736C703.682 612.397 715.574 604.247 726.233 594.859C737.145 585.246 748.753 575.828 756.522 562.948C758.339 559.934 761.53 557.753 764.274 555.014H776.994C777.69 555.896 778.887 557.417 780.128 558.977C778.736 562.944 777.309 567.03 775.447 572.34C779.303 571.28 782.432 570.421 786.506 569.299C787.148 570.407 788.145 572.131 789.861 575.096" fill="white" fill-opacity="0.8"/>
<path fill-rule="evenodd" clip-rule="evenodd" d="M22.8097 829.659C18.8873 830.873 15.6651 831.875 11.4989 833.165C12.5138 830.988 13.1831 829.552 14.0296 827.731C11.2551 823.551 8.11715 819.81 2.37752 820.639C1.93431 818.946 1.65065 817.856 1.25176 816.34H-8.73386C-9.7311 815.343 -10.5954 814.869 -10.8214 814.186C-12.3505 809.577 -12.674 804.099 -15.4486 800.482C-19.0209 795.833 -17.2436 791.272 -17.4076 786.769C-17.545 783.112 -16.0691 779.367 -15.1693 775.697C-11.9427 762.578 -6.95214 750.102 -0.596444 738.237C3.31714 730.942 7.70053 723.837 12.505 717.096C17.1986 710.509 22.6989 704.495 28.0042 698.028C26.5637 697.107 24.9859 696.034 23.346 695.063C7.49222 685.685 -6.39369 673.878 -19.2691 660.785C-25.3455 654.607 -25.381 646.314 -27.1539 638.682C-27.8674 635.628 -27.2691 632.264 -27.2691 629.042C-24.0203 622.846 -17.4741 622.323 -11.1228 619.797C-8.98206 623.564 -6.78372 627.438 -4.30172 631.794C-3.86737 631.475 -3.1139 630.921 -1.7621 629.924C-0.93329 630.748 0.524887 631.542 0.932644 632.708C3.45897 639.892 9.32713 643.549 15.5632 646.66C28.2524 653.002 41.0569 659.096 54.6813 665.714C57.868 662.345 61.0547 657.177 65.6819 654.593C69.9456 652.209 70.1672 645.388 76.8154 646.044C75.8669 644.878 75.2065 644.067 74.2226 642.862C76.2614 641.434 78.3268 639.99 81.2032 637.977C82.1118 635.974 83.4991 632.92 84.8553 629.929C86.9118 629.809 88.8221 629.698 91.5744 629.539C90.4044 628.032 89.7927 627.247 88.8442 626.024C93.9767 625.275 94.3179 619.961 97.549 617.106C100.962 614.088 103.377 609.944 106.613 605.796C107.331 606.323 108.08 606.873 109.507 607.923C110.136 606.443 110.726 605.046 111.466 603.296C112.339 604.001 113.146 604.648 114.599 605.827C116.182 597.339 120.995 590.531 126.11 584.41C131.38 578.099 136.117 570.852 144.742 566.629C145.824 567.52 147.273 568.712 148.913 570.059C145.505 576.605 142.203 583.094 135.218 586.511V596.178C136.871 595.774 138.551 595.85 138.901 595.203C140.301 592.592 141.29 589.76 141.844 588.426C147.588 583.692 152.282 579.828 158.203 574.952C158.54 579.469 158.752 582.416 158.965 585.244C157.161 585.984 155.787 586.547 154.342 587.141C154.715 587.659 155.18 588.661 155.428 588.608C158.362 588.005 161.265 587.243 164.833 586.361C165.844 588.142 167.076 590.31 168.317 592.49C167.652 593.23 166.859 594.108 166.003 595.056C166.509 598.558 170.719 601.647 167.462 605.658C166.513 604.803 165.671 604.04 164.811 603.256C164.412 604.005 163.637 604.798 163.796 605.299C164.239 606.717 165.068 608.016 165.999 609.851C165.334 615.989 160.428 620.067 155.876 624.211C151.568 628.134 146.83 631.577 141.29 636.023C143.568 637.33 145.549 638.474 147.778 639.759C146.387 642.432 145.545 644.045 144.658 645.738C145.172 646.31 145.944 647.152 147.14 648.473C144.512 648.894 142.296 649.253 139.118 649.771C139.982 651.974 140.722 653.849 141.578 656.025H133.529C132.035 659.088 130.732 661.76 129.491 664.304C130.644 665.545 131.45 666.414 132.612 667.664C130.143 668.12 127.931 668.533 124.714 669.135C125.494 671.192 126.207 673.044 127.045 675.247C124.98 675.553 122.755 675.881 119.856 676.307C120.707 678.602 121.398 680.464 122.542 683.549C119.395 682.325 117.104 681.435 114.338 680.362C113.035 682.844 111.705 685.379 110.411 687.843C110.872 688.721 111.054 689.683 111.599 689.98C112.561 690.503 113.859 690.405 114.812 690.937C118.513 693.002 119.377 697.789 123.016 699.841C126.939 702.057 128.645 705.86 131.145 709.246C133.396 712.296 135.067 714.866 134.814 718.727C134.726 720.047 135.905 721.448 136.636 723.101C135.998 724.187 135.085 725.734 133.839 727.852C130.573 728.229 128.197 732.604 122.236 730.294C111.825 726.257 100.988 722.64 89.6819 721.279C89.0525 721.204 88.534 720.202 87.5057 719.174C84.1994 722.902 80.9151 726.602 76.7932 731.252C76.7401 731.691 76.5184 733.592 76.2747 735.644C73.9611 736.007 71.745 736.358 68.3012 736.898C70.5749 740.09 72.2724 742.474 74.8032 746.029C71.9445 745.191 70.0386 744.637 67.6187 743.928C67.1179 744.522 66.1029 745.723 64.9993 747.026C66.3999 750.895 65.2741 753.262 60.74 755.837C59.3838 760.712 58.0807 765.397 56.9948 769.306C54.9472 770.06 53.8037 770.481 52.3278 771.026L54.9738 773.672C51.3616 776.438 47.2175 778.676 44.4164 782.035C41.8857 785.062 40.8308 789.317 38.8629 793.608C39.0535 793.9 39.8469 795.088 41.1056 796.972C38.4419 799.715 35.8269 802.41 33.3095 804.998C34.289 806.222 35.0114 807.121 36.2613 808.681C34.484 810.711 32.7377 812.706 30.792 814.926V821.973C27.9377 824.721 25.0435 827.509 22.8097 829.659" fill="white" fill-opacity="0.8"/>
<path fill-rule="evenodd" clip-rule="evenodd" d="M320.041 877.83C325.625 884.585 325.63 884.598 332.407 880.853C332.597 883.016 332.531 884.899 332.996 886.637C333.329 887.869 334.375 888.911 335.048 889.956C334.188 890.821 333.617 891.388 332.89 892.115C334.578 892.904 336.192 893.662 338.833 894.898C336.085 898.812 333.493 902.499 330.904 906.191C334.242 912.193 327.181 913.256 326.166 916.47C324.602 921.434 318.565 922.502 318.392 927.807C318.193 933.994 311.846 934.757 309.089 938.36C306.696 941.493 302.441 943.541 301.891 947.539C302.844 949.17 303.598 950.46 304.834 952.583C301.258 954.604 298.142 956.372 295.017 958.141L287.478 961.704C285.187 964.408 282.895 967.111 279.833 970.719V973.09C272.116 978.759 264.91 984.064 256.542 990.216C258.935 991.435 260.384 992.175 262.787 993.403C259.462 998.052 256.098 1002.76 252.482 1007.82C261.767 1010.98 270.503 1013.96 279.513 1017.04C278.623 1018.83 277.869 1020.34 276.85 1022.39C280.865 1023.82 284.619 1025.16 288.905 1026.69V1031.94C291.6 1034.42 293.962 1036.59 296.409 1038.84C296.559 1041.68 296.697 1044.39 296.834 1046.99L301.218 1051.37L290.097 1060.62C287.478 1063.54 284.748 1063 281.814 1061.05C280.923 1060.46 279.673 1060.12 278.592 1060.15C266.111 1060.42 254.831 1055.67 243.476 1051.52C235.099 1048.46 227.037 1044.55 218.35 1040.8C215.979 1043.17 212.287 1044.96 211.812 1049.83C206.795 1051.02 201.65 1052.24 196.836 1053.38C194.354 1050.87 192.373 1048.87 190.387 1046.85C191.141 1046.02 191.921 1045.16 193.073 1043.89C191.877 1041.4 190.587 1038.72 189.816 1037.12C186.079 1037.7 182.773 1038.21 179.546 1038.71C177.76 1035.18 176.156 1031.99 174.511 1028.74C173.709 1029.54 173.142 1030.11 172.934 1030.31C170.261 1027.6 167.566 1024.86 163.843 1021.09C165 1012.7 159.633 1003.07 161.073 992.658C161.379 990.478 159.708 987.322 157.949 985.673C150.817 978.981 150.511 969.31 147.161 961.079C145.88 957.937 144.515 953.948 144.404 950.149C144.218 944.117 143.513 937.921 144.546 932.062C146.177 922.794 147.932 912.911 158.724 909.263C162.292 908.057 166.219 907.924 170.921 907.144V925.994C175.012 923.362 177.751 921.598 181.838 918.965C182.405 920.631 183.088 922.617 183.761 924.603C184.369 924.142 184.976 923.681 185.583 923.22V934.34C187.662 933.285 189.164 932.523 190.582 931.8C195.71 936.286 195.577 942.03 194.868 947.938C196.584 948.545 197.98 949.037 200.218 949.83C199.265 952.419 198.312 954.989 197.16 958.096C198.556 957.844 199.256 957.919 199.646 957.604C200.586 956.86 201.233 955.53 202.261 955.14C212.584 951.218 217.778 940.244 228.14 936.428C230.224 928.924 238.135 927.324 242.758 922.267C247.567 917.01 254.352 913.589 260.154 909.205C265.769 904.959 268.934 897.806 276.26 895.559C281.074 886.796 288.001 880.157 296.622 875.202C296.32 869.267 304.484 868.532 304.294 862.273H315.192C315.972 863.049 317.111 864.188 318.25 865.327C313.034 867.924 311.128 872.964 307.791 878.291C315.01 879.785 319.168 870.996 325.971 875.051C324.003 875.973 322.394 876.727 320.041 877.83" fill="white" fill-opacity="0.8"/>
<path fill-rule="evenodd" clip-rule="evenodd" d="M292.032 750.074C291.469 744.423 299.42 743.802 295.653 738.537C294.691 739.397 293.836 740.155 292.98 740.913C292.697 740.624 292.205 740.372 292.156 740.053C291.261 734.131 291.62 728.516 295.821 723.689C300.444 718.388 305.027 713.043 309.459 707.583C310.86 705.859 311.724 703.7 313.102 701.271C310.913 695.567 307.912 689.655 305.306 683.778C302.51 677.466 302.572 670.623 299.531 664.378C297.913 661.063 302.133 655.244 301.145 651.184C300.032 646.641 297.351 642.776 301.269 638.495C301.348 626.519 309.49 619.055 316.613 610.74H336.748C337.927 611.857 339.093 612.965 340.981 614.752C337.918 618.656 334.851 622.561 331.46 626.882C331.837 627.689 332.746 629.617 333.96 632.201C335.095 632.201 337.266 632.852 338.042 632.086C341.406 628.784 345.293 630.118 348.834 629.728C350.142 632.56 351.232 634.927 352.447 637.555C350.629 639.824 348.755 642.169 345.909 645.719C350.213 646.268 353.098 646.636 356.892 647.119V658.705C365.056 658.971 365.951 649.083 372.826 649.123C375.946 644.372 380.498 641.065 384.597 637.276C389.326 632.91 393.825 628.283 398.284 623.634C402.388 619.348 406.554 615.079 410.242 610.452C414.036 605.683 417.298 600.489 419.492 597.342C424.487 595.551 427.301 594.541 430.794 593.291C431.937 594.918 433.812 596.571 434.291 598.561C434.658 600.09 433.44 602.124 432.62 603.778C431.684 605.657 430.404 607.359 430.417 610.665C433.94 609.18 437.464 607.691 441.342 606.056C443.412 610.089 445.628 614.406 448.988 620.952C448.988 620.815 448.793 623.195 449.054 625.522C449.258 627.33 450.025 629.076 450.703 631.394C450.224 632.227 449.347 633.77 448.535 635.197C449.754 636.513 450.565 637.386 451.288 638.162C444.285 649.375 437.983 660.983 430.302 671.838C423.853 680.95 424.757 681.588 420.032 684.168C420.786 685.005 421.548 685.848 422.16 686.526C412.595 697.243 403.11 707.875 393.484 718.668V722.679C401.045 727.496 408.363 732.155 416.012 737.026C414.904 739.197 414.226 740.527 413.18 742.588C416.074 745.074 418.02 749.857 423.622 748.093C424.85 750.53 425.852 752.52 426.836 754.479C426.131 755.463 425.253 756.682 424.052 758.353C427.084 761.389 429.805 764.115 432.748 767.062C431.627 769.947 430.674 772.407 429.615 775.133C430.39 776.463 431.321 778.067 432.181 779.543C431.755 780.461 431.622 781.409 431.095 781.759C429.907 782.535 428.161 782.685 427.292 783.669C422.093 789.538 421.163 789.866 414.625 787.632C406.16 784.738 397.056 783.036 389.322 778.812C378.96 773.156 369.648 765.577 358.944 758.171C354.45 761.495 349.406 766.056 344.548 771.246C339.85 776.268 333.659 780.248 325.051 782.81C326.567 780.305 327.188 779.282 328.531 777.048C323.137 778.054 318.612 778.896 314.091 779.738L313.315 778.182C316.037 776.059 318.753 773.941 321.475 771.822L317.269 767.616H309.016C307.917 764.855 306.694 761.761 305.249 758.127H295.232C293.854 754.657 292.617 751.545 292.032 750.074" fill="white" fill-opacity="0.8"/>
<path fill-rule="evenodd" clip-rule="evenodd" d="M344.458 512.9C340.31 513.893 336.653 514.77 331.494 516.007C326.198 512.093 319.864 507.218 313.327 502.644C305.53 497.188 298.758 490.238 289.858 486.396C287.797 485.505 285.635 484.862 282.771 483.834C279.301 478.635 278.898 468.982 268.717 470.045C264.112 465.835 263.549 458.522 256.817 457.813C254.614 454.059 253.222 449.764 250.328 447.083C237.116 434.828 227.556 420.108 219.334 402.349C218.621 396.866 218.616 389.558 217.433 382.227C215.571 370.681 221.723 360.767 231.722 354.366C234.483 352.603 235.906 348.724 240.493 349.137C243.684 349.425 247.053 347.727 251.29 346.686C252.544 347.802 254.206 349.278 256.303 351.14C252.894 356.862 246.45 360.474 245.962 368.159C253.546 370.69 256.945 362.265 264.577 361.294C265.508 362.127 267.161 363.599 268.713 364.99C266.009 369.046 264.187 371.776 260.832 376.806C266.049 375.158 269.759 375.131 271.128 373.327C274.59 368.762 280.187 366.932 283.436 361.852C286.463 357.123 291.427 353.6 296.502 350.302C303.678 345.644 309.493 338.947 316.221 333.531C326.109 325.571 335.377 316.848 346.39 310.231C350.747 307.621 353.969 303.073 357.586 299.284C360.875 295.836 366.1 294.329 367.133 289.187H383.39V299.674C382.938 300.126 381.378 301.686 379.499 303.57C381.653 303.184 383.802 302.878 385.912 302.4C388.057 301.912 390.167 301.256 393.42 300.365C392.924 308.17 393.3 315.08 398.938 320.115C397.75 321.715 397.072 322.628 395.707 324.476C397.427 325.425 399.421 326.515 403.131 328.549C399.31 329.595 398.012 329.95 396.239 330.437C396.912 331.98 397.817 333.42 398.145 334.985C398.477 336.527 398.22 338.189 398.22 339.771C393.739 345.923 389.254 352.075 384.33 358.83C383.425 358.932 381.52 359.14 378.718 359.446C379.569 360.616 380.092 361.347 380.779 362.296C380.057 364.024 379.255 365.943 378.355 368.08C367.718 367.565 367.643 378.526 361.065 382.794C362.457 384.625 363.148 385.533 363.463 385.95C359.089 390.329 354.674 394.743 350.215 399.198C350.574 399.526 350.003 399.007 350.251 399.229C348.265 401.21 346.218 403.257 344.17 405.31C343.505 404.791 342.845 404.277 342.18 403.758V410.123C340.775 408.966 339.959 408.292 338.129 406.79C338.532 409.502 338.803 411.306 339.179 413.841C336.161 417.751 332.531 422.453 328.6 427.55C326.831 426.256 325.626 425.365 324.553 424.576C320.201 429.664 315.738 434.881 311.235 440.146C312.968 441.01 314.568 441.804 316.899 442.961C314.727 445.713 312.861 448.08 311.111 450.3C311.394 451.28 311.394 452.184 311.842 452.689C319.204 460.942 327.935 468.321 333.675 477.567C340.141 487.978 348.221 498.726 344.458 512.9" fill="white" fill-opacity="0.8"/>
<path fill-rule="evenodd" clip-rule="evenodd" d="M512.13 338.149C512.874 337.405 513.446 336.833 514.036 336.243C513.601 335.685 513.233 335.042 512.715 334.568C509.581 331.709 505.623 329.258 503.088 326.457C500.602 323.718 497.818 321.631 495.301 319.122C491.955 315.785 488.223 311.007 488.045 306.712C487.731 299.027 487.265 291.319 489.091 283.266C492.243 269.362 499.525 258.836 509.169 249.231C521.411 237.039 533.612 224.806 546.457 211.962C541.581 207.764 541.333 199.84 533.612 198.297C530.368 191.99 527.137 185.683 523.893 179.376C520.901 173.557 521.437 167.277 521.468 161.058C521.495 156.631 521.477 152.203 521.477 147.775C525.55 142.576 529.623 137.377 533.63 132.272H553.765C550.539 137.781 547.777 142.492 545.069 147.119C552.515 152.527 555.25 140.812 561.792 144.385C565.874 149.974 558.277 152.606 555.871 158.014C560.515 156.901 563.215 156.25 566.517 155.456C568.476 161.2 567.496 166.226 564.407 171.625C566.056 172.267 567.354 172.773 569.313 173.53C570.709 175.029 567.811 175.246 567.319 177.453C569.26 180.422 571.622 184.039 574.543 188.511C594.488 167.583 619.919 153.555 635.472 129.652H647.598C646.663 133.641 645.847 137.125 644.731 141.889C648.099 140.702 650.692 139.789 654.246 138.534V147.913C656.188 148.422 657.278 148.706 658.368 148.994C658.674 149.672 659.153 150.333 659.237 151.037C659.383 152.225 659.077 153.484 659.308 154.65C661.768 167.201 655.518 177.16 648.959 186.565C641.867 196.742 633.632 206.124 625.309 216.589C631.248 223.72 640.746 227.186 649.105 233.843C649.26 234.942 649.513 236.795 649.81 238.927C652.026 241.697 655.607 244.378 656.622 247.818C658.847 255.357 664.352 262.377 660.611 272.11C659.698 272.527 657.686 273.515 655.625 274.393C653.568 275.266 651.472 276.019 649.136 276.928C645.936 273.675 638.707 274.707 639.678 268.374C632.298 266.242 625.805 264.363 619.512 262.541C618.071 260.037 616.764 257.768 615.288 255.202H601.938C601.601 253.761 601.34 252.671 601.021 251.323C596.083 247.525 591.935 251.997 589.05 252.768C585.105 257.342 582.087 260.844 578.749 264.704C577.792 263.977 577.025 263.392 575.696 262.386C574.268 264.403 572.73 266.574 570.856 269.22C570.607 268.897 571.215 269.681 572.114 270.843C566.512 272.248 566.025 277.876 563.56 282.508C561.623 281.316 560.351 280.531 558.401 279.33C558.069 281.413 557.745 283.452 557.355 285.863C556.522 286.089 555.436 286.382 553.495 286.909C552.976 291.807 552.28 297.772 545.021 296.146C542.583 299.306 538.497 302.244 538.776 304.691C539.609 312.044 533.453 315.559 531.773 321.307C530.98 328.571 531.09 328.567 533.346 333.42C528.085 337.613 522.146 340.436 515.325 342.178C514.434 341.052 513.437 339.802 512.13 338.149" fill="white" fill-opacity="0.8"/>
<path fill-rule="evenodd" clip-rule="evenodd" d="M25.8828 324.961C35.5139 313.145 43.6469 303.323 51.6114 293.364C59.1549 283.932 65.6037 273.747 71.4674 263.31C70.7184 262.383 69.9915 261.488 68.7461 259.954C70.7937 257.632 72.8192 255.327 74.9688 252.885H82.9334C85.9118 255.864 88.3096 260.114 91.7179 261.2C95.8797 262.521 96.4692 265.849 98.149 268.336C103.973 276.947 108.024 285.687 103.547 296.91C100.795 303.81 98.0071 310.716 95.144 317.586C94.2841 319.655 93.6548 321.823 92.56 324.974L86.457 331.081V338.687C81.6791 347.343 77.7035 354.559 73.3511 362.448C79.3655 366.534 84.9057 370.474 90.6143 374.153C101.925 381.444 111.281 390.499 116.87 402.94C118.071 405.617 118.621 408.591 119.871 412.77C119.441 413.723 118.391 416.068 117.229 418.638C114.738 419.8 112.048 421.054 109.947 422.029C104.265 420.066 99.2393 418.599 94.4348 416.6C89.6259 414.605 85.0387 412.079 80.3539 409.787C79.5561 402.789 71.5782 405.617 68.294 400.857C65.5993 396.948 59.607 395.321 54.3505 392.258C38.5987 408.329 24.726 425.885 11.9969 444.376C11.0174 445.794 11.3321 448.103 11.0484 449.996C5.4994 454.268 0.0124032 453.617 -5.49232 449.734V445.892C-12.6458 441.606 -19.3516 437.59 -26.6868 433.194C-30.1971 429.081 -28.4109 422.619 -30.6979 417.619C-33.2464 412.052 -31.0924 406.663 -32.0586 402.568C-24.063 384.746 -14.6004 369.136 -1.05131 355.667V347.441C-8.88291 341.985 -13.7494 333.479 -18.6779 325.138C-20.3311 322.341 -20.5882 318.689 -21.3461 315.401C-22.8841 308.708 -25.1843 302.233 -24.9805 295.123C-24.586 281.526 -16.8652 271.824 -3.88345 266.944C4.30272 263.868 12.254 265.415 21.0562 264.551C16.3183 274.359 4.96754 273.521 -1.66738 281.743C9.77642 281.238 16.7482 270.459 28.418 272.515C27.9659 275.263 27.5139 278.015 27.0352 280.914C29.1759 281.667 32.3183 282.78 35.341 283.853V299.201C32.2297 304.63 28.8125 310.046 26.0247 315.773C25.1249 317.612 25.8828 320.263 25.8828 324.961" fill="white" fill-opacity="0.8"/>
<path fill-rule="evenodd" clip-rule="evenodd" d="M230.152 174.497C225.627 180.17 221.496 185.355 216.926 191.082V206.59C212.676 208.296 208.541 209.963 203.869 211.838C198.347 206.475 196.109 199.361 194.34 192.638C191.973 193.519 189.881 194.295 186.774 195.447C184.337 191.942 181.372 188.844 179.772 185.156C174.985 174.107 175.366 162.308 175.889 151.206C177.897 146.632 179.687 142.545 181.921 137.444C178.579 136.943 175.619 137.409 174.391 136.168C166.582 128.274 158.874 120.243 151.716 111.764C147.86 107.19 143.792 102.018 142.254 96.4467C140.011 88.2915 139.958 79.5336 138.898 70.4255C142.577 65.2532 145.569 59.1945 150.24 55.0194C154.535 51.1812 160.643 49.3729 167.264 46C168.807 47.6709 170.309 49.2887 171.829 50.933C170.943 51.7839 159.14 63.1524 159.14 63.1524C159.991 64.0078 160.846 64.8632 162.105 66.1175C167.508 62.1773 172.889 57.0227 181.673 60.4222C179.492 63.4095 177.795 65.7319 174.812 69.8139C178.845 68.2405 181.097 67.3674 184.217 66.153C185.689 68.369 187.266 70.7491 189.181 73.6389C185.848 76.9763 183.229 79.5957 180.069 82.7602C182.107 83.1768 183.207 83.4073 185.033 83.784C182.294 88.4023 183.84 94.789 176.78 97.1469C183.787 105.767 191.588 110.519 199.504 115.775C226.15 93.681 252.215 72.0654 278.631 50.1618H290.292C288.248 54.2571 286.626 57.5236 284.982 60.83C288.483 63.5025 291.253 60.502 294.356 59.1546C303.318 67.5181 305.427 77.9602 303.584 89.6079C299.861 94.3857 296.036 99.2921 292.131 104.3C292.384 104.531 292.964 105.072 294.56 106.548C292.41 106.822 290.34 107.088 288.266 107.354C289.077 108.223 289.888 109.096 290.699 109.969H286.201C277.917 125.557 263.916 136.163 253.664 150.364C267.714 158.191 283.435 164.015 298.301 172.875C298.753 175.108 299.262 177.644 299.861 180.64C301.687 178.707 303.056 177.258 304.377 175.862C310.36 176.668 310.236 183.547 315.258 186.065C319.655 188.272 322.221 194.131 325.642 198.43V212.782C324.481 213.943 323.342 215.082 321.747 216.677C309.301 215.348 299.01 208.256 287.677 202.521C287.446 202.729 286.604 203.492 286.236 203.824C278.307 201.865 273.578 193.356 264.43 194.628C260.166 189.145 253.155 188.719 247.685 185.488C242.159 182.226 236.805 178.685 230.152 174.497" fill="white" fill-opacity="0.8"/>
<path fill-rule="evenodd" clip-rule="evenodd" d="M582.152 367.611C584.648 369.021 586.611 370.129 589.492 371.755C588.836 375.691 588.171 379.658 587.36 384.542C589.386 388.061 591.083 393.42 597.231 395.582C599.983 391.744 601.672 387.352 606.968 385.207C610.687 383.695 612.872 378.399 615.721 374.778C618.855 370.794 623.207 368.072 625.676 363.219C627.75 359.137 632.209 356.345 635.023 352.542C637.926 348.611 640.125 344.156 642.629 339.937H656.253C656.971 343.757 658.15 347.534 653.652 351.478C657.534 351.656 660.539 351.793 663.287 351.917C664.515 357.555 665.623 362.661 666.713 367.651C664.754 368.418 663.367 368.959 661.732 369.597C661.904 370.705 661.878 371.862 662.272 372.846C665.641 381.165 665.091 384.019 658.616 390.441C655.912 393.118 654.782 397.284 655.881 399.886C657.61 403.973 652.42 402.399 654.871 406.171C652.273 404.03 651.458 403.356 650.048 402.195V408.928C647.495 409.42 645.288 409.841 642.664 410.342V416.95C639.571 420.172 637.39 422.45 635.573 424.347C639.788 428.473 643.675 432.276 646.906 435.445V444.549C649.512 447.155 652.238 449.881 655.03 452.682C654.161 454.224 653.607 455.195 652.637 456.901C653.904 459.472 655.46 462.636 657.468 466.718C655.136 471.585 652.561 476.961 650.115 482.067H640.041C628.304 475.352 616.927 468.833 605.581 462.335C603.568 465.442 601.968 467.915 600.612 470.011C598.52 468.992 596.907 468.203 594.132 466.851V478.1C590.454 476.731 587.883 475.773 583.07 473.983C585.055 476.695 585.601 477.435 586.647 478.862C584.43 480.946 582.086 483.148 578.376 486.632C577.632 482.133 577.166 479.315 576.657 476.212C578.354 475.627 579.728 475.153 581.474 474.546C581.647 473.637 581.855 472.538 582.108 471.195C580.579 470.663 579.174 470.184 577.765 469.697C578.283 467.561 578.811 465.406 579.706 461.754C577.468 463.806 576.603 464.6 576.089 465.07C570.943 464.103 566.077 463.195 560.949 462.238C560.16 460.722 559.136 458.745 557.926 456.431C558.839 452.895 559.876 448.879 560.927 444.784C563.289 445.174 566.29 445.675 569.29 446.171C569.414 445.728 569.534 445.285 569.663 444.837C566.529 443.263 563.4 441.69 560.639 440.303C562.256 436.961 563.865 433.632 565.541 430.167C557.589 416.662 548.925 403.915 544.027 389.245C541.089 379.139 544.568 369.154 546.022 359.208C547.152 351.474 553.547 346.005 560.546 342.091C561.543 341.532 562.487 340.89 564.083 339.897H576.102C577.999 341.794 579.706 343.505 580.907 344.706C578.54 347.073 576.134 349.475 574.706 350.898V358.335C577.37 357.643 579.927 356.983 582.853 356.225C584.386 357.657 585.791 358.973 587.741 360.795C585.694 363.294 584.005 365.355 582.152 367.611" fill="white" fill-opacity="0.8"/>
</g>
<defs>
<clipPath id="clip0">
<rect width="1440" height="1024" fill="white"/>
</clipPath>
</defs>
</svg>
