<svg width="1440" height="794" viewBox="0 0 1440 794" fill="none" xmlns="http://www.w3.org/2000/svg">
<g clip-path="url(#clip0)">
<path fill-rule="evenodd" clip-rule="evenodd" d="M1377.93 441.531C1286.16 490.014 1194.38 538.474 1102.6 586.952C1100.92 583.757 1099.24 580.562 1097.55 577.379C1189.37 528.639 1281.19 479.917 1373 431.189C1374.65 434.634 1376.29 438.091 1377.93 441.531" fill="url(#paint0_linear)"/>
<path fill-rule="evenodd" clip-rule="evenodd" d="M991.096 623.913C996.755 620.806 1002.4 617.695 1008.06 614.588L1076 589.027C1077.15 591.129 1078.3 593.231 1079.46 595.338C1064.2 603.123 1049.11 611.257 1033.67 618.639C990.368 639.351 947.245 660.46 903.28 679.652C894.378 683.538 882.118 679.699 871.405 679.428C874.364 678.155 877.332 676.898 880.305 675.629C917.231 658.389 954.17 641.153 991.096 623.913" fill="url(#paint1_linear)"/>
<path fill-rule="evenodd" clip-rule="evenodd" d="M1435.74 394.844C1462.13 378.282 1488.53 361.725 1514.93 345.168C1516.74 348.017 1518.56 350.871 1520.39 353.73C1493.58 370.138 1466.77 386.533 1439.96 402.94C1438.55 400.236 1437.15 397.536 1435.74 394.844" fill="url(#paint2_linear)"/>
<path fill-rule="evenodd" clip-rule="evenodd" d="M1470.12 314.876C1442.59 330.341 1414.85 345.468 1387.57 361.358C1322.28 399.39 1257.2 437.79 1192.04 476.041C1261.1 446.784 1326.14 410.549 1390.14 372.524C1418.25 355.82 1444.2 335.471 1471.14 316.772C1495.7 302.011 1520.27 287.242 1544.85 272.485C1542.06 268.466 1539.28 264.451 1536.51 260.424C1514.37 278.577 1492.24 296.718 1470.12 314.876M871.401 679.421C814.802 702.983 764.198 744.285 692.829 738.25C701.226 728.738 707.685 721.438 715.85 712.204C698.611 709.645 681.907 710.241 668.966 703.572C664.499 701.249 669.398 680.813 669.96 669.698C657.487 673.343 641.49 679.973 624.926 681.941C617.828 682.782 605.745 675.467 603.059 668.931C600.898 663.704 607.539 650.243 613.716 646.948C673.794 614.943 735.578 586.069 794.963 552.897C874.756 508.316 952.95 460.83 1031.55 414.145C1037.32 410.718 1040.88 403.55 1041.51 392.229C1003.3 413.006 965.198 433.998 926.828 454.486C826.171 508.265 725.57 562.167 624.376 614.908C614.27 620.185 600.196 617.863 587.971 619.074C594.474 607.029 597.881 589.852 607.979 583.761C687.422 535.873 768.309 490.398 848.367 443.533C878.242 426.048 907.053 406.74 936.43 388.392C953.012 378.042 950.936 371.264 933.571 364.029C907.345 353.105 882.592 337.898 855.612 329.806C841.73 325.638 822.249 328.881 809.085 335.903C785.82 348.305 765.44 366.14 743.871 381.698C741.606 378.871 739.366 376.053 737.113 373.23C760.136 354.515 783.151 335.781 806.191 317.057C804.132 314.421 802.086 311.789 800.039 309.158C778.207 325.68 756.544 342.453 734.487 358.676C713.063 374.433 696.864 380.582 672.548 354.883C653.989 335.255 628.887 313.869 595.311 312.693C586.268 312.377 573.946 300.418 570.196 290.984C567.539 284.328 575.093 271.548 581.176 263.966C592.052 250.393 605.259 238.67 617.486 226.169C615.269 223.606 613.023 221.047 610.793 218.48C599.053 226.252 587.593 234.533 575.42 241.582C569.559 244.964 562.377 246.036 555.787 248.151C554.495 241.136 551.483 233.9 552.327 227.154C553.361 218.852 556.493 210.326 560.641 202.998C578.277 171.886 572.297 153.905 542.13 131.402C506.691 104.963 471.811 77.3049 439.772 46.9073C419.981 28.152 407.084 3.45879 419.244 -26.9607C421.486 -32.6028 418.361 -43.1156 414.006 -48.2564C381.819 -86.3847 395.387 -146.189 443.975 -162.058C478.73 -173.412 516.277 -182.749 552.396 -182.099C648.879 -180.39 745.369 -173.992 841.651 -166.784C867.406 -164.855 881.329 -173.444 898.037 -191.715C968.11 -268.367 1038.06 -345.526 1113.58 -416.641C1141.56 -442.987 1183.43 -456.96 1221.28 -469.757C1256.27 -481.593 1284.99 -466.904 1305.7 -433.489C1317.42 -414.592 1339.22 -402.231 1353.21 -384.368C1375.62 -355.748 1402.13 -327.568 1414.66 -294.563C1435.41 -239.844 1445.57 -181.169 1462.22 -124.75C1466.01 -111.889 1476.38 -99.6988 1486.57 -90.257C1509.3 -69.2125 1533.05 -49.059 1557.81 -30.4397C1595.46 -2.10629 1616.98 37.4346 1637.6 77.9562C1643.68 89.9216 1652.48 101.064 1655.94 113.7C1661.44 133.829 1676.08 161.073 1623.82 154.895C1644.19 163.527 1654.37 167.844 1664.53 172.138C1656.64 189.468 1653.37 212.671 1640.06 223.098C1577.66 272.033 1515.63 322.734 1447.67 363.001C1311.76 443.497 1172.02 517.503 1034.05 594.522C1024.6 599.803 1016.68 607.835 1008.06 614.58C1002.4 617.687 996.747 620.811 991.088 623.918C954.162 641.159 917.236 658.399 880.297 675.634C877.324 676.903 874.369 678.164 871.401 679.421" fill="url(#paint3_linear)"/>
</g>
<defs>
<linearGradient id="paint0_linear" x1="1278.72" y1="396.874" x2="1197.03" y2="621.319" gradientUnits="userSpaceOnUse">
<stop stop-color="#F92B7F"/>
<stop offset="1" stop-color="#FF8865"/>
</linearGradient>
<linearGradient id="paint1_linear" x1="1002.74" y1="562.363" x2="949.75" y2="707.944" gradientUnits="userSpaceOnUse">
<stop stop-color="#F92B7F"/>
<stop offset="1" stop-color="#FF8865"/>
</linearGradient>
<linearGradient id="paint2_linear" x1="1491.74" y1="336.725" x2="1464.4" y2="411.835" gradientUnits="userSpaceOnUse">
<stop stop-color="#F92B7F"/>
<stop offset="1" stop-color="#FF8865"/>
</linearGradient>
<linearGradient id="paint3_linear" x1="1219.28" y1="-486.81" x2="763.968" y2="764.142" gradientUnits="userSpaceOnUse">
<stop stop-color="#F92B7F"/>
<stop offset="1" stop-color="#FF8865"/>
</linearGradient>
<clipPath id="clip0">
<rect width="1440" height="794" fill="white"/>
</clipPath>
</defs>
</svg>
