<svg width="100" height="100" viewBox="0 0 100 100" fill="none" xmlns="http://www.w3.org/2000/svg">
<g clip-path="url(#clip0)">
<path d="M49.4683 10C28.6627 10 11.6186 26.1891 10 46.7611L31.2274 55.6179C33.0255 54.3755 35.1999 53.6516 37.5366 53.6516C37.7475 53.6516 37.9555 53.6573 38.1607 53.6687L47.6017 39.8591V39.6653C47.6017 31.3556 54.3014 24.5933 62.537 24.5933C70.7726 24.5933 77.4722 31.3556 77.4722 39.6653C77.4722 47.975 70.7726 54.7402 62.537 54.7402C62.423 54.7402 62.3119 54.7374 62.1979 54.7345L48.7331 64.4263C48.7416 64.6059 48.7473 64.7854 48.7473 64.9621C48.7473 71.2029 43.7176 76.2782 37.5366 76.2782C32.1108 76.2782 27.5712 72.3684 26.5453 67.1934L11.3622 60.8585C16.0642 77.6347 31.3385 89.934 49.4683 89.934C71.3426 89.934 89.0734 72.0379 89.0734 49.967C89.0734 27.8932 71.3426 10 49.4683 10ZM34.8191 70.6432L29.9547 68.6142C30.8153 70.4267 32.3086 71.9427 34.2891 72.7748C38.5693 74.5758 43.505 72.5269 45.2889 68.2039C46.1524 66.1122 46.1581 63.804 45.3032 61.7066C44.4483 59.6092 42.8325 57.9735 40.7608 57.1015C38.7004 56.238 36.4948 56.2694 34.557 57.0074L39.5838 59.1048C42.7413 60.4328 44.2345 64.0918 42.918 67.2777C41.6043 70.4637 37.9766 71.9712 34.8191 70.6432ZM72.4893 39.6656C72.4893 34.1287 68.0238 29.6204 62.5381 29.6204C57.0496 29.6204 52.5841 34.1287 52.5841 39.6656C52.5841 45.2026 57.0496 49.7079 62.5381 49.7079C68.0238 49.7079 72.4893 45.2026 72.4893 39.6656ZM55.0776 39.6485C55.0776 35.4823 58.426 32.1054 62.5524 32.1054C66.6816 32.1054 70.03 35.4823 70.03 39.6485C70.03 43.8148 66.6816 47.1917 62.5524 47.1917C58.426 47.1917 55.0776 43.8148 55.0776 39.6485Z" fill="white"/>
</g>
<defs>
<clipPath id="clip0">
<rect width="79.0734" height="80" fill="white" transform="translate(10 10)"/>
</clipPath>
</defs>
</svg>
