<svg width="100" height="100" viewBox="0 0 100 100" fill="none" xmlns="http://www.w3.org/2000/svg">
<g clip-path="url(#clip0)">
<path d="M46.7437 13.6707C61.999 11.3306 77.2834 9.12646 92.5677 7C92.5774 20.4287 92.5677 33.8477 92.5774 47.2764C77.3027 47.3347 62.028 47.5677 46.7437 47.6163C46.734 36.2946 46.734 24.9826 46.7437 13.6707ZM8 19.0888C19.4875 17.3119 31.0244 15.7777 42.5603 14.3309C42.57 25.4681 42.57 36.5956 42.5797 47.7328C31.0535 47.7231 19.5262 47.8979 8 47.8687V19.0888ZM190.502 20.9628C193.524 19.0305 197.389 23.0601 195.626 26.0896C194.774 28.3131 191.655 29.1579 189.892 27.5266C187.683 26.0216 187.993 22.0211 190.502 20.9628ZM269.646 20.5647C271.583 20.5549 273.52 20.5549 275.457 20.5549V74.9301H269.666C269.676 72.959 269.637 70.9869 269.501 69.0168C265.307 76.5701 254.091 78.2411 247.679 72.6386C243.099 68.6867 241.703 62.2587 241.945 56.4416C241.993 50.538 243.931 44.2654 248.619 40.4106C254.711 35.3809 265.511 35.6722 269.685 43.0614C269.607 35.5567 269.675 28.0607 269.646 20.5647ZM257.131 42.0623C252.482 42.8002 249.334 47.0531 248.464 51.4517C247.32 56.7533 247.523 62.8889 250.856 67.3953C254.459 72.1909 262.411 72.2987 266.266 67.7642C268.891 65.026 269.636 61.1033 269.656 57.4329C269.684 53.5587 270.015 49.1893 267.448 45.9559C265.18 42.7225 260.948 41.266 257.131 42.0623ZM118.371 23.4582C120.55 23.4679 122.73 23.4679 124.919 23.497C128.319 35.8091 131.671 48.1406 135.079 60.4614C135.813 63.0509 136.344 65.6939 136.668 68.3662C140.213 53.248 145.056 38.4502 149.124 23.4582C151.013 23.4679 152.901 23.4679 154.791 23.4776C157.784 34.1487 160.582 44.8684 163.546 55.5492C164.642 59.8021 166.056 63.9968 166.501 68.3944C169.707 53.2956 174.278 38.4978 177.91 23.497C180.061 23.4679 182.211 23.4679 184.361 23.4679C179.673 40.6446 174.791 57.7728 170.046 74.9301H163.062C159.623 62.6093 156.215 50.2758 152.738 37.9744C152.155 35.9839 151.913 33.9254 151.73 31.8669C151.459 33.6438 151.207 35.4401 150.751 37.1782C147.235 49.7233 143.671 62.2481 140.252 74.8136C137.928 74.9398 135.602 74.9495 133.278 74.9301C128.289 57.7825 123.34 40.6155 118.371 23.4582ZM210.494 43.9751C213.816 38.0424 221.565 35.3139 227.812 38.0618C232.781 40.0038 234.631 45.7704 234.786 50.6846C235.056 58.7622 234.834 66.8505 234.902 74.9301C232.965 74.9301 231.028 74.9301 229.091 74.9204C229.003 67.1622 229.294 59.3846 228.954 51.6265C228.799 47.7814 227.172 43.1595 222.998 42.1788C216.906 40.3339 210.823 45.8394 210.628 51.8789C210.454 59.5594 210.619 67.2496 210.561 74.9301H204.749C204.76 62.6277 204.76 50.335 204.749 38.0327H210.571C210.562 40.0135 210.552 41.9943 210.494 43.9751ZM298.064 37.1199C303.246 36.6636 308.989 37.4792 312.884 41.2369C317.281 45.3053 318.589 51.6265 318.346 57.4038C318.279 62.5986 316.361 67.871 312.564 71.4928C304.641 78.7169 289.928 77.1342 284.9 67.201C280.949 58.8797 281.742 47.3638 288.958 41.0427C291.546 38.8483 294.819 37.8482 298.064 37.1199ZM297.018 42.4021C288.484 45.0335 287.041 56.2095 289.704 63.5599C291.825 70.0849 300.097 72.9784 306.035 69.9295C310.054 68.0749 311.885 63.5307 312.272 59.3652C312.707 54.5006 312.321 48.9863 308.892 45.1888C305.987 41.9069 301.067 41.1981 297.018 42.4021ZM386.196 37.1005C389.829 36.8481 393.529 37.1976 396.949 38.5376C397.897 40.3436 397.162 42.7128 397.384 44.7422C393.307 42.1885 387.688 40.5572 383.262 43.1595C380.231 44.8101 380.085 49.6932 383.04 51.5099C387.272 54.2578 392.648 54.9764 396.406 58.5107C400.552 62.5112 399.544 70.2014 394.692 73.2017C388.793 76.9692 381.025 76.6002 374.845 73.7261C374.845 71.5511 374.836 69.377 374.797 67.201C379.194 70.5607 385.374 72.4249 390.633 70.0363C393.704 68.4925 393.859 63.7638 391.156 61.7732C386.924 58.6467 381.123 58.1515 377.364 54.2481C373.655 50.5001 374.322 43.6061 378.459 40.431C380.598 38.4599 383.494 37.8676 386.196 37.1005ZM189.253 38.0424C191.19 38.0327 193.127 38.0327 195.064 38.0327V74.9301H189.253C189.253 62.6277 189.262 50.335 189.253 38.0424ZM320.768 38.0327H326.831C329.233 46.8201 331.559 55.6269 334.009 64.4046C334.503 66.0543 334.687 67.7642 334.861 69.4732C337.602 58.8904 341.07 48.4999 344.179 38.023L349.478 38.0521C352.142 48.5387 355.454 58.87 357.662 69.4634C359.939 58.9273 363.173 48.6261 365.702 38.1492C367.649 38.0521 369.596 38.023 371.551 38.0035C367.861 50.3069 364.326 62.6471 360.617 74.9301H354.591C351.976 64.9289 348.586 55.122 346.465 45.014C343.937 55.1123 340.43 64.9387 337.544 74.9301H331.723C328.081 62.6277 324.361 50.3535 320.768 38.0327ZM8 51.374C19.5175 51.3352 31.0331 51.5196 42.5497 51.5002C42.5497 62.6665 42.5787 73.8329 42.5603 84.9992C31.0535 83.2893 19.5262 81.795 8 80.2317V51.374ZM46.6759 51.8207H92.5677C92.5871 65.2105 92.5677 78.6004 92.5677 92C77.3124 89.7085 62.028 87.582 46.7437 85.5051C46.7243 74.2795 46.6952 63.0549 46.6759 51.8207Z" fill="white"/>
</g>
<defs>
<clipPath id="clip0">
<rect width="100" height="100" fill="white"/>
</clipPath>
</defs>
</svg>
