<svg width="100" height="100" viewBox="0 0 100 100" fill="none" xmlns="http://www.w3.org/2000/svg">
<g clip-path="url(#clip0)">
<path d="M45.9913 89.8355C39.8324 89.2456 33.5969 87.0338 28.2403 83.5389C23.7517 80.6104 22.738 79.4065 22.738 77.0039C22.738 72.178 28.0442 63.7254 37.1229 54.0896C42.2789 48.6171 49.4609 42.2025 50.2376 42.3762C51.7473 42.7138 63.819 54.4889 68.338 60.0319C75.4842 68.7972 78.7695 75.9741 77.1005 79.1737C75.8317 81.606 67.9592 86.3599 62.1755 88.1862C57.4087 89.6914 51.1483 90.3294 45.9913 89.8355V89.8355ZM16.6756 71.9863C12.9456 66.2641 11.0611 60.6306 10.1513 52.4826C9.85085 49.7921 9.95851 48.2532 10.8335 42.7309C11.924 35.8482 15.8436 27.8857 20.5534 22.9855C22.5593 20.8985 22.7385 20.8476 25.1836 21.6713C28.1528 22.6716 31.3238 24.8615 36.2414 29.3083L39.1107 31.9027L37.5439 33.8276C30.2707 42.7628 22.5928 55.4281 19.6992 63.2638C18.1262 67.5236 17.4917 71.7997 18.1685 73.5799C18.6255 74.7818 18.2057 74.3338 16.6756 71.9863ZM82.148 72.9596C82.5165 71.1608 82.0504 67.8572 80.9581 64.5252C78.5926 57.3093 70.6859 43.8852 63.4254 34.7581L61.1398 31.8849L63.6125 29.6144C66.8412 26.6498 69.0828 24.8746 71.5015 23.3671C73.4102 22.1775 76.1376 21.1244 77.31 21.1244C78.0328 21.1244 80.5775 23.7652 82.6318 26.6472C85.8134 31.1108 88.154 36.5217 89.3398 42.1545C90.106 45.794 90.1699 53.5844 89.4633 57.215C88.8834 60.1945 87.6589 64.0593 86.4644 66.6804C85.5694 68.6444 83.3434 72.4587 82.3679 73.6999C81.8663 74.338 81.8659 74.3366 82.148 72.9596H82.148ZM46.6508 19.7618C43.3008 18.0606 38.1328 16.2345 35.278 15.7432C34.2772 15.571 32.5699 15.4749 31.4841 15.5298C29.1286 15.6487 29.2338 15.5255 33.0124 13.7403C36.1539 12.2561 38.7743 11.3834 42.3315 10.6365C46.3331 9.79622 53.8548 9.78636 57.7927 10.6162C62.0459 11.5125 67.0543 13.3763 69.8765 15.113L70.7153 15.6292L68.7908 15.532C64.9666 15.3389 59.3933 16.8839 53.4096 19.7959C51.6048 20.6742 50.0346 21.3757 49.9204 21.3547C49.8061 21.3338 48.3348 20.617 46.6508 19.7618V19.7618Z" fill="white"/>
</g>
<defs>
<clipPath id="clip0">
<rect width="79.9561" height="80" fill="white" transform="translate(10 10)"/>
</clipPath>
</defs>
</svg>
